<svg version="1.1" xmlns="http://www.w3.org/2000/svg" viewBox="0 0 155.97951050243955 125.51537771909024" width="155.97951050243955" height="125.51537771909024">
  <!-- svg-source:excalidraw -->
  
  <defs>
    <style class="style-fonts">
      @font-face {
        font-family: "Virgil";
        src: url("https://excalidraw.com/Virgil.woff2");
      }
      @font-face {
        font-family: "Cascadia";
        src: url("https://excalidraw.com/Cascadia.woff2");
      }
    </style>
    
  </defs>
  <rect x="0" y="0" width="155.97951050243955" height="125.51537771909024" fill="#ffffff"></rect><g stroke-linecap="round"><g transform="translate(77.79992796643364 30.021783172414075) rotate(0 0.22825452777397004 42.35522015488917)"><path d="M0.78 -0.78 C-6.66 0.83, -35.46 1.71, -44.91 10.33 C-54.36 18.95, -59.56 38.97, -55.92 50.92 C-52.28 62.88, -39.1 77.62, -23.06 82.06 C-7.02 86.49, 27.09 83.97, 40.32 77.52 C53.56 71.07, 54.73 53.77, 56.37 43.35 C58.01 32.92, 59.61 22.2, 50.18 14.98 C40.75 7.75, 8.32 2.47, -0.21 0 M-0.28 1.42 C-7.75 3.13, -35.88 3.69, -45.25 11.62 C-54.61 19.55, -60.11 37.04, -56.46 49 C-52.82 60.95, -39.77 78.58, -23.35 83.34 C-6.94 88.1, 28.52 84.42, 42.04 77.56 C55.57 70.7, 56.83 52.78, 57.78 42.19 C58.74 31.59, 57.62 21.08, 47.77 13.99 C37.92 6.9, 6.53 2.18, -1.34 -0.35" stroke="#1e1e1e" stroke-width="2" fill="none"></path></g></g><mask></mask><g stroke-linecap="round"><g transform="translate(26.69477551367254 45.2359059049961) rotate(0 11.95396937419082 -17.123956350014957)"><path d="M0.63 0.99 C0.81 -4.37, -2.78 -30.5, 1.33 -32.99 C5.43 -35.48, 21.14 -16.79, 25.26 -13.97 M-0.5 0.46 C-0.4 -5.21, -3.23 -32.28, 0.91 -34.97 C5.06 -37.67, 20.09 -18.95, 24.36 -15.71" stroke="#1e1e1e" stroke-width="2" fill="none"></path></g></g><mask></mask><g stroke-linecap="round"><g transform="translate(102.21767428809017 33.29397343804746) rotate(0 12.97661415636685 -3.917162235934157)"><path d="M0.32 1.18 C4.37 -2.07, 20.46 -20.85, 24.72 -19.15 C28.99 -17.44, 25.69 6.3, 25.89 11.42 M-0.97 0.75 C2.89 -2.36, 19.52 -19.29, 23.81 -17.82 C28.11 -16.35, 24.48 5.01, 24.83 9.59" stroke="#1e1e1e" stroke-width="2" fill="none"></path></g></g><mask></mask><g stroke-linecap="round" transform="translate(43.0165499284858 73.99906821781126) rotate(0 6.2688210594437805 6.052512668199213)"><path d="M8.51 0.48 C9.43 0.78, 10.69 2.06, 11.23 3.43 C11.78 4.79, 12.07 7.34, 11.78 8.7 C11.49 10.05, 10.5 10.92, 9.49 11.54 C8.48 12.17, 7.15 12.59, 5.73 12.42 C4.32 12.26, 1.85 11.63, 1 10.58 C0.15 9.53, 0.53 7.47, 0.65 6.11 C0.77 4.75, 0.97 3.56, 1.73 2.41 C2.5 1.26, 4.04 -0.56, 5.24 -0.78 C6.44 -1.01, 8 0.53, 8.94 1.05 C9.89 1.56, 10.86 2.17, 10.92 2.29 M9.39 0.51 C10.64 0.95, 12.21 3.07, 12.59 4.21 C12.96 5.35, 12.17 6.23, 11.64 7.36 C11.1 8.49, 10.2 10.25, 9.37 11 C8.54 11.74, 7.94 11.76, 6.66 11.83 C5.39 11.91, 2.93 12.5, 1.7 11.45 C0.48 10.41, -0.54 6.79, -0.67 5.56 C-0.79 4.34, -0.05 4.79, 0.96 4.1 C1.98 3.41, 4.09 1.79, 5.43 1.42 C6.77 1.05, 8.19 2.19, 8.99 1.86 C9.78 1.54, 10.44 -0.2, 10.19 -0.51" stroke="none" stroke-width="0" fill="#1e1e1e"></path><path d="M5.08 1.13 C6.43 0.81, 8.64 -0.07, 9.81 0.48 C10.98 1.04, 11.58 3.27, 12.09 4.47 C12.61 5.67, 13.45 6.53, 12.91 7.68 C12.37 8.83, 10.03 10.77, 8.83 11.37 C7.63 11.96, 7.05 11.47, 5.72 11.25 C4.38 11.03, 1.85 10.82, 0.83 10.04 C-0.19 9.25, -0.51 7.69, -0.42 6.52 C-0.33 5.34, 0.45 4.21, 1.34 3 C2.24 1.79, 4.4 -0.14, 4.97 -0.74 C5.53 -1.34, 4.71 -0.85, 4.73 -0.6 M8.4 -0.75 C9.71 -0.9, 9.54 0.73, 10.13 1.71 C10.72 2.69, 12.01 3.72, 11.95 5.11 C11.89 6.5, 10.56 8.92, 9.75 10.06 C8.94 11.2, 8.27 11.91, 7.07 11.94 C5.87 11.98, 3.84 11.07, 2.56 10.26 C1.28 9.44, -0.37 8.23, -0.61 7.05 C-0.85 5.88, 0.46 4.1, 1.14 3.23 C1.81 2.36, 2.16 2.26, 3.42 1.83 C4.69 1.4, 8.21 1.03, 8.71 0.62 C9.21 0.22, 6.55 -0.64, 6.45 -0.6" stroke="#1e1e1e" stroke-width="2" fill="none"></path></g><g stroke-linecap="round"><g transform="translate(78.81128794233337 81.53578021114213) rotate(0 -0.33395313246091973 3.1408315135369804)"><path d="M-1.15 -0.39 C-1.03 0.74, 0.24 5.41, 0.24 6.63 M0.45 -1.64 C0.55 -0.33, 0.34 6.29, -0.08 7.93" stroke="#1e1e1e" stroke-width="2" fill="none"></path></g></g><mask></mask><g stroke-linecap="round"><g transform="translate(78.11989769824777 89.38587810193046) rotate(0 -6.426034241117122 0.982736105025495)"><path d="M-0.2 0.36 C-1.35 0.84, -4.13 3.26, -6.05 3.02 C-7.97 2.79, -10.65 -0.54, -11.74 -1.08 M-1.76 -0.5 C-2.6 -0.38, -1.91 1.12, -3.72 1.21 C-5.54 1.3, -11.13 0.66, -12.65 0.05" stroke="#1e1e1e" stroke-width="2" fill="none"></path></g></g><mask></mask><g stroke-linecap="round"><g transform="translate(78.61752671089653 89.69897549180068) rotate(0 4.533823189072336 2.3337331601330646)"><path d="M-0.18 0.81 C0.84 1.25, 3.81 3.64, 5.64 3.46 C7.47 3.27, 9.8 0.3, 10.8 -0.31 M-1.74 0.19 C-0.88 0.76, 2.54 4.81, 4.45 4.97 C6.36 5.13, 8.47 1.79, 9.74 1.15" stroke="#1e1e1e" stroke-width="2" fill="none"></path></g></g><mask></mask><g stroke-linecap="round" transform="translate(101.70709250513573 92.89634721248937) rotate(0 6.761657148273571 1.8170478481298176)"><path d="M5.23 0.49 C6.53 0.23, 8.52 -0.27, 9.84 -0.25 C11.16 -0.22, 12.67 0.29, 13.16 0.63 C13.65 0.96, 13.23 1.22, 12.78 1.78 C12.32 2.34, 11.43 3.58, 10.41 3.97 C9.39 4.36, 8.04 4.37, 6.65 4.12 C5.27 3.87, 3.04 2.75, 2.11 2.45 C1.17 2.15, 1.37 2.55, 1.04 2.32 C0.71 2.09, -0.72 1.54, 0.12 1.05 C0.96 0.56, 4.65 -0.5, 6.07 -0.61 C7.48 -0.72, 8.53 0.28, 8.6 0.38 M5.59 -0.68 C7 -0.94, 8.38 -1.74, 9.76 -1.2 C11.13 -0.66, 13.19 2.17, 13.86 2.56 C14.52 2.96, 14.39 0.85, 13.75 1.17 C13.11 1.49, 11.26 4.01, 10 4.47 C8.75 4.93, 7.52 4.29, 6.2 3.92 C4.87 3.54, 3.13 2.47, 2.05 2.22 C0.96 1.97, -0.4 2.58, -0.31 2.41 C-0.23 2.24, 1.79 1.82, 2.56 1.2 C3.32 0.58, 3.83 -1.18, 4.26 -1.3 C4.69 -1.42, 4.91 0.22, 5.13 0.49" stroke="none" stroke-width="0" fill="#ffc9c9"></path><path d="M7.05 0.07 C8.15 -0.09, 8.76 0.33, 9.95 0.55 C11.13 0.77, 13.83 1.05, 14.15 1.39 C14.48 1.73, 12.71 2.37, 11.9 2.58 C11.09 2.8, 10.47 2.64, 9.3 2.69 C8.12 2.75, 6.32 3, 4.83 2.91 C3.33 2.82, 1.03 2.48, 0.32 2.12 C-0.39 1.76, 0.25 0.87, 0.55 0.75 C0.85 0.64, 1.06 1.47, 2.12 1.46 C3.18 1.44, 5.85 0.76, 6.92 0.69 C8 0.61, 8.32 0.96, 8.55 1.03 M8.62 1.03 C9.95 1.2, 10.87 -0.62, 11.87 -0.19 C12.87 0.25, 14.68 2.87, 14.6 3.64 C14.52 4.41, 12.97 4.36, 11.41 4.44 C9.84 4.52, 6.79 4.23, 5.21 4.13 C3.63 4.04, 2.75 4.46, 1.92 3.87 C1.08 3.27, 0.38 1.24, 0.21 0.56 C0.04 -0.12, -0.11 -0.12, 0.91 -0.22 C1.93 -0.32, 4.84 0.06, 6.31 -0.05 C7.78 -0.17, 8.97 -0.8, 9.73 -0.91 C10.49 -1.02, 10.9 -1.04, 10.87 -0.71" stroke="#ffd4d4" stroke-width="2" fill="none"></path></g><g stroke-linecap="round"><g transform="translate(134.27277964692985 85.01007065660046) rotate(0 5.19078618855292 -2.1893803093583983)"><path d="M0.59 0.08 C2.41 -0.74, 9.27 -3.75, 10.94 -4.46 M-0.56 -0.92 C1.15 -1.63, 8.51 -2.87, 10.26 -3.21" stroke="#1e1e1e" stroke-width="2" fill="none"></path></g></g><mask></mask><g stroke-linecap="round"><g transform="translate(133.06488226626607 89.6439389227974) rotate(0 6.088676892868534 2.4221663304901)"><path d="M-0.74 0.63 C0.84 1.14, 8.46 3.07, 10.66 3.88 M1.08 -0.09 C2.93 0.48, 11.06 4.33, 12.91 4.94" stroke="#1e1e1e" stroke-width="2" fill="none"></path></g></g><mask></mask><g stroke-linecap="round"><g transform="translate(22.36495049113364 82.73913933881106) rotate(0 -5.479131408799276 -2.517048746052666)"><path d="M-0.52 -0.47 C-2.38 -0.99, -9.66 -2.27, -11.5 -2.75 M1.41 -1.76 C-0.57 -2.68, -10.09 -4.51, -12.36 -4.57" stroke="#1e1e1e" stroke-width="2" fill="none"></path></g></g><mask></mask><g stroke-linecap="round"><g transform="translate(24.16603228877102 88.54175716797731) rotate(0 -6.358711093620968 3.098198253371706)"><path d="M0.48 1.08 C-1.52 2.12, -10.39 4.79, -12.57 5.59 M-0.72 0.6 C-2.79 1.36, -11.15 3.28, -13.2 3.87" stroke="#1e1e1e" stroke-width="2" fill="none"></path></g></g><mask></mask><g stroke-linecap="round" transform="translate(104.23736686777102 75.83252648763555) rotate(0 6.2688210594437805 6.052512668199213)"><path d="M6.49 -0.16 C7.8 -0.19, 8.99 1.23, 9.9 1.91 C10.8 2.6, 11.59 2.63, 11.91 3.94 C12.22 5.24, 12.22 8.34, 11.78 9.75 C11.35 11.16, 10.52 11.91, 9.32 12.41 C8.11 12.91, 5.78 13.37, 4.55 12.74 C3.33 12.1, 2.83 9.95, 1.96 8.59 C1.09 7.23, -0.65 5.65, -0.66 4.59 C-0.68 3.52, 0.69 2.88, 1.88 2.2 C3.08 1.52, 5.66 0.7, 6.51 0.52 C7.37 0.34, 7.17 1.14, 7.02 1.11 M3.08 -0.39 C4.32 -0.86, 6.67 -0.71, 8.01 -0.19 C9.35 0.32, 10.59 1.76, 11.12 2.71 C11.65 3.65, 11.43 4.17, 11.19 5.46 C10.96 6.75, 10.56 9.54, 9.7 10.46 C8.84 11.37, 7.21 10.84, 6.01 10.96 C4.82 11.08, 3.73 11.6, 2.53 11.19 C1.32 10.78, -1.14 9.79, -1.22 8.49 C-1.3 7.19, 1.22 4.54, 2.04 3.38 C2.87 2.23, 3.28 2.16, 3.75 1.57 C4.21 0.97, 4.81 -0.27, 4.83 -0.18" stroke="none" stroke-width="0" fill="#1e1e1e"></path><path d="M4.05 0.28 C5.32 -0.31, 6.97 -0.63, 8.14 -0.28 C9.32 0.08, 10.3 1.26, 11.09 2.42 C11.89 3.59, 13.03 5.22, 12.92 6.72 C12.8 8.22, 11.37 10.48, 10.39 11.44 C9.41 12.4, 8.52 12.68, 7.05 12.45 C5.57 12.23, 2.61 10.98, 1.54 10.09 C0.47 9.21, 0.7 8.3, 0.62 7.13 C0.54 5.97, 0.23 4.12, 1.07 3.11 C1.9 2.09, 4.77 1.59, 5.63 1.03 C6.48 0.46, 6.33 -0.12, 6.18 -0.28 M5.36 0.75 C6.78 0.42, 9.12 0.96, 10.09 1.67 C11.06 2.39, 10.72 3.96, 11.19 5.03 C11.65 6.1, 13.12 7.04, 12.86 8.11 C12.61 9.17, 10.91 11.04, 9.66 11.42 C8.4 11.81, 6.99 10.77, 5.32 10.42 C3.66 10.07, 0.46 10.07, -0.34 9.35 C-1.14 8.63, 0.2 7.33, 0.52 6.1 C0.84 4.86, 0.49 2.89, 1.58 1.94 C2.68 0.99, 6.25 0.6, 7.07 0.4 C7.9 0.19, 6.76 0.56, 6.55 0.71" stroke="#1e1e1e" stroke-width="2" fill="none"></path></g><g stroke-linecap="round" transform="translate(44.2225509908576 91.01642211474716) rotate(0 6.761657148273571 1.8170478481298176)"><path d="M7.9 -0.68 C9.16 -0.71, 11.17 0.05, 12.11 0.37 C13.05 0.7, 13.75 0.78, 13.54 1.26 C13.33 1.73, 12 2.73, 10.84 3.21 C9.67 3.7, 7.8 4.24, 6.54 4.17 C5.28 4.1, 4.29 3.25, 3.27 2.81 C2.25 2.37, 0.98 1.97, 0.42 1.55 C-0.14 1.12, -0.56 0.36, -0.09 0.26 C0.37 0.15, 1.71 1.08, 3.22 0.92 C4.73 0.75, 7.96 -0.68, 8.98 -0.76 C9.99 -0.84, 9.1 0.17, 9.32 0.42 M3.89 -0.34 C5.27 -0.39, 8.38 -0.26, 9.66 -0.23 C10.95 -0.21, 10.89 -0.79, 11.6 -0.17 C12.31 0.44, 14 2.93, 13.9 3.46 C13.8 3.99, 12.17 2.78, 11.01 3 C9.86 3.23, 8.38 4.99, 6.97 4.81 C5.56 4.64, 3.96 2.38, 2.57 1.94 C1.19 1.51, -1.06 2.43, -1.31 2.19 C-1.57 1.95, -0.19 0.76, 1.06 0.5 C2.31 0.24, 5.41 0.83, 6.21 0.65 C7.01 0.47, 6.19 -0.31, 5.86 -0.57" stroke="none" stroke-width="0" fill="#ffc9c9"></path><path d="M3.47 0.34 C4.54 0.04, 7.23 -0.66, 8.91 -0.51 C10.59 -0.36, 12.77 0.83, 13.56 1.24 C14.34 1.64, 14.11 1.68, 13.63 1.93 C13.16 2.18, 11.89 2.44, 10.7 2.74 C9.5 3.05, 7.92 3.71, 6.46 3.76 C5 3.81, 3.16 3.25, 1.94 3.06 C0.72 2.88, -0.83 2.97, -0.85 2.67 C-0.86 2.38, 0.93 1.76, 1.85 1.29 C2.78 0.81, 3.78 -0.01, 4.69 -0.17 C5.6 -0.33, 7.14 0.21, 7.33 0.31 M6.06 0.58 C7.23 0.14, 7.35 -1.32, 8.44 -1.18 C9.52 -1.03, 11.76 0.87, 12.58 1.45 C13.4 2.04, 13.55 1.83, 13.36 2.35 C13.17 2.86, 12.73 4.35, 11.45 4.56 C10.17 4.76, 7.39 4, 5.69 3.58 C3.99 3.16, 2.05 2.34, 1.26 2.03 C0.48 1.71, 1 2.05, 0.98 1.72 C0.97 1.38, 0.59 0.38, 1.16 0.03 C1.73 -0.31, 3.59 -0.13, 4.42 -0.34 C5.25 -0.56, 5.92 -1.36, 6.13 -1.26" stroke="#ffd4d4" stroke-width="2" fill="none"></path></g><g stroke-linecap="round" transform="translate(32.77202792142816 21.346635560701998) rotate(345.86228717078205 2.2819223386682097 6.593339701788963)"><path d="M2.73 -0.35 C3.24 -0.36, 2.72 1.62, 3.14 2.61 C3.56 3.6, 5.19 4.39, 5.23 5.61 C5.28 6.82, 3.87 8.5, 3.4 9.89 C2.93 11.28, 2.62 13.41, 2.39 13.93 C2.17 14.45, 2.3 13.76, 2.05 13.03 C1.8 12.3, 1.13 10.81, 0.89 9.55 C0.65 8.29, 0.48 6.83, 0.6 5.48 C0.73 4.12, 1.35 2.27, 1.64 1.42 C1.94 0.57, 2.21 0.52, 2.39 0.38 C2.57 0.25, 2.68 0.53, 2.73 0.6 M1.66 0.75 C2.48 0.79, 3.88 0.56, 4.52 1.29 C5.16 2.02, 5.54 3.77, 5.49 5.12 C5.43 6.47, 4.51 8.24, 4.19 9.41 C3.87 10.58, 4.21 11.82, 3.55 12.15 C2.9 12.49, 0.78 12, 0.26 11.42 C-0.27 10.85, 0.33 9.93, 0.39 8.7 C0.45 7.48, 0.53 5.31, 0.63 4.08 C0.73 2.85, 0.89 2.14, 0.98 1.32 C1.07 0.51, 0.76 -0.7, 1.19 -0.82 C1.62 -0.94, 3.3 0.11, 3.54 0.58" stroke="none" stroke-width="0" fill="#ffc9c9"></path><path d="M2.15 0.26 C2.76 -0.21, 3.65 -0.17, 3.92 0.31 C4.18 0.79, 3.63 1.69, 3.75 3.14 C3.87 4.59, 4.55 7.44, 4.62 8.99 C4.69 10.53, 4.67 11.59, 4.17 12.41 C3.67 13.23, 2.07 14.23, 1.6 13.91 C1.12 13.58, 1.67 11.37, 1.32 10.45 C0.96 9.53, -0.22 9.67, -0.53 8.38 C-0.84 7.09, -1.16 4, -0.55 2.71 C0.06 1.41, 2.42 0.86, 3.11 0.6 C3.8 0.34, 3.77 1.03, 3.6 1.16 M1.44 1.27 C1.73 0.8, 2.03 -0.5, 2.45 0.03 C2.87 0.56, 3.54 2.97, 3.95 4.44 C4.36 5.92, 4.89 7.65, 4.91 8.9 C4.93 10.16, 4.5 11.35, 4.07 12 C3.65 12.64, 2.93 12.9, 2.35 12.76 C1.78 12.61, 1.21 12.2, 0.62 11.12 C0.04 10.04, -1.02 7.83, -1.17 6.28 C-1.32 4.73, -0.85 2.85, -0.29 1.83 C0.28 0.8, 1.98 0.42, 2.21 0.11 C2.44 -0.2, 1.31 -0.3, 1.07 -0.01" stroke="#ffd4d4" stroke-width="2" fill="none"></path></g><g stroke-linecap="round" transform="translate(116.79950810930859 24.30030330494762) rotate(18.443417074308265 2.2819223386682097 6.593339701788963)"><path d="M0.62 0.38 C1.37 -0.06, 3.36 0.45, 4.03 1.08 C4.69 1.72, 4.67 2.94, 4.63 4.22 C4.59 5.51, 4.01 7.43, 3.78 8.78 C3.55 10.13, 3.53 11.68, 3.26 12.32 C2.98 12.95, 2.6 12.63, 2.14 12.57 C1.67 12.52, 0.86 12.97, 0.46 11.98 C0.06 10.99, -0.27 8.04, -0.25 6.63 C-0.24 5.22, 0.24 4.6, 0.54 3.5 C0.85 2.4, 1.23 0.63, 1.58 0.01 C1.93 -0.6, 2.7 -0.3, 2.65 -0.2 M3.41 0.67 C3.66 0.88, 3.08 2.3, 3.25 3.36 C3.42 4.43, 4.43 5.44, 4.43 7.06 C4.43 8.69, 3.63 12.22, 3.26 13.13 C2.89 14.03, 2.73 12.72, 2.21 12.48 C1.68 12.25, 0.66 12.78, 0.11 11.71 C-0.45 10.63, -1.05 7.29, -1.13 6.02 C-1.21 4.76, -0.65 5.12, -0.36 4.13 C-0.06 3.14, 0.13 0.67, 0.64 0.06 C1.16 -0.54, 2.25 0.54, 2.76 0.52 C3.26 0.5, 3.81 -0.37, 3.69 -0.07" stroke="none" stroke-width="0" fill="#ffc9c9"></path><path d="M2.75 -0.42 C3.51 -0.21, 4.98 1.81, 5.19 3.27 C5.39 4.73, 4.14 7.04, 3.97 8.36 C3.8 9.68, 4.55 10.39, 4.16 11.21 C3.77 12.02, 2.36 13.03, 1.65 13.25 C0.93 13.47, 0.25 13.46, -0.15 12.53 C-0.55 11.6, -0.76 9.06, -0.76 7.7 C-0.76 6.33, -0.44 5.66, -0.17 4.35 C0.1 3.04, 0.17 0.33, 0.88 -0.18 C1.6 -0.68, 3.67 1.11, 4.11 1.31 C4.56 1.5, 3.61 0.97, 3.56 1 M0.84 -0.21 C1.25 -0.81, 2.08 0.85, 2.87 1.3 C3.65 1.75, 5.47 1.65, 5.57 2.48 C5.67 3.3, 3.96 4.91, 3.46 6.26 C2.96 7.62, 2.81 9.37, 2.56 10.61 C2.31 11.85, 2.28 13.54, 1.95 13.71 C1.62 13.88, 1 12.43, 0.59 11.62 C0.17 10.82, -0.32 10.33, -0.55 8.89 C-0.77 7.44, -1.29 4.5, -0.75 2.96 C-0.22 1.42, 2.22 0.13, 2.67 -0.35 C3.11 -0.84, 2.11 -0.19, 1.92 0.07" stroke="#ffd4d4" stroke-width="2" fill="none"></path></g></svg>