<svg version="1.1" xmlns="http://www.w3.org/2000/svg" viewBox="0 0 154.76572570156804 123.77361112142965" width="464.29717710470413" height="371.32083336428894">
  <!-- svg-source:excalidraw -->
  
  <defs>
    <style class="style-fonts">
      @font-face {
        font-family: "Virgil";
        src: url("https://excalidraw.com/Virgil.woff2");
      }
      @font-face {
        font-family: "Cascadia";
        src: url("https://excalidraw.com/Cascadia.woff2");
      }
    </style>
    
  </defs>
  <g stroke-linecap="round"><g transform="translate(78.0516077888824 28.9183449750006) rotate(0 -0.44358736395497544 42.08853062876136)"><path d="M0.93 0.44 C-6.81 2.23, -35.93 1.56, -45.4 10.02 C-54.88 18.47, -59.97 39.01, -55.92 51.15 C-51.87 63.3, -37.21 78.52, -21.11 82.88 C-5.02 87.23, 27.92 83.96, 40.67 77.29 C53.42 70.62, 54.07 53.5, 55.41 42.87 C56.75 32.23, 57.89 20.67, 48.7 13.48 C39.51 6.3, 8.48 1.93, 0.26 -0.22 M-0.04 -0.37 C-7.98 1.62, -36.6 2.86, -46 11.14 C-55.4 19.43, -60.73 37.71, -56.46 49.35 C-52.19 60.98, -36.89 76.3, -20.38 80.94 C-3.88 85.58, 29.79 83.17, 42.57 77.2 C55.36 71.23, 55.22 55.41, 56.32 45.11 C57.42 34.81, 58.67 23.01, 49.18 15.37 C39.69 7.74, 7.39 1.97, -0.62 -0.68" stroke="#1e1e1e" stroke-width="2" fill="none"></path></g></g><mask></mask><g stroke-linecap="round"><g transform="translate(26.94645533612129 44.13246770758262) rotate(0 12.142133555943019 -16.356884990977527)"><path d="M0.67 -0.78 C0.63 -6.23, -3.56 -30.05, 0.73 -32.24 C5.02 -34.43, 22.39 -16.65, 26.43 -13.94 M-0.44 1.42 C-0.68 -4.38, -4.43 -30.98, 0.01 -33.83 C4.44 -36.68, 22 -18.74, 26.15 -15.67" stroke="#1e1e1e" stroke-width="2" fill="none"></path></g></g><mask></mask><g stroke-linecap="round"><g transform="translate(102.4693541105371 32.190535240633956) rotate(0 13.37135329789453 -4.396627192854094)"><path d="M0.42 1.02 C4.57 -1.78, 21.33 -19, 25.57 -17.57 C29.82 -16.15, 25.92 5, 25.91 9.55 M-0.81 0.51 C3.2 -2.52, 20.83 -20.73, 25.11 -19.08 C29.39 -17.43, 24.83 5.47, 24.86 10.39" stroke="#1e1e1e" stroke-width="2" fill="none"></path></g></g><mask></mask><g stroke-linecap="round" transform="translate(43.26822975093455 72.89563002039776) rotate(0 6.2688210594437805 6.052512668199217)"><path d="M4.72 0.42 C5.77 0.23, 7.52 -0.04, 8.63 0.5 C9.73 1.04, 10.82 2.28, 11.35 3.66 C11.88 5.04, 12.12 7.59, 11.81 8.76 C11.49 9.93, 10.74 9.99, 9.48 10.68 C8.21 11.38, 5.72 13.22, 4.22 12.91 C2.72 12.61, 1.15 10.07, 0.48 8.86 C-0.18 7.64, 0.15 6.74, 0.22 5.64 C0.3 4.55, -0.18 3.14, 0.94 2.28 C2.05 1.42, 5.55 0.84, 6.9 0.48 C8.25 0.12, 8.89 0.11, 9.05 0.14 M4.25 0.86 C5.18 0.18, 5.09 0.6, 6.51 0.78 C7.93 0.95, 11.93 1.14, 12.75 1.9 C13.58 2.67, 11.88 3.74, 11.44 5.37 C11.01 7.01, 10.92 10.53, 10.14 11.69 C9.36 12.85, 7.85 12.63, 6.75 12.34 C5.65 12.04, 4.45 10.94, 3.54 9.92 C2.63 8.9, 1.74 7.33, 1.31 6.24 C0.88 5.14, 0.52 4.46, 0.95 3.33 C1.39 2.21, 3.31 -0.28, 3.92 -0.5 C4.52 -0.71, 4.81 1.65, 4.57 2.04" stroke="none" stroke-width="0" fill="#1e1e1e"></path><path d="M4.25 -0.11 C5.49 -0.29, 7.17 0.33, 8.43 0.88 C9.7 1.42, 11.14 2.05, 11.85 3.18 C12.57 4.31, 13.01 6.4, 12.73 7.65 C12.45 8.9, 11.29 9.83, 10.18 10.69 C9.08 11.55, 7.56 12.92, 6.11 12.81 C4.66 12.7, 2.62 11.21, 1.48 10.03 C0.33 8.84, -0.57 6.91, -0.75 5.71 C-0.93 4.51, -0.96 3.67, 0.39 2.82 C1.74 1.98, 5.95 0.92, 7.35 0.64 C8.74 0.36, 8.87 1.25, 8.79 1.14 M4.76 2.06 C6.03 1.56, 6.96 1.06, 8.1 0.98 C9.25 0.9, 11.1 0.74, 11.63 1.59 C12.16 2.44, 11.63 4.59, 11.28 6.09 C10.92 7.59, 10.13 9.65, 9.5 10.58 C8.87 11.51, 8.86 11.49, 7.51 11.66 C6.16 11.82, 2.61 12.45, 1.39 11.55 C0.18 10.65, 0.35 7.42, 0.22 6.26 C0.1 5.11, 0.3 5.62, 0.66 4.62 C1.02 3.63, 1.92 1.12, 2.38 0.32 C2.83 -0.49, 3.25 -0.54, 3.39 -0.21" stroke="#1e1e1e" stroke-width="2" fill="none"></path></g><g stroke-linecap="round"><g transform="translate(79.0629677647812 80.43234201372863) rotate(0 -0.27456553915362747 3.307429046977205)"><path d="M-0.55 -0.91 C-1.02 -0.04, -1.79 5.17, -1.91 6.36 M1.37 1.23 C1.18 2.74, 0.89 6.53, 0.3 7.52" stroke="#1e1e1e" stroke-width="2" fill="none"></path></g></g><mask></mask><g stroke-linecap="round"><g transform="translate(78.3715775206947 88.28243990451696) rotate(0 -5.534540414720141 0.9290413786666889)"><path d="M-0.95 -0.72 C-1.8 -0.29, -3.92 1.67, -5.63 1.63 C-7.34 1.6, -10.12 -0.63, -11.19 -0.92 M0.75 1.52 C-0.24 2.16, -4.65 2.95, -6.74 2.75 C-8.84 2.54, -10.92 1.14, -11.82 0.28" stroke="#1e1e1e" stroke-width="2" fill="none"></path></g></g><mask></mask><g stroke-linecap="round"><g transform="translate(78.86920653334528 88.59553729438719) rotate(0 5.22730429052217 1.3471016210679814)"><path d="M-0.31 -0.81 C0.91 -0.14, 4.53 3.14, 6.38 3.27 C8.23 3.4, 9.97 0.52, 10.77 -0.02 M1.72 1.38 C2.89 2.29, 4.24 5.27, 5.57 4.69 C6.9 4.12, 8.73 -0.92, 9.69 -2.07" stroke="#1e1e1e" stroke-width="2" fill="none"></path></g></g><mask></mask><g stroke-linecap="round" transform="translate(101.95877232758357 91.79290901507588) rotate(0 6.761657148273571 1.8170478481298105)"><path d="M5.34 -0.65 C6.57 -0.68, 7.81 0.99, 8.93 1.11 C10.05 1.24, 11.31 -0.03, 12.07 0.13 C12.83 0.29, 13.85 1.51, 13.49 2.08 C13.13 2.66, 11.17 3.25, 9.91 3.58 C8.66 3.91, 7.21 4.21, 5.95 4.06 C4.7 3.9, 3.21 3.01, 2.38 2.66 C1.55 2.31, 1.29 2.33, 0.96 1.98 C0.64 1.63, -0.43 0.84, 0.44 0.58 C1.31 0.31, 5.28 0.64, 6.2 0.38 C7.12 0.13, 6 -1.05, 5.95 -0.94 M4.56 1.33 C6.06 1.48, 8.15 0.64, 9.7 0.42 C11.25 0.2, 13.08 -0.07, 13.87 0.03 C14.65 0.13, 14.9 0.49, 14.41 1.02 C13.92 1.56, 12.28 2.99, 10.93 3.25 C9.59 3.52, 7.7 2.4, 6.34 2.61 C4.97 2.82, 4.05 4.49, 2.76 4.51 C1.46 4.52, -1.3 3.21, -1.45 2.7 C-1.59 2.2, 0.93 1.91, 1.88 1.48 C2.82 1.05, 3.6 0.39, 4.23 0.13 C4.86 -0.14, 5.58 -0.11, 5.66 -0.1" stroke="none" stroke-width="0" fill="#ffc9c9"></path><path d="M5.58 -0.38 C6.91 -0.34, 9.1 0.71, 10.28 0.93 C11.47 1.14, 12.34 0.79, 12.71 0.91 C13.08 1.03, 13.01 1.17, 12.51 1.64 C12.01 2.1, 10.69 3.29, 9.71 3.72 C8.72 4.16, 7.88 4.26, 6.58 4.24 C5.29 4.22, 3.05 4.09, 1.96 3.6 C0.87 3.1, 0.31 1.82, 0.04 1.27 C-0.22 0.73, -0.64 0.41, 0.36 0.34 C1.36 0.27, 4.81 0.86, 6.04 0.84 C7.28 0.82, 7.7 0.32, 7.79 0.25 M3.47 0.4 C5.07 0.27, 8.64 -0.45, 9.96 -0.27 C11.28 -0.1, 10.84 1.29, 11.4 1.46 C11.96 1.64, 13.41 0.29, 13.34 0.76 C13.27 1.23, 12.32 3.86, 10.98 4.29 C9.64 4.72, 6.8 3.68, 5.3 3.34 C3.8 2.99, 2.96 2.24, 1.99 2.22 C1.02 2.2, -0.6 3.3, -0.53 3.2 C-0.46 3.1, 1.6 2.09, 2.41 1.62 C3.22 1.16, 4.12 0.84, 4.32 0.43 C4.52 0.01, 3.42 -0.6, 3.61 -0.87" stroke="#ffd4d4" stroke-width="2" fill="none"></path></g><g stroke-linecap="round"><g transform="translate(134.5244594693777 83.90663245918697) rotate(0 4.8202100484732 -2.288330572983419)"><path d="M-0.6 0.56 C1.06 0.04, 8.49 -2.69, 10.24 -3.32 M1.28 -0.2 C2.75 -1.05, 7.92 -4.31, 9.19 -5.13" stroke="#1e1e1e" stroke-width="2" fill="none"></path></g></g><mask></mask><g stroke-linecap="round"><g transform="translate(133.3165620887139 88.54050072538391) rotate(0 4.63134838672886 2.686585131829446)"><path d="M-0.2 0.59 C1.74 1.42, 8.92 4.86, 11.02 5.52 M-1.76 -0.15 C0.03 0.29, 7.48 2.79, 9.8 3.77" stroke="#1e1e1e" stroke-width="2" fill="none"></path></g></g><mask></mask><g stroke-linecap="round"><g transform="translate(22.61663031358148 81.63570114139756) rotate(0 -4.9142148895748505 -1.4429713475084789)"><path d="M-0.52 0.71 C-2.28 0.02, -8.87 -2.77, -10.76 -3.6 M1.4 0.04 C-0.42 -0.53, -8.88 -1.62, -11.23 -2.2" stroke="#1e1e1e" stroke-width="2" fill="none"></path></g></g><mask></mask><g stroke-linecap="round"><g transform="translate(24.41771211121886 87.43831897056381) rotate(0 -6.759520611449716 1.7683136650630793)"><path d="M0.9 -0.26 C-1.24 0.28, -10.89 3.24, -13.37 3.92 M-0.09 -1.44 C-2.36 -0.84, -12.51 3.98, -14.42 4.97" stroke="#1e1e1e" stroke-width="2" fill="none"></path></g></g><mask></mask><g stroke-linecap="round" transform="translate(104.48904669021795 74.72908829022205) rotate(0 6.2688210594437805 6.052512668199217)"><path d="M5.43 0.47 C6.87 0.14, 8.89 -0.07, 10.19 0.58 C11.49 1.23, 13.06 3.08, 13.23 4.36 C13.39 5.65, 11.74 7.05, 11.18 8.29 C10.62 9.53, 10.89 11.38, 9.86 11.82 C8.84 12.26, 6.41 11.16, 5.03 10.94 C3.65 10.72, 2.51 11.5, 1.59 10.5 C0.66 9.51, -0.38 6.46, -0.5 4.97 C-0.63 3.48, -0.42 2.39, 0.84 1.57 C2.1 0.75, 6.03 0.17, 7.05 0.04 C8.08 -0.09, 7.25 0.57, 7 0.79 M3.88 -0.48 C5.09 -0.81, 7.75 0.99, 8.76 1.64 C9.78 2.28, 9.25 2.42, 9.98 3.38 C10.71 4.34, 13.17 6.19, 13.15 7.37 C13.12 8.55, 10.81 9.7, 9.84 10.45 C8.87 11.21, 8.61 11.82, 7.32 11.89 C6.04 11.97, 3.4 11.5, 2.11 10.9 C0.82 10.31, 0.09 9.62, -0.41 8.32 C-0.91 7.02, -1.77 4.18, -0.87 3.1 C0.03 2.02, 4.48 2.35, 5.01 1.85 C5.53 1.36, 2.52 0.37, 2.28 0.12" stroke="none" stroke-width="0" fill="#1e1e1e"></path><path d="M4.69 0.95 C6.02 0.49, 7.35 0.66, 8.53 0.9 C9.71 1.15, 11.26 1.44, 11.76 2.42 C12.26 3.39, 11.76 5.24, 11.52 6.77 C11.28 8.29, 11.06 10.64, 10.33 11.57 C9.6 12.49, 8.42 12.44, 7.15 12.32 C5.88 12.19, 3.99 11.85, 2.71 10.83 C1.43 9.81, -0.17 7.65, -0.52 6.19 C-0.87 4.74, -0.25 3.03, 0.63 2.1 C1.51 1.17, 4.09 1.08, 4.76 0.62 C5.43 0.16, 4.6 -0.68, 4.65 -0.65 M2.2 0.41 C3.24 -0.57, 6 -1.31, 7.4 -0.8 C8.81 -0.28, 9.55 2.18, 10.63 3.49 C11.71 4.8, 13.9 5.9, 13.87 7.07 C13.85 8.23, 11.81 9.79, 10.49 10.46 C9.17 11.12, 7.11 11.18, 5.94 11.07 C4.77 10.95, 4.51 10.51, 3.47 9.77 C2.42 9.02, 0.31 7.67, -0.31 6.6 C-0.94 5.53, -1.01 4.27, -0.29 3.35 C0.44 2.42, 3.6 1.68, 4.03 1.07 C4.47 0.45, 2.18 -0.16, 2.34 -0.34" stroke="#1e1e1e" stroke-width="2" fill="none"></path></g><g stroke-linecap="round" transform="translate(44.47423081330635 89.91298391733366) rotate(0 6.761657148273571 1.8170478481298105)"><path d="M8.11 -0.41 C9.66 -0.45, 11.93 0.29, 12.7 0.62 C13.46 0.94, 12.64 1.12, 12.68 1.56 C12.72 2, 13.63 3.1, 12.92 3.27 C12.22 3.44, 9.94 2.42, 8.45 2.59 C6.96 2.76, 5.4 4.41, 3.99 4.28 C2.58 4.15, 0.76 2.36, 0 1.8 C-0.76 1.25, -1.23 1.2, -0.57 0.95 C0.1 0.71, 2.51 0.37, 3.98 0.32 C5.45 0.27, 7.62 0.59, 8.26 0.68 C8.9 0.77, 8.01 0.89, 7.82 0.85 M7.43 1.41 C8.53 1.67, 8.44 1.01, 9.54 1.14 C10.64 1.27, 13.65 1.91, 14.04 2.18 C14.43 2.45, 12.59 2.57, 11.88 2.76 C11.17 2.95, 11.08 3.2, 9.78 3.32 C8.48 3.44, 5.64 3.44, 4.07 3.47 C2.5 3.51, 1.28 3.91, 0.37 3.53 C-0.55 3.15, -1.95 1.51, -1.41 1.21 C-0.86 0.92, 2.54 2.06, 3.64 1.77 C4.73 1.48, 4.74 -0.11, 5.17 -0.53 C5.61 -0.94, 5.89 -0.65, 6.24 -0.71" stroke="none" stroke-width="0" fill="#ffc9c9"></path><path d="M8.16 0.55 C9.45 0.38, 11.34 -0.14, 12.09 0.01 C12.83 0.16, 12.64 0.81, 12.61 1.45 C12.58 2.09, 12.56 3.45, 11.91 3.85 C11.26 4.25, 10.07 3.88, 8.71 3.83 C7.35 3.78, 5.25 3.94, 3.75 3.56 C2.26 3.18, 0.33 2.1, -0.26 1.56 C-0.85 1.02, -0.45 0.45, 0.22 0.29 C0.89 0.14, 2.44 0.8, 3.76 0.61 C5.08 0.42, 7.27 -0.77, 8.13 -0.86 C9 -0.95, 9.12 -0.1, 8.98 0.1 M8.86 -0.83 C10.28 -0.48, 11.03 1.43, 12.01 2.05 C13 2.68, 14.98 2.66, 14.77 2.91 C14.55 3.16, 12.23 3.59, 10.7 3.55 C9.18 3.5, 6.9 2.94, 5.61 2.65 C4.33 2.36, 3.99 2.11, 2.97 1.81 C1.95 1.5, -0.03 1.05, -0.51 0.83 C-0.98 0.62, -0.79 0.55, 0.14 0.49 C1.08 0.43, 3.8 0.73, 5.11 0.48 C6.42 0.22, 7.11 -0.78, 7.99 -1.05 C8.87 -1.32, 10.49 -1.43, 10.39 -1.15" stroke="#ffd4d4" stroke-width="2" fill="none"></path></g><g stroke-linecap="round" transform="translate(33.023707743876 20.243197363288548) rotate(345.86228717078205 2.2819223386682097 6.593339701788963)"><path d="M3.72 0.18 C3.96 0.43, 2.98 1.22, 3.26 2.39 C3.53 3.56, 5.21 5.94, 5.36 7.21 C5.52 8.49, 4.6 8.91, 4.2 10.04 C3.79 11.17, 3.55 13.75, 2.94 13.98 C2.33 14.22, 1.16 12.41, 0.54 11.45 C-0.08 10.5, -0.85 9.5, -0.77 8.27 C-0.69 7.05, 0.66 5.27, 1.02 4.12 C1.38 2.97, 1.16 1.89, 1.39 1.39 C1.62 0.9, 2.21 1.21, 2.39 1.16 C2.57 1.11, 2.4 1.11, 2.49 1.1 M0.05 1.11 C0.46 0.47, 3.16 0.74, 3.73 1.13 C4.29 1.52, 3.24 2.34, 3.47 3.42 C3.7 4.5, 5.16 6.24, 5.12 7.61 C5.08 8.98, 3.81 10.57, 3.23 11.63 C2.66 12.69, 2.31 14.02, 1.66 13.96 C1 13.9, -0.64 12.1, -0.7 11.28 C-0.75 10.45, 1.42 10.42, 1.34 8.99 C1.27 7.56, -1.11 4.27, -1.15 2.71 C-1.18 1.15, 0.57 0.18, 1.13 -0.38 C1.69 -0.93, 2.28 -0.85, 2.2 -0.62" stroke="none" stroke-width="0" fill="#ffc9c9"></path><path d="M3 -0.37 C3.29 -0.2, 3.03 1.2, 3.3 2.64 C3.57 4.09, 4.39 6.79, 4.64 8.29 C4.89 9.8, 5.07 10.83, 4.78 11.68 C4.5 12.52, 3.66 13.49, 2.91 13.37 C2.16 13.26, 0.81 12.02, 0.29 10.99 C-0.23 9.95, -0.23 8.33, -0.2 7.15 C-0.17 5.98, 0.25 5.19, 0.48 3.93 C0.7 2.67, 0.59 0.09, 1.14 -0.42 C1.68 -0.92, 3.47 0.49, 3.75 0.89 C4.04 1.29, 2.79 1.99, 2.84 1.96 M1.47 1.19 C2.18 1.26, 4.48 1.28, 4.91 1.94 C5.34 2.6, 4.34 4.09, 4.05 5.16 C3.76 6.22, 3.22 7.33, 3.18 8.33 C3.14 9.32, 4.15 10.57, 3.8 11.13 C3.46 11.68, 1.79 11.86, 1.1 11.67 C0.42 11.49, -0.25 10.88, -0.32 10.01 C-0.39 9.14, 0.72 7.99, 0.7 6.46 C0.69 4.93, -0.86 2.12, -0.4 0.83 C0.06 -0.45, 3.28 -1.2, 3.46 -1.26 C3.63 -1.32, 0.93 0.33, 0.65 0.49" stroke="#ffd4d4" stroke-width="2" fill="none"></path></g><g stroke-linecap="round" transform="translate(117.05118793175643 23.196865107534173) rotate(18.443417074308265 2.2819223386682097 6.593339701788963)"><path d="M0.97 -0.03 C1.39 -0.34, 3.54 0.59, 4.15 1.11 C4.76 1.63, 4.51 1.71, 4.62 3.11 C4.73 4.5, 5.09 8.07, 4.81 9.46 C4.54 10.86, 3.6 10.91, 2.98 11.47 C2.36 12.02, 1.35 12.88, 1.09 12.81 C0.83 12.74, 1.59 11.94, 1.44 11.06 C1.29 10.17, 0.44 8.78, 0.17 7.49 C-0.11 6.2, -0.42 4.52, -0.2 3.3 C0.01 2.09, 0.96 0.69, 1.45 0.21 C1.95 -0.27, 2.72 0.26, 2.75 0.42 M3.95 1.42 C4.49 1.84, 3.4 2.92, 3.58 4.07 C3.76 5.22, 5.15 6.98, 5.06 8.31 C4.97 9.64, 3.64 11.12, 3.03 12.06 C2.42 12.99, 2.06 14.13, 1.41 13.92 C0.75 13.7, -0.86 11.72, -0.88 10.78 C-0.89 9.84, 1.34 9.72, 1.32 8.27 C1.29 6.83, -1.02 3.58, -1.01 2.11 C-1 0.63, 0.54 -0.16, 1.37 -0.58 C2.2 -1, 3.81 -0.64, 3.97 -0.4 C4.14 -0.17, 2.42 0.31, 2.33 0.82" stroke="none" stroke-width="0" fill="#ffc9c9"></path><path d="M1.95 -0.2 C2.42 0.31, 3.64 2.35, 4.24 3.61 C4.83 4.86, 5.49 6.04, 5.52 7.34 C5.55 8.64, 5.04 10.59, 4.44 11.42 C3.83 12.25, 2.51 12.37, 1.89 12.33 C1.27 12.28, 1 11.76, 0.73 11.16 C0.47 10.56, 0.43 10.1, 0.3 8.73 C0.16 7.36, -0.29 4.28, -0.07 2.93 C0.15 1.58, 1.24 0.99, 1.62 0.62 C2.01 0.25, 1.83 0.7, 2.27 0.69 C2.7 0.67, 4.14 0.47, 4.25 0.54 M2.92 1.11 C3.38 0.48, 2.68 0.59, 2.71 0.83 C2.74 1.07, 2.73 1.58, 3.12 2.53 C3.5 3.49, 5.05 5.25, 5.04 6.57 C5.04 7.9, 3.67 9.46, 3.07 10.49 C2.47 11.52, 1.72 12.53, 1.45 12.76 C1.18 12.98, 1.86 12.91, 1.45 11.84 C1.03 10.77, -1.08 8.01, -1.03 6.34 C-0.98 4.66, 1.55 2.74, 1.75 1.79 C1.95 0.84, 0.25 1.03, 0.17 0.64 C0.09 0.25, 0.95 -0.56, 1.26 -0.54" stroke="#ffd4d4" stroke-width="2" fill="none"></path></g></svg>