<svg version="1.1" xmlns="http://www.w3.org/2000/svg" viewBox="0 0 156.53788372959752 124.6351652707131" width="469.6136511887926" height="373.9054958121393">
  <!-- svg-source:excalidraw -->
  
  <defs>
    <style class="style-fonts">
      @font-face {
        font-family: "Virgil";
        src: url("https://excalidraw.com/Virgil.woff2");
      }
      @font-face {
        font-family: "Cascadia";
        src: url("https://excalidraw.com/Cascadia.woff2");
      }
    </style>
    
  </defs>
  <g stroke-linecap="round"><g transform="translate(78.39371266114267 29.856503744297353) rotate(0 -0.026923986151359713 42.4182573976425)"><path d="M0.4 0.72 C-7.35 2.56, -36.11 2.1, -45.41 10.4 C-54.71 18.69, -59.37 38.45, -55.4 50.48 C-51.43 62.52, -37.8 78.07, -21.59 82.6 C-5.37 87.14, 29.03 84.14, 41.89 77.69 C54.75 71.25, 54.52 54.29, 55.56 43.91 C56.61 33.54, 57.34 22.56, 48.18 15.42 C39.02 8.29, 8.58 3.59, 0.6 1.12 M-0.86 0.06 C-8.79 2.11, -36.88 3.68, -46.01 11.72 C-55.15 19.76, -59.82 36.86, -55.67 48.33 C-51.52 59.79, -37.18 75.6, -21.11 80.52 C-5.03 85.44, 27.82 84.07, 40.77 77.82 C53.71 71.58, 55.29 53.57, 56.56 43.05 C57.83 32.53, 57.83 21.62, 48.38 14.67 C38.94 7.73, 8.16 3.88, -0.1 1.37" stroke="#ffffff" stroke-width="2" fill="none"></path></g></g><mask></mask><g stroke-linecap="round"><g transform="translate(27.375813830041807 45.07062647687937) rotate(0 12.227905568173355 -17.737909598698437)"><path d="M0.66 -0.41 C0.8 -6.01, -2.97 -30.61, 1.25 -32.91 C5.47 -35.21, 21.8 -17.1, 25.96 -14.22 M-0.46 -1.66 C-0.42 -7.71, -3.52 -32.44, 0.8 -34.85 C5.11 -37.25, 21.1 -19.43, 25.43 -16.09" stroke="#ffffff" stroke-width="2" fill="none"></path></g></g><mask></mask><g stroke-linecap="round"><g transform="translate(102.81145898279738 33.041459556464986) rotate(0 13.847506003120088 -4.317806764256181)"><path d="M0.94 0.35 C5.02 -2.56, 20.74 -19.45, 25.1 -17.85 C29.46 -16.25, 27.03 5.18, 27.13 9.96 M-0.02 -0.51 C3.87 -3.71, 19.93 -21.42, 24.39 -19.5 C28.84 -17.58, 26.53 5.75, 26.71 11.01" stroke="#ffffff" stroke-width="2" fill="none"></path></g></g><mask></mask><g stroke-linecap="round" transform="translate(43.69758824485507 73.74927621985705) rotate(0 6.2688210594437805 6.052512668199217)"><path d="M8.27 -0.46 C9.75 0, 11.54 1.93, 12.41 3.17 C13.27 4.4, 13.65 5.73, 13.44 6.94 C13.23 8.15, 12.35 9.7, 11.16 10.44 C9.97 11.17, 7.86 11.23, 6.29 11.34 C4.72 11.45, 2.73 11.8, 1.75 11.1 C0.77 10.41, 0.73 8.43, 0.43 7.17 C0.13 5.92, -0.44 4.77, -0.03 3.57 C0.37 2.37, 1.23 0.52, 2.85 -0.02 C4.46 -0.57, 8.42 -0.05, 9.65 0.29 C10.88 0.64, 10.22 1.78, 10.23 2.04 M3.78 1.57 C5.09 0.99, 8.12 0.04, 9.19 0.03 C10.27 0.02, 9.65 0.47, 10.25 1.53 C10.85 2.59, 12.8 4.83, 12.79 6.39 C12.79 7.94, 11.11 9.67, 10.24 10.86 C9.36 12.06, 9.08 13.51, 7.54 13.57 C6.01 13.63, 2.07 12.24, 1.01 11.22 C-0.05 10.21, 1.32 8.58, 1.18 7.46 C1.04 6.35, -0.3 5.94, 0.18 4.53 C0.66 3.11, 3.6 -0.26, 4.06 -1.02 C4.51 -1.79, 3.05 -0.42, 2.91 -0.05" stroke="#ffffff" stroke-width="2" fill="none"></path></g><g stroke-linecap="round"><g transform="translate(79.49232625870172 81.37050078302539) rotate(0 -0.5465526858051817 2.798791099956155)"><path d="M0.67 -0.5 C0.3 0.58, -1.35 5.96, -1.76 7.41 M-0.44 -1.81 C-0.47 -1.18, 0.35 4.08, 0.53 5.46" stroke="#ffffff" stroke-width="2" fill="none"></path></g></g><mask></mask><g stroke-linecap="round"><g transform="translate(78.80093601461522 89.22059867381373) rotate(0 -5.158653371039236 1.119717137622672)"><path d="M-0.8 0.33 C-1.94 1.01, -4.48 3.56, -6.15 3.57 C-7.83 3.59, -10.02 1.03, -10.85 0.42 M0.98 -0.54 C0.17 -0.12, -1.83 2.18, -3.88 2.05 C-5.93 1.91, -10.16 -0.61, -11.3 -1.33" stroke="#ffffff" stroke-width="2" fill="none"></path></g></g><mask></mask><g stroke-linecap="round"><g transform="translate(79.2985650272658 89.53369606368395) rotate(0 5.423890427787228 1.3351312316061126)"><path d="M-0.84 1.13 C0.42 1.84, 4.63 4.79, 6.72 4.61 C8.81 4.44, 10.9 1.01, 11.68 0.06 M0.93 0.68 C2.14 1.06, 4.4 3.52, 6.09 3.08 C7.78 2.64, 10.15 -1.4, 11.08 -1.95" stroke="#ffffff" stroke-width="2" fill="none"></path></g></g><mask></mask><g stroke-linecap="round" transform="translate(102.38813082150409 92.73106778437264) rotate(0 6.761657148273571 1.8170478481298105)"><path d="M7.22 -0.74 C8.37 -0.69, 9.82 0.39, 10.91 0.74 C12 1.09, 13.67 1, 13.76 1.39 C13.85 1.78, 12.53 2.81, 11.46 3.09 C10.39 3.36, 8.63 3.07, 7.36 3.04 C6.09 3.01, 5.05 2.95, 3.85 2.89 C2.65 2.83, 0.63 2.89, 0.14 2.7 C-0.34 2.52, 0.57 2.18, 0.94 1.77 C1.32 1.37, 0.95 0.58, 2.4 0.28 C3.84 -0.01, 8.04 -0.14, 9.61 -0.01 C11.19 0.12, 11.95 1.14, 11.85 1.04 M3.56 0.43 C4.89 0.59, 8.25 1.39, 9.46 1.51 C10.68 1.64, 10.01 1.09, 10.86 1.2 C11.72 1.31, 14.54 1.63, 14.58 2.18 C14.62 2.73, 12.26 4.47, 11.09 4.48 C9.93 4.48, 9.14 2.48, 7.61 2.2 C6.07 1.92, 3.3 2.72, 1.9 2.78 C0.51 2.84, -0.54 3.06, -0.77 2.56 C-0.99 2.06, -0.35 0.23, 0.57 -0.24 C1.49 -0.72, 4.47 -0.47, 4.78 -0.32 C5.08 -0.16, 2.76 0.44, 2.39 0.68" stroke="#ffffff" stroke-width="2" fill="none"></path></g><g stroke-linecap="round"><g transform="translate(134.8665643416398 84.757556775018) rotate(0 4.748450315604714 -1.8898621771486326)"><path d="M0.31 0.64 C1.96 -0.29, 8.94 -3.49, 10.48 -4.42 M-0.98 -0.08 C0.46 -0.33, 7.39 -2.47, 9.55 -3.14" stroke="#ffffff" stroke-width="2" fill="none"></path></g></g><mask></mask><g stroke-linecap="round"><g transform="translate(133.658666960976 89.47865949468067) rotate(0 5.739942782666276 1.4966714259719822)"><path d="M0.04 -0.51 C1.76 0.02, 8.69 2.87, 10.64 3.8 M-1.4 -1.82 C0.67 -1.23, 10.8 3.41, 12.88 4.81" stroke="#ffffff" stroke-width="2" fill="none"></path></g></g><mask></mask><g stroke-linecap="round"><g transform="translate(22.95873518584358 82.48934734085682) rotate(0 -5.751762295029948 -1.9682111337534067)"><path d="M-0.9 -1.01 C-2.82 -1.43, -9.61 -2.53, -11.47 -3.05 M0.82 1.08 C-1.24 0.32, -10.01 -4.3, -12.33 -5.02" stroke="#ffffff" stroke-width="2" fill="none"></path></g></g><mask></mask><g stroke-linecap="round"><g transform="translate(24.75981698347914 88.29196517002308) rotate(0 -7.289391480640916 2.2761812216685655)"><path d="M0.18 0.29 C-1.93 1.13, -11.4 3.45, -13.59 4.03 M-1.18 -0.6 C-3.41 0.46, -12.68 4.29, -14.76 5.15" stroke="#ffffff" stroke-width="2" fill="none"></path></g></g><mask></mask><g stroke-linecap="round" transform="translate(104.88404098191586 75.58273448968134) rotate(0 6.2688210594437805 6.052512668199213)"><path d="M7 -0.52 C8.36 -0.37, 9.29 0.86, 10.31 1.94 C11.33 3.03, 13.08 4.74, 13.14 6 C13.2 7.26, 11.55 8.55, 10.69 9.5 C9.84 10.45, 9.06 11.29, 8.02 11.72 C6.97 12.16, 5.7 12.8, 4.43 12.13 C3.16 11.46, 1.26 8.94, 0.4 7.7 C-0.46 6.47, -1.04 5.85, -0.74 4.74 C-0.43 3.62, 0.89 1.67, 2.23 1.02 C3.58 0.37, 6.29 1.12, 7.34 0.85 C8.39 0.58, 8.52 -0.7, 8.53 -0.61 M6.85 -1.4 C8.03 -1.7, 8.77 0.02, 9.54 1.22 C10.3 2.41, 11.14 4.59, 11.45 5.75 C11.77 6.91, 11.85 7.24, 11.43 8.18 C11.02 9.12, 10.49 10.75, 8.96 11.39 C7.43 12.02, 3.88 12.32, 2.25 11.98 C0.62 11.63, -0.4 10.75, -0.83 9.32 C-1.27 7.9, -1.13 5.02, -0.39 3.44 C0.36 1.86, 2.47 0.32, 3.62 -0.15 C4.76 -0.62, 5.88 0.35, 6.5 0.64 C7.12 0.93, 7.28 1.83, 7.31 1.59" stroke="#ffffff" stroke-width="2" fill="none"></path></g><g stroke-linecap="round" transform="translate(44.903589307226866 90.85114268663042) rotate(0 6.761657148273571 1.8170478481298105)"><path d="M4.56 0.26 C5.93 0.31, 8.91 0.54, 10.17 0.66 C11.43 0.79, 11.58 0.79, 12.12 1.03 C12.66 1.26, 13.52 1.62, 13.41 2.1 C13.31 2.57, 12.72 3.77, 11.5 3.87 C10.27 3.97, 7.79 2.79, 6.06 2.7 C4.33 2.61, 2.17 3.47, 1.1 3.34 C0.03 3.21, -0.42 2.2, -0.38 1.91 C-0.34 1.62, 0.23 2.04, 1.33 1.58 C2.43 1.13, 5.47 -0.69, 6.23 -0.82 C7 -0.96, 6.04 0.67, 5.93 0.77 M8.67 -0.37 C9.75 0.06, 11.17 1.09, 11.93 1.32 C12.7 1.55, 13.33 0.75, 13.26 1 C13.19 1.25, 12.97 2.32, 11.52 2.83 C10.07 3.34, 6.42 3.91, 4.56 4.07 C2.71 4.22, 1.25 4.31, 0.39 3.78 C-0.47 3.25, -0.91 1.59, -0.59 0.88 C-0.27 0.16, 1.38 -0.48, 2.3 -0.52 C3.22 -0.55, 3.59 0.3, 4.93 0.66 C6.27 1.02, 9.54 1.96, 10.34 1.64 C11.14 1.33, 9.7 -1.19, 9.73 -1.22" stroke="#ffffff" stroke-width="2" fill="none"></path></g><g stroke-linecap="round" transform="translate(33.45306623779652 21.181356132585293) rotate(345.86228717078205 2.2819223386682097 6.593339701788963)"><path d="M2.3 0.74 C2.68 0.27, 2.15 0.12, 2.5 0.6 C2.86 1.07, 3.98 2.22, 4.44 3.6 C4.9 4.97, 5.45 7.59, 5.27 8.83 C5.1 10.07, 4.09 10.28, 3.4 11.04 C2.72 11.8, 1.68 13.36, 1.16 13.39 C0.63 13.42, 0.43 12.1, 0.26 11.2 C0.1 10.3, -0.02 9.54, 0.17 8 C0.35 6.47, 1.03 3.19, 1.38 1.98 C1.73 0.78, 2.1 1.15, 2.28 0.78 C2.45 0.4, 2.32 -0.27, 2.43 -0.28 M0.18 0.94 C0.78 0.12, 1.99 -1.38, 2.82 -1.19 C3.66 -0.99, 5.12 0.67, 5.19 2.1 C5.25 3.52, 3.64 5.75, 3.2 7.37 C2.76 8.98, 2.74 11.01, 2.54 11.8 C2.33 12.59, 2.06 12.25, 1.96 12.1 C1.87 11.95, 2.34 11.39, 1.98 10.89 C1.61 10.4, -0.01 10.06, -0.23 9.15 C-0.44 8.25, 0.44 7.12, 0.68 5.47 C0.91 3.83, 0.93 -0.14, 1.19 -0.73 C1.46 -1.31, 2.35 1.42, 2.27 1.96" stroke="#ffffff" stroke-width="2" fill="none"></path></g><g stroke-linecap="round" transform="translate(117.48054642567695 24.13502387683092) rotate(18.443417074308265 2.2819223386682097 6.593339701788963)"><path d="M1.77 0.03 C2.15 -0.04, 3.41 0.7, 4.01 1.8 C4.6 2.9, 5.35 5.37, 5.34 6.65 C5.33 7.93, 4.51 8.39, 3.94 9.49 C3.37 10.58, 2.42 12.7, 1.91 13.2 C1.4 13.69, 1.14 12.97, 0.89 12.46 C0.63 11.95, 0.33 11.54, 0.36 10.12 C0.39 8.71, 0.9 5.35, 1.06 3.97 C1.22 2.6, 1 2.59, 1.31 1.87 C1.61 1.16, 2.45 -0.05, 2.86 -0.3 C3.28 -0.56, 4 0.32, 3.81 0.36 M1.89 -1.23 C2.7 -1.69, 4.29 -0.67, 4.48 0.32 C4.67 1.31, 3.3 3.17, 3.06 4.7 C2.81 6.23, 3.05 8.4, 3.02 9.49 C2.99 10.57, 2.88 10.83, 2.85 11.22 C2.82 11.62, 3.29 11.82, 2.85 11.86 C2.41 11.91, 0.62 12.14, 0.23 11.52 C-0.16 10.89, 0.46 9.88, 0.5 8.13 C0.54 6.37, 0.07 2.12, 0.47 0.97 C0.86 -0.18, 2.74 1.15, 2.86 1.23 C2.98 1.3, 1.18 1.48, 1.2 1.43" stroke="#ffffff" stroke-width="2" fill="none"></path></g></svg>