<svg version="1.1" xmlns="http://www.w3.org/2000/svg" viewBox="0 0 1162.4481663123843 2144.967881645758" width="1162.4481663123843" height="2144.967881645758">
  <!-- svg-source:excalidraw -->
  
  <defs>
    <style class="style-fonts">
      @font-face {
        font-family: "Virgil";
        src: url("https://excalidraw.com/Virgil.woff2");
      }
      @font-face {
        font-family: "Cascadia";
        src: url("https://excalidraw.com/Cascadia.woff2");
      }
    </style>
    <clipPath id="pK5R5-FAKFLrx0CmEYPuX">
            <rect transform="translate(0 0) rotate(0 581.2240831561921 1072.483940822879)" width="1162.448166312384" height="2144.967881645758">
          </rect>
        </clipPath>
  </defs>
  <rect x="0" y="0" width="1162.4481663123843" height="2144.967881645758" fill="#ffffff"></rect><g clip-path="url(#pK5R5-FAKFLrx0CmEYPuX)"><g stroke-linecap="round" transform="translate(243.9352939494711 786.8800536768665) rotate(0 22.084879712901966 20.327023382162462)"><path d="M16.24 0.57 C20.45 -0.73, 27.09 0.16, 31.35 1.92 C35.61 3.69, 39.87 7.06, 41.8 11.14 C43.72 15.22, 43.95 22.15, 42.89 26.38 C41.84 30.61, 39.24 34.07, 35.44 36.52 C31.64 38.97, 25.08 41.21, 20.1 41.08 C15.12 40.95, 9 38.91, 5.56 35.72 C2.12 32.52, -0.19 26.42, -0.56 21.91 C-0.94 17.4, -0.29 12.32, 3.3 8.65 C6.89 4.98, 16.96 1.13, 20.97 -0.09 C24.99 -1.31, 27.39 0.83, 27.39 1.33 M10.87 0.76 C15 -1.62, 23.24 -2.04, 27.9 -0.71 C32.56 0.62, 36.28 4.94, 38.83 8.73 C41.38 12.52, 43.56 17.56, 43.2 22.03 C42.84 26.51, 39.65 32.56, 36.66 35.56 C33.67 38.57, 29.61 39.56, 25.25 40.04 C20.88 40.53, 14.72 40.72, 10.47 38.47 C6.22 36.22, 1.23 30.79, -0.23 26.55 C-1.7 22.31, -0.58 17.06, 1.68 13.04 C3.93 9.02, 11.4 4.13, 13.3 2.42 C15.21 0.72, 13.3 2.53, 13.11 2.8" stroke="#000000" stroke-width="2" fill="none"></path></g></g><g clip-path="url(#pK5R5-FAKFLrx0CmEYPuX)"><g stroke-linecap="round"><g transform="translate(268.3469853008146 827.3079359377062) rotate(0 0.6342076763935438 25.136350445180472)"><path d="M-0.64 0.38 C-0.38 8.42, 1.47 41.08, 1.91 49.23 M1.23 -0.46 C1.27 8.29, 0.84 42.22, 0.82 50.74" stroke="#000000" stroke-width="2" fill="none"></path></g></g><mask></mask></g><g clip-path="url(#pK5R5-FAKFLrx0CmEYPuX)"><g stroke-linecap="round"><g transform="translate(270.3492813885405 878.571789855023) rotate(0 -9.462657083262911 15.235081148784374)"><path d="M-0.26 -0.06 C-3.44 4.89, -16.49 25.1, -19.69 30.06 M1.8 -1.13 C-1.49 3.99, -17.06 26.27, -20.73 31.6" stroke="#000000" stroke-width="2" fill="none"></path></g></g><mask></mask></g><g clip-path="url(#pK5R5-FAKFLrx0CmEYPuX)"><g stroke-linecap="round"><g transform="translate(272.3767852515157 877.7100587622019) rotate(0 8.559136740366739 12.870779177465813)"><path d="M-0.18 0 C3.01 4.25, 15.79 21.23, 18.85 25.41 M-1.73 -1.04 C1.33 3.39, 14.8 22.26, 17.93 26.78" stroke="#000000" stroke-width="2" fill="none"></path></g></g><mask></mask></g><g clip-path="url(#pK5R5-FAKFLrx0CmEYPuX)"><g stroke-linecap="round"><g transform="translate(287.4603017530608 836.9961781436608) rotate(0 -9.759289725912822 8.597838700981779)"><path d="M0.06 -0.32 C-3.17 2.6, -16.59 14.33, -19.58 17.54 M-1.36 -1.54 C-4.18 1.53, -14.41 15.65, -17.2 18.73" stroke="#000000" stroke-width="2" fill="none"></path></g></g><mask></mask></g><g clip-path="url(#pK5R5-FAKFLrx0CmEYPuX)"><g stroke-linecap="round"><g transform="translate(265.7220016461042 855.3197954040833) rotate(0 -12.713726790521832 -7.386372031731778)"><path d="M-0.63 -0.65 C-5.02 -3.04, -21.74 -12.17, -26.27 -14.66 M1.24 1.62 C-3.22 -1.08, -21.65 -13.73, -26.67 -16.39" stroke="#000000" stroke-width="2" fill="none"></path></g></g><mask></mask></g><g clip-path="url(#pK5R5-FAKFLrx0CmEYPuX)"><g stroke-linecap="round"><g transform="translate(295.70169870012523 790.736099311687) rotate(0 -32.06338654798583 7.133939228656635)"><path d="M1.04 0.74 C-9.51 2.98, -53.31 10.9, -63.96 12.73 M0.13 0.09 C-10.57 2.57, -54.6 12.12, -65.17 14.18" stroke="#000000" stroke-width="2" fill="none"></path></g></g><mask></mask></g><g clip-path="url(#pK5R5-FAKFLrx0CmEYPuX)"><g stroke-linecap="round" transform="translate(242.27292593684615 749.4892345461088) rotate(349.25633766305447 16.35750011333039 22.990451630855883)"><path d="M1.5 -0.49 L33.99 -1.78 L33.83 44.62 L1.4 44.19" stroke="none" stroke-width="0" fill="#fff"></path><path d="M-0.29 1 C10.72 2.06, 24.01 -0.4, 31.42 -0.16 M0.3 -0.95 C7.57 -0.89, 12.87 0.43, 31.74 -0.89 M33.25 -1.23 C32.79 13.65, 33.87 31.97, 32.06 46.88 M32.58 0.61 C33.02 17.87, 32.76 35.52, 31.94 46.09 M32.43 45.13 C23.07 45.48, 16.37 47.68, -1.88 47.51 M33.11 45.17 C25.06 46.79, 17.72 46.38, 0.21 46.3 M-0.02 45.39 C0.53 28.86, -1.41 14.91, 0.03 0.69 M0.33 45.09 C-0.04 29.72, 0.35 14.27, 0.43 0.58" stroke="#000000" stroke-width="2" fill="none"></path></g></g><g clip-path="url(#pK5R5-FAKFLrx0CmEYPuX)"><g stroke-linecap="round"><g transform="translate(266.3052960312025 816.0661271837804) rotate(0 -0.7459884300956219 4.431539791546356)" fill-rule="evenodd"><path d="M-1.81 1.55 L-18.93 5.7 L-26.49 3.69 L-25.33 10.9 L-20.86 12.39 L1.45 6.98 L17.26 9.21 L21.21 3.48 L24.98 -2.18 L14.69 3.53 L-0.85 -1.19" stroke="none" stroke-width="0" fill="#000" fill-rule="evenodd"></path><path d="M0.6 -1.16 C-1.8 -0.26, -11 4.29, -14.9 5.26 C-18.8 6.24, -20.7 5.42, -22.8 4.69 C-24.9 3.95, -27.3 -0.03, -27.49 0.87 C-27.68 1.77, -25.98 8.64, -23.96 10.08 C-21.95 11.52, -19.61 10.27, -15.41 9.5 C-11.22 8.72, -4.01 5.48, 1.21 5.44 C6.42 5.39, 11.97 10.61, 15.87 9.23 C19.78 7.84, 24.47 -1.79, 24.64 -2.87 C24.82 -3.94, 21.17 2.25, 16.92 2.78 C12.67 3.31, 2.08 0.74, -0.87 0.32 M-0.55 0.84 C-2.96 1.9, -11.38 5.59, -15.25 6.39 C-19.11 7.18, -21.73 6.43, -23.73 5.59 C-25.74 4.76, -27 0.57, -27.29 1.38 C-27.59 2.18, -27.13 8.74, -25.49 10.43 C-23.86 12.12, -21.51 12.06, -17.47 11.52 C-13.43 10.97, -7.2 7.57, -1.26 7.18 C4.68 6.78, 13.63 10.53, 18.18 9.14 C22.72 7.75, 26.06 -0.53, 26.01 -1.15 C25.97 -1.77, 22.42 5.01, 17.92 5.44 C13.42 5.88, 1.8 2.38, -1 1.47" stroke="#000000" stroke-width="1" fill="none"></path></g></g><mask></mask></g><g clip-path="url(#pK5R5-FAKFLrx0CmEYPuX)"><g stroke-linecap="round" transform="translate(268.84301166962905 799.3995975854091) rotate(0 7.2351621642319515 5.761438751069541)"><path d="M5.32 -0.04 C6.87 -0.21, 9.73 0.38, 11.04 1.2 C12.35 2.02, 12.85 3.85, 13.18 4.89 C13.51 5.93, 13.38 6.6, 13.01 7.44 C12.65 8.27, 12.36 9.17, 10.99 9.89 C9.62 10.61, 6.52 11.97, 4.8 11.75 C3.07 11.53, 1.39 9.7, 0.64 8.56 C-0.11 7.42, 0.03 6.17, 0.27 4.91 C0.52 3.64, 0.89 1.7, 2.13 0.97 C3.37 0.24, 6.84 0.59, 7.69 0.53 C8.54 0.46, 7.2 0.68, 7.22 0.57 M9.52 0.43 C11.12 0.48, 12.77 1.53, 13.4 2.45 C14.03 3.38, 13.52 4.85, 13.31 5.98 C13.09 7.11, 13.15 8.34, 12.11 9.22 C11.07 10.1, 8.61 11.13, 7.07 11.23 C5.54 11.33, 4.05 10.35, 2.92 9.83 C1.78 9.31, 0.42 9.35, 0.26 8.1 C0.1 6.85, 1.19 3.77, 1.95 2.33 C2.71 0.89, 3.97 -0.37, 4.83 -0.54 C5.68 -0.72, 6.37 1.35, 7.08 1.27 C7.8 1.2, 9.07 -1.04, 9.13 -1" stroke="#000000" stroke-width="1" fill="none"></path></g></g><g clip-path="url(#pK5R5-FAKFLrx0CmEYPuX)"><g stroke-linecap="round" transform="translate(275.9920763573691 803.944232673844) rotate(0 0.3774867216120583 0.4956896344401329)"><path d="M0.29 0.3 C0.37 0.45, -0.27 1.05, -0.34 0.98 C-0.42 0.9, -0.41 0.07, -0.17 -0.13 C0.08 -0.33, 1.15 -0.49, 1.12 -0.25 C1.08 -0.01, -0.08 1.23, -0.37 1.32 C-0.65 1.4, -0.72 0.44, -0.6 0.25 C-0.49 0.05, 0.19 0.27, 0.33 0.15 C0.47 0.03, 0.15 -0.56, 0.24 -0.48 C0.34 -0.39, 0.93 0.49, 0.9 0.65 C0.87 0.8, 0 0.68, 0.06 0.45 C0.12 0.22, 1.13 -0.64, 1.25 -0.73 M1.07 0.38 C0.79 0.37, -0.31 0.41, -0.47 0.39 C-0.62 0.38, 0.17 0.23, 0.13 0.27 C0.08 0.32, -0.66 0.68, -0.72 0.65 C-0.78 0.62, -0.36 -0.01, -0.25 0.1 C-0.13 0.21, -0.3 1.46, -0.01 1.31 C0.28 1.15, 1.3 -0.42, 1.5 -0.81 C1.7 -1.2, 1.65 -1.36, 1.19 -1.02 C0.74 -0.68, -1.22 1.24, -1.24 1.21 C-1.26 1.19, 0.96 -1.13, 1.09 -1.19 C1.21 -1.25, -0.15 0.62, -0.49 0.87" stroke="#000000" stroke-width="1" fill="none"></path></g></g><g clip-path="url(#pK5R5-FAKFLrx0CmEYPuX)"><g stroke-linecap="round" transform="translate(256.12254801068684 805.6562684112564) rotate(0 0.38129971880016456 0.6482095219601742)"><path d="M-0.59 0.87 C-0.65 0.72, -0.59 -0.16, -0.3 -0.39 C-0.01 -0.61, 1.13 -0.75, 1.16 -0.47 C1.18 -0.19, 0.08 1.14, -0.17 1.31 C-0.42 1.48, -0.45 0.63, -0.34 0.52 C-0.22 0.42, 0.43 0.73, 0.54 0.65 C0.64 0.58, 0.26 0.02, 0.3 0.09 C0.34 0.16, 0.86 1, 0.78 1.09 C0.7 1.17, -0.28 0.93, -0.2 0.62 C-0.13 0.32, 1.05 -0.61, 1.22 -0.74 C1.38 -0.86, 0.8 -0.36, 0.76 -0.12 M-0.74 0.17 C-0.86 0.07, 0.01 -0.12, 0.03 -0.09 C0.06 -0.05, -0.59 0.36, -0.59 0.4 C-0.59 0.43, -0.1 -0.08, 0.05 0.14 C0.2 0.36, 0.04 1.75, 0.31 1.69 C0.59 1.64, 1.56 0.16, 1.7 -0.18 C1.85 -0.53, 1.71 -0.69, 1.18 -0.38 C0.65 -0.08, -1.39 1.76, -1.46 1.64 C-1.53 1.52, 0.62 -0.97, 0.77 -1.11 C0.92 -1.24, -0.25 0.62, -0.56 0.84 C-0.86 1.06, -1.28 0.27, -1.06 0.22" stroke="#000000" stroke-width="1" fill="none"></path></g></g><g clip-path="url(#pK5R5-FAKFLrx0CmEYPuX)"><g stroke-linecap="round" transform="translate(157.81277538234463 659.2936987939261) rotate(352.75296581038907 108 27.5)"><path d="M13.75 0 M13.75 0 C82.66 -0.02, 148.44 1.52, 202.25 0 M13.75 0 C88.73 -0.39, 162.06 0, 202.25 0 M202.25 0 C212.7 -0.16, 217.21 5.03, 216 13.75 M202.25 0 C212.83 -0.79, 214.93 3.97, 216 13.75 M216 13.75 C215.83 19.93, 215.76 27.82, 216 41.25 M216 13.75 C215.83 22.52, 215.24 30.61, 216 41.25 M216 41.25 C215.06 52.12, 210.76 56.09, 202.25 55 M216 41.25 C216.32 52.34, 210.79 53.22, 202.25 55 M202.25 55 C156.73 56.18, 110.84 57.32, 13.75 55 M202.25 55 C143.17 52.18, 84.95 52.23, 13.75 55 M13.75 55 C2.97 53.39, -1.01 49.27, 0 41.25 M13.75 55 C2.97 56.84, 2.02 50.96, 0 41.25 M0 41.25 C0.56 35.48, 1.3 28.42, 0 13.75 M0 41.25 C0.51 30.51, 1.14 21.8, 0 13.75 M0 13.75 C0.29 4.81, 5.18 1.93, 13.75 0 M0 13.75 C-1.8 5.49, 5.04 0.45, 13.75 0" stroke="#1e1e1e" stroke-width="2" fill="none"></path></g></g><g clip-path="url(#pK5R5-FAKFLrx0CmEYPuX)"><g transform="translate(180.27284313136806 674.2936987939261) rotate(352.75296581038907 85.53993225097656 12.5)"><text x="85.53993225097656" y="0" font-family="Virgil, Segoe UI Emoji" font-size="20px" fill="#1e1e1e" text-anchor="middle" style="white-space: pre;" direction="ltr" dominant-baseline="text-before-edge">I need a session!</text></g></g><g clip-path="url(#pK5R5-FAKFLrx0CmEYPuX)"><g stroke-linecap="round"><g transform="translate(571.7887300034245 755.5263800610252) rotate(0 68.0008917755249 47.39503808666712)"><path d="M-0.91 -0.17 C41.34 -0.11, 82.74 -2.18, 133.29 -3.88 M-0.02 -0.58 C30.98 0.38, 60.88 0.64, 134.42 -2.93 M133.64 -4.73 C136.51 35.58, 136.42 73.91, 136.91 93.72 M133.43 -2.75 C134.68 35.34, 136.06 73.32, 135.99 95.73 M135.13 95.79 C95.99 96.64, 57.95 97.14, 2.25 99.52 M136 95.87 C96.69 95.04, 55.05 96.9, 2.9 97.89 M3.35 97.47 C3.12 59.07, 2.92 23.78, 1.97 0.73 M4.2 98.33 C0.88 68.3, 0.6 37.36, -0.45 -0.36" stroke="#1e1e1e" stroke-width="2" fill="none"></path></g></g><mask></mask></g><g clip-path="url(#pK5R5-FAKFLrx0CmEYPuX)"><g stroke-linecap="round"><g transform="translate(578.5282273572311 760.9352677827396) rotate(0 61.82205819747287 41.682001573400726)"><path d="M-0.09 1.36 C0.44 29, 1.35 56.81, 1.35 87.46 M0.99 -0.08 C1.45 18.99, 2.16 36.51, 3.7 87.05 M4.07 87.15 C41.83 87.34, 81.4 83.51, 123.73 83.53 M2.94 87.09 C48.03 85.42, 92.19 83.7, 122.08 82.52 M121.97 84.45 C123.73 62.05, 120.09 40.77, 119.47 -1.92 M122.87 82.87 C120.94 61.96, 120.44 39.4, 120.18 -2.82 M120.01 -4.1 C85.75 -1.99, 50.78 -0.33, 0.09 1.35 M118.67 -1.93 C83.25 -1.6, 46.68 -0.47, 0.7 -0.31" stroke="#1e1e1e" stroke-width="2" fill="none"></path></g></g><mask></mask></g><g clip-path="url(#pK5R5-FAKFLrx0CmEYPuX)"><g stroke-linecap="round"><g transform="translate(571.2564599303869 755.3077214650783) rotate(0 73.50914696626069 -4.275334468967948)"><path d="M-0.08 0.21 C3.24 -2.08, 5.71 -2.61, 10.26 -5.72 M0.56 0.6 C3.34 -1.1, 6.02 -2.22, 11.59 -5.62 M11.51 -4.45 C43.17 -8.6, 75.06 -7.4, 147.09 -8.55 M11.86 -4.69 C59.55 -7.49, 108.02 -9.68, 145.18 -9.04 M146.77 -7.95 C141.32 -5.68, 138.37 -4.95, 133.77 -3.64 M145.24 -8.08 C141.43 -6.65, 138.18 -5.32, 134.27 -3.44" stroke="#1e1e1e" stroke-width="2" fill="none"></path></g></g><mask></mask></g><g clip-path="url(#pK5R5-FAKFLrx0CmEYPuX)"><g stroke-linecap="round"><g transform="translate(709.3041954266846 850.8132410106962) rotate(0 4.87228376408666 -51.743751268012964)"><path d="M-0.08 -0.3 C2.5 -1.7, 5.64 -4.77, 8.39 -5.34 M0.54 0.23 C3.05 -1.51, 5.37 -3.79, 8.65 -6.1 M9.8 -8.07 C9.99 -39.85, 9.16 -73.75, 8.3 -103.48 M8.87 -6.06 C7.88 -44.74, 6.71 -81.98, 7.31 -103.72" stroke="#1e1e1e" stroke-width="2" fill="none"></path></g></g><mask></mask></g><g clip-path="url(#pK5R5-FAKFLrx0CmEYPuX)"><g stroke-linecap="round"><g transform="translate(719.0930544420926 830.2184652335134) rotate(0 8.362159446498026 -35.618962036094764)"><path d="M-1.5 1.23 C3.7 -5.12, 9.85 -8.22, 17.21 -14.42 M0.85 0.82 C6.95 -6.34, 12.84 -12.2, 17.83 -16.12 M19.04 -15.95 C17.26 -34.16, 15.53 -51.91, 15.15 -64.91 M17.39 -16.96 C15.47 -36.47, 14.52 -55.83, 14 -64.82 M13.48 -65.44 C7.57 -67.88, 3.85 -68.35, -2.32 -72.47 M14.05 -66.16 C7.83 -67.86, 2.21 -69.8, -2.3 -70.9" stroke="#1e1e1e" stroke-width="2" fill="none"></path></g></g><mask></mask></g><g clip-path="url(#pK5R5-FAKFLrx0CmEYPuX)"><g stroke-linecap="round"><g transform="translate(600.1230415869095 793.8953829183488) rotate(0 14.233149095037788 -8.666227038601956)"><path d="M0.74 -1.09 C2.97 -3.99, 8.38 -18.33, 13.05 -18.28 C17.73 -18.24, 26.2 -3.94, 28.8 -0.83 M-0.33 0.95 C1.76 -1.72, 7.26 -17.03, 12.09 -17.11 C16.92 -17.2, 26.37 -2.15, 28.66 0.44" stroke="#1e1e1e" stroke-width="2" fill="none"></path></g></g><mask></mask></g><g clip-path="url(#pK5R5-FAKFLrx0CmEYPuX)"><g stroke-linecap="round"><g transform="translate(644.234965375822 792.6386045535186) rotate(0 13.58123741165673 -8.06601959328827)"><path d="M-0.03 -0.7 C2.23 -3.46, 9.48 -17.87, 14.27 -17.68 C19.05 -17.5, 26.24 -2.52, 28.66 0.39 M-1.5 1.55 C0.64 -0.92, 8.95 -15.71, 13.94 -16.2 C18.93 -16.68, 26.44 -3.64, 28.45 -1.36" stroke="#1e1e1e" stroke-width="2" fill="none"></path></g></g><mask></mask></g><g clip-path="url(#pK5R5-FAKFLrx0CmEYPuX)"><g stroke-linecap="round"><g transform="translate(603.5893997849062 814.8122142690564) rotate(0 37.590552769738224 8.07993889341219)"><path d="M1.19 -0.09 C3.98 3.05, 8.2 15.05, 16.74 18.15 C25.29 21.25, 43.13 21.84, 52.45 18.52 C61.77 15.2, 79.02 1.48, 72.65 -1.77 C66.29 -5.02, 24.17 -1.21, 14.25 -0.98 M0.35 -1.19 C3.08 1.7, 7.68 13.68, 16.34 16.62 C25 19.55, 42.79 19.84, 52.3 16.44 C61.82 13.03, 80 -0.98, 73.44 -3.81 C66.88 -6.63, 22.84 -0.99, 12.94 -0.53" stroke="#1e1e1e" stroke-width="2" fill="none"></path></g></g><mask></mask></g><g clip-path="url(#pK5R5-FAKFLrx0CmEYPuX)"><g stroke-linecap="round"><g transform="translate(618.8606788779462 854.3497100654024) rotate(0 21.078528734840802 9.043335856437288)"><path d="M1.88 1.97 C9.3 9.06, 18.6 15.43, 21.49 17.54 M0.62 0.38 C6.95 7.65, 15.56 14.4, 21.28 19.52 M23.28 18.6 C28.16 12.43, 32.14 5.17, 40.67 -1.43 M21.76 18.4 C28.13 12.62, 33.42 6.04, 41.54 -1.35" stroke="#1e1e1e" stroke-width="2" fill="none"></path></g></g><mask></mask></g><g clip-path="url(#pK5R5-FAKFLrx0CmEYPuX)"><g stroke-linecap="round"><g transform="translate(624.7942489004845 860.6430568412337) rotate(0 -29.06426265938535 27.26618188837287)"><path d="M1.18 0.5 C-4.6 3.35, -23.66 9.45, -33.64 18.28 C-43.62 27.1, -54.34 47.48, -58.71 53.44 M0.34 -0.29 C-5.6 2.76, -24.11 7.48, -34.05 16.67 C-43.99 25.85, -54.98 48.95, -59.31 54.82" stroke="#1e1e1e" stroke-width="2" fill="none"></path></g></g><mask></mask></g><g clip-path="url(#pK5R5-FAKFLrx0CmEYPuX)"><g stroke-linecap="round"><g transform="translate(655.503489422832 858.6325255563507) rotate(0 33.58103628515573 27.107554688502994)"><path d="M1.02 0.98 C6.99 3.76, 26.4 8.38, 37 17.18 C47.59 25.97, 59.77 47.78, 64.6 53.76 M0.1 0.45 C5.83 3.41, 25.05 10.22, 36.21 18.78 C47.37 27.34, 62.01 45.9, 67.06 51.8" stroke="#1e1e1e" stroke-width="2" fill="none"></path></g></g><mask></mask></g><g clip-path="url(#pK5R5-FAKFLrx0CmEYPuX)"><g stroke-linecap="round"><g transform="translate(623.1270434225598 868.4646794823825) rotate(0 17.182186877902495 8.486350064418247)"><path d="M0.32 0.12 C2.83 0.89, 10.83 6.01, 16.08 5.62 C21.34 5.23, 28.87 -4.29, 31.83 -2.22 C34.8 -0.14, 36.5 16.02, 33.85 18.04 C31.21 20.06, 21.36 9.79, 15.97 9.91 C10.57 10.04, 4.16 20.33, 1.5 18.8 C-1.17 17.27, 0.22 3.68, -0.01 0.72 M-0.98 -0.86 C1.82 -0.52, 12.97 3.88, 18.36 3.88 C23.75 3.88, 28.67 -3.46, 31.36 -0.87 C34.05 1.71, 36.77 18.05, 34.49 19.39 C32.2 20.73, 22.89 7.36, 17.64 7.17 C12.39 6.98, 5.81 19.47, 2.98 18.23 C0.14 17, 1.27 2.58, 0.63 -0.25" stroke="#1e1e1e" stroke-width="2" fill="none"></path></g></g><mask></mask></g><g clip-path="url(#pK5R5-FAKFLrx0CmEYPuX)"><g stroke-linecap="round" transform="translate(589.3249564594125 656.5183375370646) rotate(3.252983801459593 83.21967440382423 22.40905198164114)"><path d="M11.2 0 M11.2 0 C44.47 1.44, 79.72 0.88, 155.23 0 M11.2 0 C62.23 1.19, 111.31 1.38, 155.23 0 M155.23 0 C161.52 -0.06, 167.65 2.92, 166.44 11.2 M155.23 0 C164.97 -2.19, 168.19 5.96, 166.44 11.2 M166.44 11.2 C166.28 19.67, 165.15 24.65, 166.44 33.61 M166.44 11.2 C165.75 18.19, 167.18 26.32, 166.44 33.61 M166.44 33.61 C167.18 40.67, 162.54 44.57, 155.23 44.82 M166.44 33.61 C165.88 41.08, 161.06 43.01, 155.23 44.82 M155.23 44.82 C111.49 47.3, 68.45 43.64, 11.2 44.82 M155.23 44.82 C106.73 45.51, 58.7 45.32, 11.2 44.82 M11.2 44.82 C3.61 44.26, 0.87 42.85, 0 33.61 M11.2 44.82 C4.86 46.41, 0.23 41.46, 0 33.61 M0 33.61 C0.19 27.83, 1.62 22.1, 0 11.2 M0 33.61 C0.29 28.15, -0.57 21.23, 0 11.2 M0 11.2 C-0.34 3.34, 4.78 1.78, 11.2 0 M0 11.2 C-0.04 5.55, 4.35 0.17, 11.2 0" stroke="#1e1e1e" stroke-width="2" fill="none"></path></g></g><g clip-path="url(#pK5R5-FAKFLrx0CmEYPuX)"><g transform="translate(646.0946491737832 666.4273895187057) rotate(3.252983801459593 26.449981689453125 12.5)"><text x="26.449981689453125" y="0" font-family="Virgil, Segoe UI Emoji" font-size="20px" fill="#1e1e1e" text-anchor="middle" style="white-space: pre;" direction="ltr" dominant-baseline="text-before-edge">Okay!</text></g></g><g clip-path="url(#pK5R5-FAKFLrx0CmEYPuX)"><g stroke-linecap="round"><g transform="translate(345.06127545203526 1082.4429261441296) rotate(0 -63.923819219847246 43.96651395335459)"><path d="M0.21 -1.74 C-32.66 0.91, -66.44 -3.18, -122.81 -2.36 M0.86 0.54 C-43.72 -2.72, -86.32 -3.32, -123.61 -2.98 M-122.91 -4.94 C-126.71 16.95, -126.07 36.77, -126.62 87 M-125.2 -3.01 C-123.6 19, -124.26 40.12, -127.32 89.79 M-128.71 89.46 C-95.56 91.61, -59.2 92.15, -3.44 92.88 M-127.39 88.42 C-98.33 89.09, -68.27 89.46, -3.18 91.76 M-4.62 89.95 C-3.78 63.63, -0.84 35.28, 0.77 1.36 M-2.64 91.37 C-2.9 66.05, -1.99 41.29, -0.21 0.56" stroke="#1e1e1e" stroke-width="2" fill="none"></path></g></g><mask></mask></g><g clip-path="url(#pK5R5-FAKFLrx0CmEYPuX)"><g stroke-linecap="round"><g transform="translate(339.3178412732768 1087.4872268220847) rotate(0 -57.450805995750216 39.035902996064124)"><path d="M-0.09 1.66 C-2.03 22.91, 0.09 49.82, -1.69 81.89 M-0.34 -0.4 C0.57 16.29, 0.45 32.56, -3.53 79.61 M-3.64 80.87 C-36.78 79.22, -70.92 75.79, -115.22 79.41 M-2.01 81.29 C-34.21 80.48, -67.28 79.82, -114.14 77.63 M-115.8 79.52 C-111.43 57.33, -112.14 35.19, -112.68 -3.82 M-114.17 78.19 C-111.86 48.73, -111.8 19.71, -111.25 -1.27 M-112.2 -1.29 C-73.23 0.02, -36.58 1.25, -0.5 1.46 M-111.38 -2.13 C-68.38 -1.37, -25.72 -0.28, 0.9 0.39" stroke="#1e1e1e" stroke-width="2" fill="none"></path></g></g><mask></mask></g><g clip-path="url(#pK5R5-FAKFLrx0CmEYPuX)"><g stroke-linecap="round"><g transform="translate(345.2744445287917 1082.2390062699294) rotate(0 -67.87660729202207 -4.711330744982348)"><path d="M-0.78 -0.96 C-1.3 -0.59, -3.96 -1.29, -11.83 -4.28 M0.25 0.05 C-3.26 -1.83, -8.04 -4.28, -10.6 -4.85 M-10.46 -4.65 C-36.43 -7.51, -64.31 -4.42, -135.99 -9.47 M-10.08 -4.58 C-49.92 -4.19, -88.77 -5.94, -136 -8.82 M-135.18 -6.92 C-132.6 -5.46, -129.71 -5.91, -124.46 -3.71 M-135.35 -7.74 C-133.23 -6.43, -130.48 -5.13, -125.06 -3.68" stroke="#1e1e1e" stroke-width="2" fill="none"></path></g></g><mask></mask></g><g clip-path="url(#pK5R5-FAKFLrx0CmEYPuX)"><g stroke-linecap="round"><g transform="translate(215.76883276574972 1171.3069591982821) rotate(0 -4.024999381259931 -48.63529356344574)"><path d="M0.84 0.39 C-2.69 -1.6, -7.43 -3.77, -7.86 -6.35 M0.43 0.08 C-2.66 -1.97, -4.36 -2.72, -8.89 -6.25 M-8.07 -7.93 C-9.31 -33.56, -7.56 -66.05, -6.4 -95.39 M-8.78 -5.15 C-8.55 -41.14, -7.77 -77.01, -6.36 -97.66" stroke="#1e1e1e" stroke-width="2" fill="none"></path></g></g><mask></mask></g><g clip-path="url(#pK5R5-FAKFLrx0CmEYPuX)"><g stroke-linecap="round"><g transform="translate(207.35895849009285 1152.1003779638236) rotate(0 -7.677717678966928 -32.41623968426913)"><path d="M0.97 1.47 C-5.65 -1.52, -6.15 -7.23, -17 -14.25 M-0.87 -0.81 C-5.03 -3.85, -11.01 -9.75, -15.97 -14.98 M-17.58 -13.37 C-15.28 -31.95, -13.62 -44.54, -10.79 -60.2 M-16.51 -15.15 C-14.89 -33.23, -13.03 -50.59, -11.62 -60.83 M-13.52 -62.57 C-6.04 -64.2, -2.36 -66.17, 2.23 -65.64 M-12.44 -60.66 C-7.56 -63.84, -3.5 -65.39, 1.82 -66.31" stroke="#1e1e1e" stroke-width="2" fill="none"></path></g></g><mask></mask></g><g clip-path="url(#pK5R5-FAKFLrx0CmEYPuX)"><g stroke-linecap="round"><g transform="translate(300.56266814735227 1174.605051924187) rotate(0 -18.947553354627416 8.434768816867091)"><path d="M-1.97 1.72 C-5.55 5.43, -14.14 12.9, -19.7 19.31 M0.08 0.76 C-7.31 4.9, -12.42 11.04, -19.52 17.82 M-20.07 16.13 C-23.37 15.16, -25.72 11.07, -37.42 -2.44 M-20.08 16.77 C-26.86 9.18, -33.54 3.21, -37.98 -1.92" stroke="#1e1e1e" stroke-width="2" fill="none"></path></g></g><mask></mask></g><g clip-path="url(#pK5R5-FAKFLrx0CmEYPuX)"><g stroke-linecap="round"><g transform="translate(294.44432701898677 1180.4741945356127) rotate(0 27.828799200603953 25.564525190091018)"><path d="M1.03 0.65 C6.21 3.45, 22.84 7.45, 31.92 15.65 C41 23.84, 51.52 44.11, 55.54 49.82 M0.12 -0.06 C5.02 3.01, 21.61 8.39, 30.76 16.93 C39.91 25.47, 50.69 45.49, 55.03 51.19" stroke="#1e1e1e" stroke-width="2" fill="none"></path></g></g><mask></mask></g><g clip-path="url(#pK5R5-FAKFLrx0CmEYPuX)"><g stroke-linecap="round"><g transform="translate(265.1606242013013 1178.599183471384) rotate(0 -29.34287187236623 24.631132041449746)"><path d="M-0.41 -0.48 C-6.2 2.08, -23.78 7.65, -33.71 16 C-43.65 24.35, -55.3 44.22, -60.02 49.63 M1.58 -1.78 C-4.42 0.94, -24.1 8.78, -34.4 17.59 C-44.71 26.39, -55.61 45.79, -60.27 51.04" stroke="#1e1e1e" stroke-width="2" fill="none"></path></g></g><mask></mask></g><g clip-path="url(#pK5R5-FAKFLrx0CmEYPuX)"><g stroke-linecap="round"><g transform="translate(295.98308936669764 1187.768599304464) rotate(0 -15.181961221007441 7.060855052406282)"><path d="M0.49 0.09 C-1.9 0.96, -9.66 5.26, -14.77 4.74 C-19.89 4.21, -27.55 -5.18, -30.22 -3.08 C-32.88 -0.99, -33 15.51, -30.78 17.31 C-28.56 19.12, -21.86 7.81, -16.9 7.72 C-11.94 7.63, -3.88 18.05, -1 16.8 C1.88 15.55, 0.42 3.15, 0.39 0.21 M-0.71 -0.9 C-3.13 0.23, -10.67 6.59, -15.2 6.36 C-19.73 6.14, -25.32 -3.75, -27.87 -2.27 C-30.41 -0.79, -32.57 13.56, -30.48 15.24 C-28.38 16.92, -20.46 7.7, -15.28 7.8 C-10.11 7.9, -2.2 17.29, 0.56 15.82 C3.31 14.35, 1.19 1.88, 1.24 -1.02" stroke="#1e1e1e" stroke-width="2" fill="none"></path></g></g><mask></mask></g><g clip-path="url(#pK5R5-FAKFLrx0CmEYPuX)"><g stroke-linecap="round"><g transform="translate(297.1582104021081 1106.1101253557158) rotate(0 -14.293936583714185 21.43338087226448)"><path d="M0.12 -0.72 C-3.17 -1.23, -4.35 -3.41, -7.72 -3.79 M-0.4 -0.29 C-1.92 -1.26, -4.85 -2.41, -7.04 -3.62 M-6.48 -4.28 C-8.81 -1.09, -11.08 2.5, -12.45 5.65 M-6.87 -4.3 C-9.1 -0.59, -10.38 1.91, -11.66 5 M-10.96 4.85 C-13.71 4.97, -17.95 4.25, -19.65 5.01 M-11.23 4.67 C-14.01 5.09, -16.92 4.84, -19.33 4.68 M-18.82 5.48 C-19.96 1.81, -20.82 -1.19, -22.78 -4.45 M-19.3 5.07 C-19.89 2.05, -21.22 -0.04, -22.9 -3.78 M-22.29 -3.84 C-26.25 -2.18, -29.8 -1.35, -30.44 -0.08 M-22.71 -3.98 C-24.6 -2.85, -26.82 -2.5, -30.69 -0.8 M-31.2 -0.2 C-29.77 3.8, -27.86 6.96, -27.5 7.82 M-30.93 -0.24 C-29.37 1.81, -27.91 4.39, -26.24 8.67 M-26.42 8.21 C-27.03 9.67, -28.64 11.18, -29.43 13.13 M-26.6 8.22 C-27.48 10.1, -28.62 11.43, -29.31 13.23 M-29.15 14.05 C-31.35 11.87, -34.09 12.21, -37.12 10.49 M-29.23 13.09 C-32.15 12.29, -34.2 12.07, -37.13 10.48 M-37.09 10.28 C-38.72 14.53, -38.53 18.06, -40.21 21.08 M-37.56 10.37 C-38.28 13.01, -37.85 14.81, -39.64 20.7 M-39.34 21.32 C-38.43 21.71, -36.49 22.09, -30.52 22.41 M-38.94 21.29 C-37.16 21.45, -35.1 22.13, -30.8 22.29 M-31.14 23.05 C-30.22 25.9, -28.06 27.5, -27.85 28.88 M-31.02 22.62 C-30.59 23.96, -29.95 25.84, -28.14 29.46 M-26.8 29.37 C-29.36 31.69, -31.2 31.37, -36.33 35.41 M-27.53 29.38 C-31.03 32.3, -34.01 34.74, -35.66 36.29 M-34.87 36.34 C-32.93 37.74, -30.74 41.92, -29.03 42.76 M-35.55 36.24 C-33.26 39.1, -30.26 41.73, -28.53 42.59 M-27.76 42.54 C-26.46 40.04, -24.89 36.75, -23.19 34.19 M-28.82 42.36 C-26.71 40.23, -25.24 37.82, -23.21 34.97 M-22.52 34.02 C-20.99 34.7, -19.25 35.28, -16.02 35.89 M-22.87 34.77 C-20.71 35.3, -19.2 34.99, -15.66 35.95 M-16.19 35.36 C-16.04 37.65, -15.66 42.33, -16.69 46.51 M-15.13 35.57 C-15.71 39.27, -15.58 43.43, -16.22 46.71 M-16.78 47.32 C-11.32 45.06, -7.9 44.44, -6.19 43.94 M-15.7 45.88 C-12.67 45.42, -10.35 45.16, -5.08 43.79 M-4.5 43.21 C-5.81 41.03, -7.68 39.4, -7.44 32.69 M-5.02 44.42 C-6.39 41.79, -6.54 40.22, -7.99 33.78 M-8.49 32.66 C-7.22 31.69, -5.74 31.26, -1.39 27.76 M-8.82 33.06 C-6.16 30.93, -3.38 29.47, -2.32 28.2 M-3.02 28.69 C1.53 31.62, 4.21 33.76, 5.89 35.85 M-2.37 28.02 C-0.07 30.48, 2.61 32.4, 6.23 35.51 M6.45 36.28 C8.18 30.58, 9.14 28.41, 8.9 25.65 M5.34 35.78 C7.23 32.27, 8.22 27.76, 9.81 25.18 M9.53 25.63 C6.67 23.74, 4.82 23.92, 0.64 22.69 M9.09 25.72 C6.44 23.94, 3.06 23.54, 0.39 22.09 M-0.35 22.79 C0.68 20.35, -0.07 18.41, -0.38 15.9 M-0.09 22.4 C0.25 20.54, -0.02 18.88, 0.4 15.45 M0.22 16.24 C3.78 14.8, 5.53 13.73, 10.53 14.74 M0.12 15.39 C3.63 14.63, 6.71 14.7, 10.97 14.39 M10.86 13.6 C10.74 12.6, 10.2 10.16, 8.07 4.65 M11.62 13.94 C10.14 10.42, 9.67 7.47, 8.91 5.09 M9.55 5.27 C6.31 7.56, 4.03 9.63, -1.76 10.88 M8.87 5.18 C5.88 7.47, 1.89 8.47, -1.17 10.62 M-1.07 11.04 C-2.45 9.29, -3.8 8.62, -5.11 6.43 M-1.57 11.09 C-2.44 10.12, -3.03 9.39, -4.67 6.7 M-4.57 5.96 C-3.02 5.21, -2.48 4.31, -0.07 0.31 M-4.56 7.01 C-4.13 5.49, -2.39 4.03, -0.03 -0.22" stroke="#1e1e1e" stroke-width="2" fill="none"></path></g></g><mask></mask></g><g clip-path="url(#pK5R5-FAKFLrx0CmEYPuX)"><g stroke-linecap="round"><g transform="translate(286.68879469369404 1119.3005278028854) rotate(0 -5.990403588097706 6.650427521180745)"><path d="M-0.52 0.05 C1.28 1.79, 1.24 4.88, 2.09 6.37 M0.28 -0.04 C0.34 2, 1.44 4.21, 2.21 6.39 M1.96 5.93 C-0.47 8.46, -2.27 11.17, -3.84 14.83 M1.61 6.49 C0.09 8.04, -1.66 10.73, -3.99 14.11 M-3.64 14.18 C-7.24 13.23, -9.23 13.76, -11.76 13.35 M-4.07 14.27 C-6.85 13.72, -9.69 13.31, -12.19 13.13 M-11.87 12.76 C-12.25 9.93, -13.45 7.54, -14.19 4.65 M-11.94 12.59 C-12.9 10.22, -13.53 8.14, -13.37 4.65 M-14.15 4.54 C-13.37 2.57, -11.63 1.37, -10.95 -1.23 M-13.89 4.38 C-12.85 2.09, -11.35 0.16, -10.28 -1.11 M-11.27 -0.2 C-6.8 -0.06, -3.18 -0.79, -0.06 -0.27 M-10.34 -1.53 C-7.91 -1.37, -5.83 -0.37, -0.06 -0.42" stroke="#1e1e1e" stroke-width="2" fill="none"></path></g></g><mask></mask></g><g clip-path="url(#pK5R5-FAKFLrx0CmEYPuX)"><g stroke-linecap="round" transform="translate(212.3004108026089 1309.1291222303494) rotate(0 125.83870375578681 49.98945621434217)"><path d="M24.99 0 M24.99 0 C90.55 0.32, 158.2 1.61, 226.68 0 M24.99 0 C88.51 -0.63, 151.66 -0.62, 226.68 0 M226.68 0 C242.64 -1.43, 250.98 7.84, 251.68 24.99 M226.68 0 C242.22 0.75, 252.21 9.42, 251.68 24.99 M251.68 24.99 C252.99 35.19, 249.99 48.79, 251.68 74.98 M251.68 24.99 C251.65 41.2, 251.39 56.52, 251.68 74.98 M251.68 74.98 C252.58 91.15, 242.16 99.75, 226.68 99.98 M251.68 74.98 C250 92.29, 244.42 101.28, 226.68 99.98 M226.68 99.98 C160.84 100.75, 93.85 100.43, 24.99 99.98 M226.68 99.98 C176.95 100.99, 126.57 100.89, 24.99 99.98 M24.99 99.98 C8.26 98.61, -1.07 90.42, 0 74.98 M24.99 99.98 C7.89 98.85, 0.66 89.46, 0 74.98 M0 74.98 C-0.45 64.21, 0.62 50.86, 0 24.99 M0 74.98 C0.84 56.79, -0.02 37.56, 0 24.99 M0 24.99 C-0.18 10.17, 9.17 -1.68, 24.99 0 M0 24.99 C0.95 8.51, 7.15 0.73, 24.99 0" stroke="#1e1e1e" stroke-width="2" fill="none"></path></g></g><g clip-path="url(#pK5R5-FAKFLrx0CmEYPuX)"><g transform="translate(285.72916430204805 1334.1185784446916) rotate(0 52.409950256347656 25)"><text x="52.409950256347656" y="0" font-family="Virgil, Segoe UI Emoji" font-size="20px" fill="#1e1e1e" text-anchor="middle" style="white-space: pre;" direction="ltr" dominant-baseline="text-before-edge">Generating</text><text x="52.409950256347656" y="25" font-family="Virgil, Segoe UI Emoji" font-size="20px" fill="#1e1e1e" text-anchor="middle" style="white-space: pre;" direction="ltr" dominant-baseline="text-before-edge">session ID</text></g></g><g clip-path="url(#pK5R5-FAKFLrx0CmEYPuX)"><g stroke-linecap="round" transform="translate(563.5157612771036 1281.4656356231844) rotate(0 184.1872368781269 87.0600676152394)"><path d="M32 0 M32 0 C145.47 -2.69, 259.05 -2.8, 336.37 0 M32 0 C126.85 -1.11, 223.06 -0.93, 336.37 0 M336.37 0 C359.69 0.93, 370.08 11.31, 368.37 32 M336.37 0 C356 -1.4, 367.94 8.74, 368.37 32 M368.37 32 C369.81 56.98, 370.14 85.24, 368.37 142.12 M368.37 32 C367.45 74.96, 367.88 119.18, 368.37 142.12 M368.37 142.12 C369.69 162.53, 357.39 175.71, 336.37 174.12 M368.37 142.12 C369.48 164.43, 357.38 173.75, 336.37 174.12 M336.37 174.12 C220.24 177.18, 102.29 175.91, 32 174.12 M336.37 174.12 C264 173.32, 190.18 172.53, 32 174.12 M32 174.12 C12.63 176.05, -1.28 161.91, 0 142.12 M32 174.12 C10.09 173.93, 1.25 163.27, 0 142.12 M0 142.12 C0.82 107.7, 1.49 75.33, 0 32 M0 142.12 C0.01 100.03, -0.8 60, 0 32 M0 32 C0.22 8.92, 12.05 -0.56, 32 0 M0 32 C-1.64 12.66, 12.64 1.14, 32 0" stroke="#1e1e1e" stroke-width="2" fill="none"></path></g></g><g clip-path="url(#pK5R5-FAKFLrx0CmEYPuX)"><g transform="translate(585.9939860094464 1295.1012408484185) rotate(0 146.14988708496094 75)"><text x="0" y="0" font-family="Virgil, Segoe UI Emoji" font-size="20px" fill="#1e1e1e" text-anchor="start" style="white-space: pre;" direction="ltr" dominant-baseline="text-before-edge">Creating session entry in DB:</text><text x="0" y="25" font-family="Virgil, Segoe UI Emoji" font-size="20px" fill="#1e1e1e" text-anchor="start" style="white-space: pre;" direction="ltr" dominant-baseline="text-before-edge">    - use session ID as ID</text><text x="0" y="50" font-family="Virgil, Segoe UI Emoji" font-size="20px" fill="#1e1e1e" text-anchor="start" style="white-space: pre;" direction="ltr" dominant-baseline="text-before-edge">    - store user ID</text><text x="0" y="75" font-family="Virgil, Segoe UI Emoji" font-size="20px" fill="#1e1e1e" text-anchor="start" style="white-space: pre;" direction="ltr" dominant-baseline="text-before-edge">    - set tenantId</text><text x="0" y="100" font-family="Virgil, Segoe UI Emoji" font-size="20px" fill="#1e1e1e" text-anchor="start" style="white-space: pre;" direction="ltr" dominant-baseline="text-before-edge">    - set idle expiration time</text><text x="0" y="125" font-family="Virgil, Segoe UI Emoji" font-size="20px" fill="#1e1e1e" text-anchor="start" style="white-space: pre;" direction="ltr" dominant-baseline="text-before-edge">    - set max expiration time</text></g></g><g clip-path="url(#pK5R5-FAKFLrx0CmEYPuX)"><g stroke-linecap="round" transform="translate(170.08294632345132 1245.879929836627) rotate(0 402.73558323284806 119.06511990363794)"><path d="M32 0 M32 0 C293.35 1.14, 556.12 1.94, 773.47 0 M32 0 C198.61 -2.05, 364.85 -2.22, 773.47 0 M773.47 0 C796.21 -1.14, 804.1 12.66, 805.47 32 M773.47 0 C795.6 -1.13, 805.25 11.23, 805.47 32 M805.47 32 C804.51 73.92, 802.46 112.76, 805.47 206.13 M805.47 32 C804.51 81.02, 803.41 131.74, 805.47 206.13 M805.47 206.13 C805.72 225.58, 794.84 238.74, 773.47 238.13 M805.47 206.13 C803.93 226.72, 792.86 238.23, 773.47 238.13 M773.47 238.13 C541.47 235.62, 309.34 236.88, 32 238.13 M773.47 238.13 C545.27 239.41, 317.63 239.69, 32 238.13 M32 238.13 C12.61 236.42, -1.74 228.67, 0 206.13 M32 238.13 C10.18 239.99, 1.06 227.01, 0 206.13 M0 206.13 C0.91 143.06, -0.5 83.63, 0 32 M0 206.13 C2.4 161.16, 1.05 115.84, 0 32 M0 32 C-0.65 8.93, 8.73 -1.53, 32 0 M0 32 C-0.34 9.16, 9.58 0.53, 32 0" stroke="#1e1e1e" stroke-width="2" fill="none"></path></g></g><g clip-path="url(#pK5R5-FAKFLrx0CmEYPuX)"><g stroke-linecap="round"><g transform="translate(555.1287561960435 1762.0674070784173) rotate(0 42.433520571200916 20.953333580531023)"><path d="M1.07 -0.11 C1.28 -2.49, -1.22 -10.1, 1.38 -14.29 C3.99 -18.48, 12.06 -22.24, 16.71 -25.27 C21.36 -28.3, 22.67 -31.95, 29.3 -32.47 C35.94 -32.99, 50.94 -30.38, 56.52 -28.38 C62.11 -26.37, 58.28 -22.02, 62.84 -20.46 C67.4 -18.91, 78.79 -21.25, 83.88 -19.05 C88.97 -16.84, 91.2 -11.48, 93.39 -7.24 C95.57 -2.99, 97.42 2.03, 97 6.43 C96.57 10.83, 90.85 14.86, 90.83 19.14 C90.8 23.42, 95.58 27.74, 96.86 32.11 C98.14 36.48, 100.5 39.32, 98.5 45.35 C96.49 51.39, 88.6 63.46, 84.84 68.31 C81.08 73.15, 79.52 74.04, 75.95 74.41 C72.37 74.79, 70.35 71.71, 63.39 70.56 C56.42 69.41, 41.04 67.72, 34.18 67.52 C27.31 67.32, 26.73 70.95, 22.19 69.35 C17.65 67.75, 10.02 61.65, 6.93 57.92 C3.84 54.19, 6.32 49.82, 3.66 46.97 C1.01 44.12, -6.18 43.96, -9.01 40.83 C-11.83 37.7, -14.27 34.04, -13.29 28.19 C-12.31 22.34, -5.53 10.61, -3.13 5.75 C-0.72 0.88, 0.53 -0.22, 1.16 -0.99 M0.17 -1.22 C0.3 -3.94, -1.66 -12.28, 0.91 -16.08 C3.49 -19.87, 10.87 -21.44, 15.64 -23.99 C20.4 -26.54, 22.35 -30.64, 29.5 -31.38 C36.65 -32.13, 52.77 -30.1, 58.54 -28.45 C64.31 -26.8, 59.78 -23.35, 64.1 -21.49 C68.43 -19.62, 79.25 -19.7, 84.52 -17.28 C89.79 -14.86, 93.84 -10.73, 95.71 -6.98 C97.59 -3.22, 96.54 1.03, 95.78 5.26 C95.02 9.49, 90.88 13.85, 91.15 18.4 C91.41 22.96, 96.35 27.64, 97.36 32.58 C98.37 37.52, 99.37 42.28, 97.22 48.04 C95.07 53.81, 88.1 62.86, 84.47 67.18 C80.85 71.5, 79.01 73.42, 75.48 73.96 C71.95 74.51, 70.53 71.39, 63.3 70.45 C56.06 69.51, 38.58 68.41, 32.07 68.32 C25.56 68.23, 28.08 71.65, 24.24 69.89 C20.4 68.13, 12.14 61.44, 9.04 57.75 C5.95 54.06, 8.63 50.8, 5.67 47.75 C2.71 44.7, -5.4 42.88, -8.74 39.44 C-12.07 36, -14.83 32.37, -14.35 27.11 C-13.88 21.85, -8.56 12.19, -5.87 7.88 C-3.19 3.58, 0.94 2.46, 1.75 1.28" stroke="#1e1e1e" stroke-width="2" fill="none"></path></g></g><mask></mask></g><g clip-path="url(#pK5R5-FAKFLrx0CmEYPuX)"><g stroke-linecap="round" transform="translate(565.3320309050441 1735.2622324387528) rotate(333.24107489169387 6.3604460664128055 3.8137512187171865)"><path d="M7.53 -0.29 C9.06 -0.11, 11.43 0.37, 12.3 1.05 C13.16 1.73, 13.05 2.89, 12.72 3.79 C12.39 4.69, 11.14 5.99, 10.31 6.47 C9.49 6.95, 8.9 6.48, 7.77 6.65 C6.64 6.83, 4.84 7.93, 3.54 7.52 C2.23 7.12, 0.33 5.18, -0.08 4.21 C-0.49 3.25, 0.5 2.33, 1.09 1.74 C1.67 1.14, 1.99 0.82, 3.42 0.64 C4.85 0.46, 8.72 0.68, 9.66 0.68 C10.6 0.67, 9.25 0.59, 9.06 0.62 M9.44 -0.77 C10.83 -0.66, 12.96 0.66, 13.36 1.44 C13.75 2.22, 12.38 3.14, 11.78 3.91 C11.19 4.68, 11.01 5.24, 9.8 6.07 C8.6 6.9, 5.72 8.61, 4.57 8.9 C3.42 9.19, 3.75 8.76, 2.88 7.82 C2.01 6.88, -0.11 4.25, -0.64 3.26 C-1.18 2.26, -1.3 2.51, -0.33 1.84 C0.64 1.18, 3.42 -0.28, 5.19 -0.73 C6.96 -1.17, 9.66 -1.02, 10.31 -0.81 C10.96 -0.6, 9.4 0.31, 9.08 0.52" stroke="none" stroke-width="0" fill="#000"></path><path d="M4.79 -0.16 C5.91 -0.42, 7.16 -0.25, 8.4 0.16 C9.63 0.56, 11.66 1.55, 12.19 2.25 C12.73 2.95, 11.83 3.47, 11.61 4.37 C11.39 5.28, 11.8 7.27, 10.87 7.69 C9.94 8.11, 7.63 7.05, 6.04 6.89 C4.45 6.74, 2.47 7.19, 1.33 6.75 C0.19 6.32, -0.64 5.31, -0.8 4.29 C-0.97 3.27, -0.78 1.28, 0.35 0.63 C1.47 -0.03, 4.74 0.55, 5.94 0.37 C7.15 0.19, 7.39 -0.59, 7.59 -0.46 M3.5 -1.04 C4.72 -1.07, 6.54 0.82, 7.85 1.47 C9.15 2.11, 10.51 2.28, 11.32 2.82 C12.12 3.36, 12.57 4.11, 12.68 4.69 C12.79 5.27, 12.79 6.01, 11.99 6.29 C11.19 6.58, 9.35 6.08, 7.87 6.39 C6.4 6.7, 4.28 8.25, 3.13 8.16 C1.97 8.07, 1.28 7.05, 0.94 5.84 C0.6 4.63, 0.32 1.87, 1.08 0.9 C1.84 -0.06, 4.81 0.01, 5.52 0.02 C6.23 0.03, 5.48 0.82, 5.34 0.96" stroke="#1e1e1e" stroke-width="2" fill="none"></path></g></g><g clip-path="url(#pK5R5-FAKFLrx0CmEYPuX)"><g stroke-linecap="round" transform="translate(548.390595039753 1795.3903324403466) rotate(333.24107489169387 4.223026934653717 5.510974603019292)"><path d="M3.52 0.03 C4.31 -0.43, 4.89 -0.33, 5.47 0.1 C6.04 0.53, 6.4 1.77, 6.98 2.63 C7.55 3.49, 8.81 4.03, 8.91 5.26 C9.02 6.49, 8.44 9.19, 7.62 10.02 C6.81 10.84, 4.92 10.35, 4.04 10.22 C3.15 10.09, 2.95 9.8, 2.31 9.25 C1.66 8.7, 0.34 7.91, 0.17 6.93 C0 5.95, 0.94 4.51, 1.27 3.38 C1.61 2.25, 1.83 0.64, 2.16 0.15 C2.49 -0.34, 2.96 0.28, 3.25 0.42 M5.9 -0.63 C6.53 -0.56, 6.07 0.02, 6.43 0.83 C6.79 1.64, 8.09 2.7, 8.06 4.22 C8.04 5.73, 6.57 8.63, 6.26 9.93 C5.95 11.24, 6.95 12.13, 6.21 12.05 C5.46 11.98, 2.96 10.19, 1.76 9.51 C0.57 8.83, -0.81 9.02, -0.97 7.97 C-1.13 6.92, 0.11 4.56, 0.8 3.21 C1.5 1.86, 2.56 0.4, 3.23 -0.11 C3.9 -0.62, 4.65 0.16, 4.84 0.16 C5.03 0.17, 4.39 -0.36, 4.37 -0.06" stroke="none" stroke-width="0" fill="#000"></path><path d="M3.29 -0.22 C4.16 -0.3, 6.12 0.45, 6.82 1.13 C7.52 1.8, 7.13 2.56, 7.48 3.83 C7.83 5.1, 9.13 7.76, 8.92 8.77 C8.7 9.78, 7.24 9.51, 6.17 9.89 C5.1 10.27, 3.55 11.25, 2.5 11.05 C1.44 10.85, 0.4 9.88, -0.16 8.68 C-0.71 7.48, -1 4.99, -0.83 3.84 C-0.65 2.7, 0.07 2.57, 0.88 1.82 C1.7 1.07, 3.29 -0.52, 4.08 -0.65 C4.87 -0.79, 5.7 0.9, 5.65 1.01 M2.9 1.32 C3.76 1.44, 4.96 1.28, 5.85 1.71 C6.74 2.14, 7.61 3.04, 8.25 3.92 C8.89 4.81, 9.75 6.17, 9.67 7.03 C9.59 7.88, 8.65 8.18, 7.75 9.07 C6.85 9.95, 5.25 12.12, 4.26 12.33 C3.26 12.54, 2.46 11.65, 1.79 10.34 C1.13 9.02, 0.16 5.86, 0.26 4.43 C0.36 2.99, 1.67 2.33, 2.41 1.71 C3.14 1.09, 4.46 0.93, 4.7 0.72 C4.93 0.51, 3.96 0.37, 3.83 0.46" stroke="#1e1e1e" stroke-width="2" fill="none"></path></g></g><g clip-path="url(#pK5R5-FAKFLrx0CmEYPuX)"><g stroke-linecap="round" transform="translate(627.0634579801981 1829.9063910795865) rotate(333.24107489169387 6.3604460664128055 3.8137512187172433)"><path d="M5.2 -0.08 C6.17 -0.18, 7.43 0.34, 8.7 0.61 C9.97 0.88, 12.12 0.72, 12.82 1.54 C13.51 2.36, 13.49 4.76, 12.88 5.55 C12.28 6.35, 10.35 6.08, 9.2 6.3 C8.04 6.53, 7.22 6.89, 5.95 6.92 C4.68 6.95, 2.45 6.93, 1.59 6.48 C0.74 6.03, 0.97 5.09, 0.81 4.23 C0.65 3.36, -0.16 1.96, 0.64 1.29 C1.44 0.62, 4.55 0.38, 5.63 0.21 C6.72 0.04, 7.08 0.17, 7.14 0.26 M3.35 -0.53 C4.25 -0.87, 6.92 -1.2, 8.1 -0.58 C9.28 0.03, 9.5 2.1, 10.4 3.14 C11.3 4.18, 13.61 5.23, 13.51 5.66 C13.42 6.08, 11.23 5.35, 9.82 5.7 C8.41 6.05, 6.2 7.72, 5.07 7.75 C3.93 7.78, 3.58 6.6, 2.99 5.88 C2.41 5.15, 1.87 4.03, 1.55 3.4 C1.23 2.77, 0.68 2.65, 1.08 2.09 C1.47 1.53, 3.37 0.12, 3.92 0.06 C4.47 0, 4.43 1.89, 4.36 1.73" stroke="none" stroke-width="0" fill="#000"></path><path d="M5.52 0.03 C6.77 -0.17, 7.57 -0.46, 8.88 0.1 C10.18 0.65, 12.75 2.62, 13.36 3.36 C13.98 4.1, 13.33 3.85, 12.58 4.54 C11.84 5.22, 10.27 6.94, 8.87 7.47 C7.48 8.01, 5.6 8.13, 4.2 7.75 C2.8 7.37, 1.25 5.82, 0.47 5.2 C-0.31 4.59, -0.61 4.81, -0.48 4.04 C-0.35 3.27, -0.02 1.13, 1.23 0.59 C2.49 0.05, 6.17 0.99, 7.04 0.82 C7.91 0.64, 6.61 -0.32, 6.44 -0.47 M3.21 1.29 C4.46 0.76, 6.46 0.4, 8.11 0.39 C9.76 0.38, 12.09 0.81, 13.1 1.24 C14.1 1.66, 14.39 1.83, 14.14 2.94 C13.89 4.06, 12.7 6.93, 11.62 7.93 C10.54 8.93, 9.14 9.28, 7.69 8.94 C6.24 8.6, 3.94 6.61, 2.93 5.88 C1.91 5.15, 1.78 5.06, 1.59 4.55 C1.4 4.03, 1.39 3.47, 1.79 2.82 C2.19 2.16, 3.63 0.91, 4.01 0.61 C4.39 0.31, 3.96 1.13, 4.06 1.02" stroke="#1e1e1e" stroke-width="2" fill="none"></path></g></g><g clip-path="url(#pK5R5-FAKFLrx0CmEYPuX)"><g stroke-linecap="round" transform="translate(636.7930242228476 1743.767935495146) rotate(23.557617487244414 4.119391278313287 3.4602457163364875)"><path d="M2.5 0.19 C3.4 -0.13, 5.58 -0.93, 6.58 -0.52 C7.57 -0.11, 8.3 1.94, 8.48 2.66 C8.65 3.37, 7.89 3.24, 7.63 3.76 C7.37 4.27, 7.58 5.2, 6.91 5.75 C6.24 6.3, 4.43 7.01, 3.58 7.07 C2.74 7.14, 2.58 6.74, 1.85 6.13 C1.12 5.53, -0.62 4.23, -0.81 3.46 C-0.99 2.68, -0.19 2.05, 0.77 1.5 C1.72 0.96, 4.2 0.35, 4.92 0.19 C5.64 0.02, 5.34 0.34, 5.08 0.51 M2.86 -0.72 C3.56 -0.57, 3.6 0.99, 4.59 1.67 C5.58 2.35, 8.34 3.06, 8.8 3.36 C9.26 3.67, 8 2.97, 7.36 3.5 C6.72 4.02, 5.48 6.08, 4.96 6.5 C4.44 6.92, 4.65 6.3, 4.25 6 C3.84 5.7, 3.19 5.06, 2.52 4.68 C1.86 4.31, 0.58 4.34, 0.27 3.76 C-0.05 3.17, 0.13 1.54, 0.65 1.17 C1.18 0.79, 3.14 1.92, 3.43 1.5 C3.73 1.08, 2.26 -1.18, 2.42 -1.35" stroke="none" stroke-width="0" fill="#000"></path><path d="M2.78 -0.46 C3.76 -0.47, 6.4 0.92, 7.34 1.29 C8.28 1.66, 8.39 1.12, 8.4 1.76 C8.42 2.4, 7.99 4.29, 7.44 5.12 C6.9 5.96, 6 6.64, 5.14 6.77 C4.28 6.89, 3.1 6.02, 2.3 5.88 C1.49 5.73, 0.78 6.44, 0.32 5.89 C-0.13 5.34, -0.66 3.25, -0.41 2.59 C-0.16 1.92, 1.24 2.42, 1.84 1.9 C2.43 1.37, 2.84 -0.19, 3.17 -0.57 C3.5 -0.94, 3.81 -0.43, 3.8 -0.35 M5.83 0.55 C6.95 0.56, 8.69 1.1, 9.31 1.52 C9.93 1.94, 9.89 2.03, 9.57 3.05 C9.24 4.07, 8.17 6.79, 7.35 7.65 C6.54 8.52, 5.64 8.69, 4.67 8.23 C3.7 7.78, 2.07 5.69, 1.53 4.92 C0.98 4.15, 1.36 4.07, 1.42 3.61 C1.47 3.15, 1.56 2.71, 1.87 2.18 C2.17 1.64, 2.56 0.62, 3.26 0.41 C3.96 0.2, 5.55 1.04, 6.06 0.9 C6.58 0.77, 6.64 -0.32, 6.37 -0.4" stroke="#1e1e1e" stroke-width="2" fill="none"></path></g></g><g clip-path="url(#pK5R5-FAKFLrx0CmEYPuX)"><g stroke-linecap="round" transform="translate(585.975433581084 1744.245255085379) rotate(333.24107489169387 7.608742023764989 3.3394634779695025)"><path d="M7.56 -0.93 C9.32 -0.96, 11.43 0.66, 12.6 1.1 C13.77 1.55, 14.17 1.23, 14.59 1.73 C15 2.24, 15.72 3.33, 15.09 4.14 C14.45 4.95, 12.24 6.11, 10.78 6.58 C9.32 7.04, 8.05 7.17, 6.34 6.93 C4.62 6.68, 1.57 5.73, 0.5 5.11 C-0.57 4.49, -0.52 3.85, -0.08 3.19 C0.35 2.53, 1.75 1.6, 3.12 1.13 C4.49 0.66, 7.3 0.41, 8.13 0.38 C8.97 0.36, 8.22 1.08, 8.12 0.99 M4.24 1.39 C5.92 1.51, 10.13 1.62, 11.73 1.54 C13.33 1.47, 13.52 0.47, 13.83 0.94 C14.14 1.4, 13.78 3.63, 13.58 4.34 C13.38 5.04, 13.48 4.99, 12.61 5.19 C11.74 5.4, 10.05 5.44, 8.36 5.55 C6.67 5.66, 3.89 6.19, 2.47 5.84 C1.05 5.48, -0.02 3.93, -0.17 3.43 C-0.32 2.93, 0.76 3.63, 1.6 2.83 C2.43 2.03, 3.98 -0.95, 4.84 -1.39 C5.7 -1.82, 6.76 0.11, 6.75 0.22" stroke="none" stroke-width="0" fill="#000"></path><path d="M8.52 0.72 C10.27 0.63, 11.79 -0.33, 12.81 0.06 C13.83 0.44, 14.54 2.17, 14.64 3.03 C14.74 3.89, 14.27 4.79, 13.4 5.21 C12.52 5.62, 10.85 5.25, 9.38 5.52 C7.91 5.8, 6.01 7.05, 4.55 6.85 C3.1 6.66, 1.25 4.9, 0.62 4.36 C0 3.82, 0.59 4.28, 0.82 3.59 C1.04 2.9, 0.74 0.88, 1.97 0.22 C3.21 -0.45, 7.12 -0.31, 8.23 -0.39 C9.34 -0.47, 8.46 -0.31, 8.64 -0.25 M11.47 -0.25 C13.2 -0.33, 14.77 -0.58, 15.52 0.33 C16.26 1.24, 16.28 4.07, 15.95 5.21 C15.61 6.34, 14.83 7.07, 13.52 7.15 C12.22 7.22, 9.66 5.87, 8.12 5.64 C6.59 5.41, 5.44 5.91, 4.31 5.75 C3.17 5.59, 1.85 5.29, 1.33 4.67 C0.81 4.06, 0.56 2.68, 1.18 2.04 C1.8 1.4, 3.48 1.29, 5.05 0.85 C6.62 0.41, 9.98 -0.46, 10.59 -0.6 C11.2 -0.73, 8.96 -0.38, 8.72 0.03" stroke="#1e1e1e" stroke-width="2" fill="none"></path></g></g><g clip-path="url(#pK5R5-FAKFLrx0CmEYPuX)"><g stroke-linecap="round" transform="translate(637.9480850821838 1802.1719782354776) rotate(333.24107489169387 4.558997555453061 3.5494728166158325)"><path d="M5.35 0.48 C6.13 0.49, 6.56 -0.16, 7.28 0.17 C8.01 0.5, 9.53 1.56, 9.72 2.47 C9.91 3.39, 8.94 4.88, 8.44 5.69 C7.93 6.49, 7.76 7.15, 6.68 7.32 C5.6 7.49, 3 7.04, 1.95 6.71 C0.9 6.38, 0.53 5.97, 0.36 5.34 C0.19 4.71, 0.66 3.63, 0.93 2.92 C1.21 2.21, 1.43 1.42, 2 1.08 C2.57 0.75, 3.87 1.15, 4.35 0.9 C4.83 0.65, 4.84 -0.26, 4.87 -0.39 M4.24 1.35 C5.24 0.74, 5.27 -0.81, 5.78 -0.68 C6.29 -0.54, 6.67 1.45, 7.31 2.15 C7.95 2.86, 9.41 3.03, 9.63 3.56 C9.85 4.09, 9.5 4.72, 8.63 5.33 C7.77 5.94, 5.69 7.14, 4.44 7.23 C3.2 7.32, 1.86 6.21, 1.15 5.88 C0.45 5.56, 0.42 6.27, 0.23 5.29 C0.03 4.32, -0.71 0.88, -0.02 0.03 C0.68 -0.83, 4.02 0.33, 4.41 0.17 C4.8 0, 2.68 -1.01, 2.33 -0.97" stroke="none" stroke-width="0" fill="#000"></path><path d="M3.79 -0.61 C4.45 -0.9, 5.42 0.16, 6.1 0.65 C6.79 1.13, 7.58 1.83, 7.91 2.32 C8.24 2.81, 8.29 2.83, 8.08 3.58 C7.86 4.34, 7.36 6.39, 6.62 6.86 C5.88 7.33, 4.44 6.42, 3.66 6.41 C2.89 6.41, 2.71 7.36, 1.99 6.83 C1.26 6.3, -0.47 4.18, -0.71 3.22 C-0.95 2.26, -0.05 1.64, 0.54 1.04 C1.13 0.45, 2.12 -0.14, 2.82 -0.35 C3.52 -0.56, 4.48 -0.37, 4.74 -0.24 M6.39 -1.23 C7.2 -0.91, 7.99 1.47, 8.58 2.43 C9.17 3.39, 9.93 4.2, 9.93 4.55 C9.93 4.9, 9.03 4.17, 8.56 4.54 C8.1 4.91, 7.94 6.27, 7.15 6.75 C6.36 7.23, 4.89 7.65, 3.82 7.42 C2.74 7.18, 1.28 6.03, 0.72 5.33 C0.16 4.64, 0.13 4.16, 0.43 3.25 C0.73 2.34, 2 0.46, 2.55 -0.11 C3.1 -0.69, 3.43 -0.45, 3.74 -0.18 C4.05 0.09, 4.29 1.4, 4.38 1.49" stroke="#1e1e1e" stroke-width="2" fill="none"></path></g></g><g clip-path="url(#pK5R5-FAKFLrx0CmEYPuX)"><g stroke-linecap="round" transform="translate(571.5988668478312 1823.1595760388545) rotate(333.24107489169387 5.156585220742272 5.09748020918687)"><path d="M2.44 -0.25 C3.36 -0.96, 5.82 -0.94, 6.97 -0.52 C8.12 -0.11, 8.66 1.19, 9.35 2.24 C10.04 3.28, 11.32 4.72, 11.12 5.76 C10.91 6.8, 9.02 7.72, 8.11 8.49 C7.19 9.25, 6.47 10.18, 5.64 10.35 C4.81 10.53, 4.02 10.12, 3.14 9.55 C2.26 8.98, 0.96 7.88, 0.39 6.94 C-0.19 6.01, -0.8 5.18, -0.3 3.96 C0.19 2.75, 2.6 0.35, 3.37 -0.33 C4.14 -1.02, 4.31 -0.14, 4.31 -0.13 M6.6 -0.55 C7.21 -0.37, 7.73 2.01, 8.44 3.01 C9.14 4.02, 10.62 4.62, 10.82 5.47 C11.01 6.33, 10.57 7.32, 9.6 8.12 C8.64 8.93, 6.4 10.25, 5.03 10.33 C3.65 10.4, 2.15 9.11, 1.35 8.55 C0.55 8, 0.44 8.32, 0.23 7.01 C0.02 5.71, -0.69 1.85, 0.07 0.72 C0.83 -0.41, 3.79 0.47, 4.82 0.23 C5.84 -0.01, 6.02 -0.75, 6.23 -0.71 C6.43 -0.66, 5.65 0.04, 6.03 0.48" stroke="none" stroke-width="0" fill="#000"></path><path d="M6.51 0.61 C7.32 1.07, 8.35 2.05, 8.83 2.8 C9.3 3.54, 9.51 3.98, 9.36 5.08 C9.22 6.18, 8.73 8.66, 7.95 9.4 C7.17 10.14, 5.6 9.47, 4.7 9.53 C3.79 9.6, 3.41 10.49, 2.52 9.79 C1.63 9.1, -0.29 6.65, -0.65 5.36 C-1 4.08, -0.16 3.01, 0.38 2.09 C0.92 1.18, 1.2 0.16, 2.58 -0.13 C3.96 -0.41, 7.57 0.14, 8.67 0.4 C9.77 0.66, 9.34 1.13, 9.18 1.43 M5.25 1.45 C6.17 1.67, 7.88 1.92, 8.72 2.1 C9.57 2.27, 9.89 1.71, 10.32 2.49 C10.76 3.27, 11.59 5.5, 11.33 6.79 C11.07 8.08, 9.9 9.65, 8.74 10.25 C7.58 10.84, 5.6 10.59, 4.37 10.35 C3.14 10.12, 1.99 9.87, 1.37 8.84 C0.75 7.81, 0.83 5.38, 0.62 4.15 C0.41 2.93, -0.42 1.94, 0.13 1.49 C0.67 1.04, 3.27 1.68, 3.89 1.46 C4.51 1.23, 3.78 0.5, 3.85 0.15" stroke="#1e1e1e" stroke-width="2" fill="none"></path></g></g><g clip-path="url(#pK5R5-FAKFLrx0CmEYPuX)"><g stroke-linecap="round" transform="translate(616.629140965756 1783.020837757933) rotate(35.60461532479705 6.573823570370223 3.0402086423488868)"><path d="M8.74 -0.58 C10.13 -0.31, 11.05 0.72, 11.92 1.42 C12.79 2.11, 14.18 3, 13.95 3.6 C13.72 4.2, 11.66 4.59, 10.54 5.03 C9.41 5.47, 8.33 6.13, 7.2 6.25 C6.07 6.38, 4.89 6.09, 3.76 5.76 C2.63 5.44, 1.1 4.79, 0.44 4.28 C-0.22 3.77, -0.64 3.45, -0.18 2.71 C0.28 1.96, 1.78 0.27, 3.2 -0.19 C4.62 -0.65, 7.38 0.01, 8.34 -0.05 C9.31 -0.12, 8.8 -0.75, 8.99 -0.56 M7.81 0.37 C9.3 0.6, 12.02 0.41, 13.12 0.79 C14.21 1.17, 14.8 1.82, 14.41 2.63 C14.02 3.43, 12.16 5.08, 10.76 5.63 C9.35 6.17, 7.4 5.71, 5.99 5.89 C4.57 6.06, 3.39 7.33, 2.26 6.67 C1.13 6, -0.77 2.77, -0.79 1.89 C-0.81 1.02, 1.4 1.9, 2.13 1.41 C2.87 0.92, 2.66 -0.83, 3.64 -1.03 C4.61 -1.24, 6.81 -0.21, 7.98 0.19 C9.14 0.58, 10.47 1.29, 10.61 1.32" stroke="none" stroke-width="0" fill="#000"></path><path d="M3.46 0.4 C4.62 -0.06, 6.53 -1.02, 7.91 -0.77 C9.29 -0.53, 10.97 1.26, 11.76 1.87 C12.54 2.48, 12.68 2.16, 12.64 2.88 C12.61 3.6, 12.67 5.73, 11.55 6.17 C10.42 6.61, 7.49 5.71, 5.91 5.51 C4.32 5.31, 3.16 5.36, 2.06 4.97 C0.95 4.58, -0.68 3.8, -0.75 3.17 C-0.81 2.54, 0.51 1.71, 1.69 1.19 C2.87 0.68, 5.4 0.08, 6.34 0.06 C7.28 0.04, 7.47 0.86, 7.34 1.07 M4.76 1.58 C5.87 0.89, 7.24 -0.84, 8.68 -0.91 C10.13 -0.99, 12.5 0.31, 13.44 1.13 C14.37 1.96, 14.62 3.29, 14.28 4.02 C13.94 4.75, 12.57 5.07, 11.4 5.51 C10.23 5.95, 8.62 6.81, 7.27 6.68 C5.92 6.55, 4.68 5.25, 3.3 4.73 C1.92 4.21, -0.49 3.84, -1.01 3.57 C-1.54 3.29, -0.6 3.65, 0.13 3.1 C0.85 2.55, 2.72 0.92, 3.33 0.26 C3.93 -0.4, 3.6 -1.04, 3.77 -0.87" stroke="#1e1e1e" stroke-width="2" fill="none"></path></g></g><g clip-path="url(#pK5R5-FAKFLrx0CmEYPuX)"><g stroke-linecap="round" transform="translate(561.7689355985285 1775.4972603529582) rotate(46.52230547947578 3.6620108345900917 2.332792973392827)"><path d="M2.31 0.37 C3.01 0.33, 4.95 0.38, 5.56 0.48 C6.16 0.58, 5.67 0.58, 5.93 0.97 C6.2 1.36, 7 2.27, 7.17 2.82 C7.34 3.36, 7.49 3.86, 6.96 4.23 C6.43 4.6, 5.05 4.9, 4.01 5.04 C2.97 5.18, 1.45 5.52, 0.72 5.07 C0 4.62, -0.21 3.01, -0.35 2.34 C-0.48 1.66, -0.52 1.56, -0.11 1.02 C0.3 0.49, 1.43 -0.8, 2.1 -0.86 C2.77 -0.92, 3.65 0.54, 3.9 0.67 M3.12 -0.76 C4.28 -1.15, 5.74 -1.31, 6.4 -0.96 C7.07 -0.61, 7.01 0.75, 7.12 1.34 C7.23 1.93, 7.22 1.88, 7.06 2.58 C6.91 3.29, 6.9 5.46, 6.18 5.56 C5.47 5.65, 3.42 3.4, 2.78 3.17 C2.13 2.93, 2.95 4.41, 2.32 4.14 C1.68 3.87, -0.51 2.06, -1.01 1.54 C-1.51 1.03, -1.51 1.14, -0.69 1.07 C0.13 1.01, 3.42 1.33, 3.94 1.14 C4.45 0.96, 2.59 0.36, 2.38 -0.02" stroke="none" stroke-width="0" fill="#000"></path><path d="M3.32 -0.92 C4.12 -0.86, 5.31 0.73, 5.91 1.15 C6.5 1.57, 6.68 1.02, 6.91 1.59 C7.13 2.17, 7.78 4.18, 7.25 4.59 C6.71 5, 4.63 4.15, 3.69 4.04 C2.75 3.94, 2.32 4.18, 1.6 3.97 C0.89 3.76, -0.49 3.23, -0.59 2.78 C-0.69 2.33, 0.52 1.66, 1.02 1.26 C1.51 0.86, 1.76 0.42, 2.36 0.38 C2.96 0.34, 4.27 0.93, 4.61 1.05 C4.95 1.17, 4.57 1.14, 4.4 1.1 M5.57 -0.79 C6.35 -0.86, 7.96 0.45, 8.42 1.19 C8.88 1.93, 8.75 3.09, 8.34 3.65 C7.93 4.21, 6.76 4.29, 5.96 4.55 C5.15 4.82, 4.24 5.49, 3.51 5.26 C2.79 5.02, 2.4 3.67, 1.61 3.17 C0.83 2.67, -0.95 2.41, -1.19 2.27 C-1.43 2.14, -0.4 2.71, 0.17 2.35 C0.74 1.98, 1.39 0.61, 2.21 0.07 C3.03 -0.48, 4.55 -1.1, 5.09 -0.93 C5.63 -0.77, 5.67 0.68, 5.45 1.04" stroke="#1e1e1e" stroke-width="2" fill="none"></path></g></g><g clip-path="url(#pK5R5-FAKFLrx0CmEYPuX)"><g stroke-linecap="round" transform="translate(583.6217122885373 1787.4422628226312) rotate(20.14619487905899 4.411754623693469 7.10409331854396)"><path d="M3.79 0.76 C4.48 0.16, 4.47 -0.14, 5.19 0.37 C5.92 0.89, 7.42 2.48, 8.15 3.86 C8.88 5.24, 9.69 7.13, 9.55 8.66 C9.42 10.18, 8.34 11.94, 7.35 13.01 C6.36 14.08, 4.65 15.26, 3.61 15.08 C2.56 14.91, 1.75 13.13, 1.08 11.95 C0.4 10.76, -0.3 9.54, -0.46 7.96 C-0.63 6.38, -0.71 3.69, 0.1 2.48 C0.92 1.27, 3.6 1.18, 4.42 0.72 C5.24 0.25, 5.23 -0.17, 4.99 -0.3 M6.03 -1.11 C6.86 -0.97, 7.21 0.81, 7.64 1.99 C8.07 3.17, 8.47 4.24, 8.59 5.96 C8.7 7.68, 8.96 11.25, 8.35 12.31 C7.74 13.38, 5.68 12.14, 4.92 12.37 C4.16 12.61, 4.7 14.24, 3.79 13.72 C2.87 13.2, 0.26 10.61, -0.55 9.25 C-1.37 7.88, -1.73 6.65, -1.11 5.53 C-0.48 4.4, 2.26 3.45, 3.19 2.5 C4.12 1.55, 4.24 0.45, 4.48 -0.19 C4.73 -0.83, 4.61 -1.36, 4.67 -1.35" stroke="none" stroke-width="0" fill="#000"></path><path d="M4.39 0.41 C5.36 0.52, 6.31 0.33, 7.17 1.5 C8.03 2.67, 9.51 5.89, 9.52 7.43 C9.54 8.96, 7.99 9.68, 7.26 10.71 C6.53 11.73, 6.09 13.19, 5.15 13.58 C4.21 13.97, 2.28 13.73, 1.62 13.07 C0.97 12.42, 1.35 10.96, 1.21 9.65 C1.08 8.33, 0.65 6.42, 0.8 5.18 C0.95 3.94, 1.44 2.9, 2.11 2.21 C2.79 1.52, 4.44 1.29, 4.84 1.06 C5.24 0.83, 4.33 0.79, 4.52 0.84 M7.69 0.46 C8.67 1.27, 9.38 3.31, 9.59 4.77 C9.8 6.24, 9.35 7.78, 8.95 9.24 C8.56 10.71, 7.93 12.85, 7.21 13.55 C6.48 14.24, 5.81 13.69, 4.63 13.42 C3.44 13.14, 0.94 12.63, 0.08 11.91 C-0.78 11.19, -0.56 10.59, -0.54 9.1 C-0.52 7.62, -0.4 4.68, 0.2 3.01 C0.8 1.33, 2.03 -0.69, 3.07 -0.95 C4.12 -1.21, 6.17 1, 6.47 1.43 C6.76 1.85, 4.8 1.71, 4.86 1.6" stroke="#1e1e1e" stroke-width="2" fill="none"></path></g></g><g clip-path="url(#pK5R5-FAKFLrx0CmEYPuX)"><g stroke-linecap="round" transform="translate(642.3826745995812 1761.7223037821568) rotate(25.23586876276867 2.0461363531212555 1.0201586325016478)"><path d="M1.43 -0.1 C1.69 -0.12, 2.8 0.29, 3.38 0.5 C3.96 0.7, 4.81 0.88, 4.9 1.13 C4.98 1.38, 4.39 1.7, 3.88 1.99 C3.37 2.28, 2.37 2.98, 1.84 2.89 C1.32 2.79, 1.09 1.71, 0.73 1.43 C0.37 1.15, -0.13 1.47, -0.33 1.2 C-0.53 0.93, -0.8 -0.13, -0.46 -0.21 C-0.11 -0.28, 1.11 0.8, 1.73 0.77 C2.36 0.73, 3.23 -0.17, 3.28 -0.44 C3.32 -0.7, 2.12 -1.01, 1.99 -0.84 M1.71 0.19 C1.83 0.27, 2.26 -0.4, 2.65 -0.11 C3.04 0.19, 3.98 2, 4.08 1.97 C4.17 1.95, 3.17 -0.23, 3.21 -0.25 C3.25 -0.26, 4.71 1.69, 4.32 1.88 C3.94 2.07, 1.69 0.91, 0.88 0.88 C0.07 0.85, -0.66 1.49, -0.56 1.7 C-0.46 1.91, 1.36 2.4, 1.49 2.16 C1.62 1.92, 0.22 0.87, 0.23 0.27 C0.23 -0.33, 1.28 -1.28, 1.53 -1.45 C1.78 -1.62, 1.73 -0.89, 1.73 -0.77" stroke="none" stroke-width="0" fill="#000"></path><path d="M0.7 -0.55 C1.25 -0.58, 2.83 0.78, 3.21 0.84 C3.59 0.91, 2.87 -0.14, 2.96 -0.17 C3.05 -0.2, 3.8 0.41, 3.76 0.65 C3.71 0.9, 2.8 1.12, 2.69 1.3 C2.59 1.47, 3.32 1.58, 3.13 1.69 C2.95 1.79, 2.05 1.8, 1.57 1.91 C1.09 2.01, 0.54 2.37, 0.26 2.32 C-0.02 2.26, -0.14 1.87, -0.12 1.59 C-0.1 1.31, -0.02 0.78, 0.38 0.63 C0.77 0.47, 1.95 0.69, 2.25 0.64 M2.52 0.71 C2.72 0.71, 2.78 0.27, 3.04 0.33 C3.3 0.4, 3.83 1.1, 4.1 1.12 C4.37 1.14, 5 0.36, 4.68 0.44 C4.35 0.52, 2.69 1.11, 2.16 1.61 C1.62 2.11, 1.82 3.42, 1.48 3.45 C1.15 3.48, 0.4 2.38, 0.12 1.8 C-0.16 1.23, -0.24 0.1, -0.19 0.01 C-0.13 -0.08, 0.43 1.12, 0.45 1.26 C0.47 1.4, -0.32 1.14, -0.05 0.85 C0.22 0.55, 2.03 -0.56, 2.07 -0.52" stroke="#1e1e1e" stroke-width="2" fill="none"></path></g></g><g clip-path="url(#pK5R5-FAKFLrx0CmEYPuX)"><g stroke-linecap="round" transform="translate(551.8144779551294 1759.1237311754066) rotate(25.23586876276867 2.2945616216852613 2.2905629871439146)"><path d="M2.6 0.23 C3.33 0.34, 4.52 0.62, 4.88 1.03 C5.24 1.44, 5.02 2.09, 4.76 2.7 C4.5 3.3, 3.73 4.44, 3.31 4.66 C2.89 4.89, 2.68 4.15, 2.23 4.04 C1.78 3.93, 1.04 4.34, 0.61 4.02 C0.17 3.69, -0.47 2.42, -0.4 2.09 C-0.34 1.77, 0.6 2.44, 1 2.06 C1.4 1.69, 1.73 0.3, 1.99 -0.16 C2.25 -0.63, 2.28 -0.89, 2.58 -0.7 C2.88 -0.51, 3.78 0.63, 3.77 0.98 M1.26 -0.03 C1.68 -0.01, 2.87 1.6, 3.23 1.54 C3.6 1.48, 3.03 -0.59, 3.42 -0.4 C3.82 -0.21, 5.72 2.14, 5.61 2.68 C5.5 3.22, 3.5 2.54, 2.75 2.85 C2.01 3.16, 1.21 4.14, 1.14 4.52 C1.07 4.89, 2.54 5.42, 2.34 5.09 C2.14 4.76, 0.27 3.45, -0.06 2.55 C-0.39 1.65, 0.07 0.24, 0.36 -0.3 C0.66 -0.84, 1.54 -0.61, 1.73 -0.68 C1.92 -0.75, 1.48 -1.09, 1.5 -0.7" stroke="none" stroke-width="0" fill="#000"></path><path d="M3.42 0.86 C3.84 0.93, 3.21 0.09, 3.35 0.26 C3.49 0.43, 4.29 1.38, 4.26 1.89 C4.23 2.41, 3.31 2.98, 3.18 3.36 C3.06 3.75, 3.74 4.05, 3.5 4.2 C3.27 4.36, 2.29 4.32, 1.76 4.29 C1.23 4.27, 0.61 4.36, 0.3 4.05 C-0.02 3.74, -0.14 2.99, -0.13 2.45 C-0.13 1.92, -0.31 1.14, 0.34 0.83 C0.99 0.53, 3.2 0.71, 3.79 0.62 C4.38 0.54, 4.14 0.23, 3.86 0.33 M2.41 0.28 C2.73 0.21, 3.46 0.92, 3.91 1.04 C4.37 1.15, 5.26 0.62, 5.14 0.97 C5.01 1.31, 3.57 2.29, 3.16 3.09 C2.75 3.9, 3.03 5.55, 2.68 5.79 C2.33 6.02, 1.48 5.06, 1.06 4.5 C0.65 3.93, 0.33 2.68, 0.18 2.4 C0.04 2.11, 0.33 2.97, 0.18 2.81 C0.04 2.65, -1.15 2, -0.71 1.44 C-0.27 0.87, 2.56 -0.52, 2.83 -0.59 C3.1 -0.67, 1.22 0.85, 0.94 1" stroke="#1e1e1e" stroke-width="2" fill="none"></path></g></g><g clip-path="url(#pK5R5-FAKFLrx0CmEYPuX)"><g stroke-linecap="round" transform="translate(612.9933116153952 1809.6265946589767) rotate(25.23586876276867 2.0461363531212555 1.0201586325016478)"><path d="M2.75 0.19 C3.22 0.2, 3.35 0.34, 3.45 0.58 C3.54 0.83, 3.32 1.61, 3.32 1.67 C3.32 1.73, 3.6 0.96, 3.43 0.97 C3.27 0.98, 2.75 1.71, 2.33 1.72 C1.91 1.73, 1.1 0.97, 0.91 1.04 C0.72 1.11, 1.19 2.26, 1.18 2.16 C1.17 2.06, 1.03 0.9, 0.83 0.44 C0.63 -0.03, -0.23 -0.64, -0.02 -0.64 C0.2 -0.64, 1.87 0.17, 2.14 0.44 C2.41 0.71, 1.73 1.01, 1.59 0.98 M2.35 1.42 C2.66 1.2, 2.14 -1.15, 2.61 -1.23 C3.07 -1.31, 5.11 0.66, 5.12 0.93 C5.14 1.21, 3.32 0.25, 2.71 0.41 C2.1 0.58, 1.44 1.5, 1.44 1.93 C1.45 2.36, 2.95 3.08, 2.73 2.97 C2.51 2.87, 0.56 1.91, 0.12 1.29 C-0.31 0.68, -0.03 -0.38, 0.13 -0.7 C0.29 -1.02, 0.74 -0.6, 1.08 -0.63 C1.42 -0.66, 1.94 -1.23, 2.17 -0.9 C2.39 -0.57, 2.35 1.02, 2.43 1.33" stroke="none" stroke-width="0" fill="#000"></path><path d="M0.66 -0.52 C0.87 -0.8, 2.06 -0.45, 2.45 -0.35 C2.83 -0.25, 2.57 -0.1, 2.98 0.11 C3.39 0.31, 4.72 0.58, 4.89 0.87 C5.05 1.16, 4.42 1.48, 3.97 1.84 C3.52 2.2, 2.77 2.88, 2.18 3.04 C1.59 3.19, 0.92 2.98, 0.43 2.76 C-0.07 2.54, -0.93 2, -0.8 1.72 C-0.67 1.43, 0.68 1.3, 1.22 1.05 C1.77 0.8, 2.49 0.22, 2.47 0.2 C2.45 0.18, 1.28 0.84, 1.12 0.96 M2.76 0.63 C3.23 0.49, 4.26 -0.41, 4.28 -0.37 C4.3 -0.33, 3.1 0.29, 2.89 0.87 C2.68 1.45, 3.2 2.92, 3.01 3.12 C2.81 3.31, 2.09 2.44, 1.71 2.03 C1.33 1.63, 0.98 0.69, 0.74 0.7 C0.5 0.71, 0.6 1.96, 0.27 2.08 C-0.06 2.2, -1.5 1.85, -1.25 1.42 C-0.99 0.99, 1.38 -0.41, 1.8 -0.48 C2.22 -0.56, 1.34 0.87, 1.29 0.97 C1.24 1.08, 1.25 0.08, 1.48 0.14" stroke="#1e1e1e" stroke-width="2" fill="none"></path></g></g><g clip-path="url(#pK5R5-FAKFLrx0CmEYPuX)"><g stroke-linecap="round" transform="translate(569.9275544227949 1749.8929975306237) rotate(25.23586876276867 2.0461363531212555 1.0201586325016478)"><path d="M2.41 0.38 C2.57 0.5, 2.58 1.18, 2.78 1.18 C2.99 1.19, 3.58 0.4, 3.65 0.43 C3.72 0.46, 3.47 1.27, 3.2 1.37 C2.93 1.47, 2.22 0.86, 2.03 1.05 C1.83 1.25, 2.19 2.54, 2.02 2.53 C1.84 2.51, 1.44 1.43, 1 0.99 C0.57 0.54, -0.59 -0.1, -0.59 -0.17 C-0.6 -0.23, 0.55 0.43, 0.97 0.62 C1.38 0.81, 1.73 1.05, 1.9 0.98 C2.06 0.92, 1.86 0.42, 1.97 0.25 M1.09 -1.5 C1.64 -1.75, 3.99 0.06, 4.31 0.24 C4.62 0.43, 3.25 -0.57, 2.98 -0.38 C2.7 -0.18, 2.44 0.85, 2.67 1.41 C2.9 1.97, 4.56 2.9, 4.34 2.97 C4.12 3.03, 2.02 2.29, 1.36 1.81 C0.71 1.33, 0.6 0.38, 0.42 0.09 C0.24 -0.2, 0.25 0.19, 0.29 0.07 C0.33 -0.05, 0.34 -0.83, 0.66 -0.62 C0.98 -0.41, 1.91 1.06, 2.2 1.31 C2.5 1.56, 2.69 0.87, 2.43 0.89" stroke="none" stroke-width="0" fill="#000"></path><path d="M2.53 -0.33 C2.9 -0.24, 2.63 -0.06, 3.02 0.15 C3.41 0.35, 4.72 0.62, 4.87 0.91 C5.01 1.2, 4.36 1.52, 3.9 1.87 C3.43 2.22, 2.68 2.89, 2.09 3.03 C1.5 3.18, 0.85 2.95, 0.36 2.73 C-0.12 2.5, -0.96 1.96, -0.81 1.67 C-0.66 1.39, 0.74 1.25, 1.27 1.01 C1.8 0.77, 2.15 0.2, 2.34 0.22 C2.54 0.23, 2.3 0.95, 2.45 1.09 C2.59 1.22, 3.05 1.15, 3.22 1.05 M2.85 -0.76 C3.02 -0.89, 2.18 -0.41, 2.3 0.11 C2.41 0.62, 3.4 2.09, 3.53 2.34 C3.67 2.59, 3.31 1.86, 3.11 1.61 C2.91 1.36, 2.65 0.64, 2.35 0.82 C2.06 1, 1.94 2.46, 1.35 2.69 C0.75 2.93, -1.12 2.66, -1.21 2.24 C-1.31 1.81, 0.63 0.34, 0.78 0.15 C0.93 -0.03, -0.39 1.14, -0.31 1.13 C-0.24 1.12, 0.77 0.08, 1.24 0.1 C1.71 0.12, 2.25 1.44, 2.51 1.24" stroke="#1e1e1e" stroke-width="2" fill="none"></path></g></g><g clip-path="url(#pK5R5-FAKFLrx0CmEYPuX)"><g stroke-linecap="round" transform="translate(597.9582359030519 1764.1793169095042) rotate(25.23586876276867 2.0461363531212555 1.0201586325016478)"><path d="M1.52 0.88 C1.83 0.74, 2.72 -0.18, 3.07 -0.21 C3.41 -0.24, 3.55 0.55, 3.57 0.7 C3.59 0.84, 3.21 0.34, 3.18 0.66 C3.16 0.97, 3.61 2.45, 3.41 2.59 C3.21 2.73, 2.63 1.83, 1.99 1.48 C1.34 1.14, -0.18 0.58, -0.48 0.53 C-0.79 0.48, 0.02 1.09, 0.15 1.19 C0.28 1.29, -0.01 1.3, 0.29 1.14 C0.6 0.98, 1.49 0.41, 1.98 0.23 C2.47 0.05, 3.15 0.04, 3.24 0.05 M4.02 0.15 C4.37 0.29, 3.08 -0.72, 2.87 -0.54 C2.67 -0.35, 2.5 0.68, 2.79 1.26 C3.09 1.83, 4.82 2.79, 4.64 2.89 C4.45 2.99, 2.36 2.28, 1.69 1.84 C1.02 1.39, 0.87 0.49, 0.63 0.22 C0.39 -0.05, 0.31 0.36, 0.28 0.24 C0.24 0.12, 0.17 -0.68, 0.44 -0.5 C0.7 -0.31, 1.36 1.09, 1.87 1.33 C2.38 1.58, 3.52 0.96, 3.49 0.98 C3.46 1, 1.69 1.4, 1.71 1.47" stroke="none" stroke-width="0" fill="#000"></path><path d="M0.61 -0.38 C1.2 -0.44, 3.05 -0.42, 3.7 -0.26 C4.35 -0.1, 4.43 0.18, 4.51 0.6 C4.59 1.01, 4.46 1.89, 4.2 2.26 C3.95 2.62, 3.5 2.75, 2.98 2.81 C2.47 2.86, 1.33 2.66, 1.09 2.57 C0.86 2.49, 1.6 2.52, 1.57 2.31 C1.54 2.1, 1.21 1.46, 0.89 1.31 C0.57 1.15, -0.45 1.47, -0.35 1.38 C-0.25 1.3, 1.04 1, 1.47 0.8 C1.9 0.61, 2.15 0.3, 2.21 0.22 M1.26 -0.17 C1.47 0.22, 2.72 1.59, 3.1 1.79 C3.47 2, 3.44 1.26, 3.48 1.05 C3.53 0.84, 3.52 0.23, 3.36 0.51 C3.2 0.8, 3.15 2.42, 2.52 2.78 C1.89 3.14, -0.14 3.02, -0.43 2.68 C-0.71 2.34, 0.91 0.92, 0.81 0.74 C0.71 0.56, -0.93 1.68, -1.05 1.59 C-1.17 1.51, -0.55 0.28, 0.08 0.22 C0.71 0.16, 2.25 1.47, 2.74 1.24 C3.23 1.01, 3.09 -0.95, 3.01 -1.17" stroke="#1e1e1e" stroke-width="2" fill="none"></path></g></g><g clip-path="url(#pK5R5-FAKFLrx0CmEYPuX)"><g stroke-linecap="round" transform="translate(612.5134574545755 1757.8461691199554) rotate(41.31673012714735 6.598885213004451 3.4756779123379147)"><path d="M7.4 -0.45 C8.77 -0.55, 10.32 0.53, 11.2 1.04 C12.08 1.54, 12.46 1.69, 12.66 2.57 C12.87 3.45, 13.14 5.69, 12.44 6.33 C11.74 6.98, 10.12 6.58, 8.47 6.45 C6.82 6.32, 3.88 5.78, 2.55 5.55 C1.21 5.32, 0.9 5.45, 0.45 5.06 C-0.01 4.67, -0.53 3.94, -0.16 3.2 C0.2 2.46, 1.11 1.13, 2.64 0.62 C4.17 0.1, 7.83 0.08, 9.01 0.09 C10.19 0.1, 9.62 0.68, 9.72 0.67 M2.38 -0.74 C3.14 -1.13, 4.89 -0.51, 6.69 0 C8.5 0.51, 12.17 1.76, 13.23 2.32 C14.3 2.88, 13.36 3.04, 13.09 3.37 C12.83 3.69, 12.5 3.83, 11.63 4.28 C10.76 4.73, 9.27 5.87, 7.86 6.08 C6.45 6.29, 4.39 5.57, 3.18 5.54 C1.98 5.51, 1 6.3, 0.63 5.89 C0.26 5.48, 0.71 3.76, 0.97 3.08 C1.23 2.39, 1.65 2, 2.19 1.77 C2.73 1.53, 4.14 1.65, 4.22 1.68" stroke="none" stroke-width="0" fill="#000"></path><path d="M6.06 -0.27 C7.61 -0.39, 9.19 -0.14, 10.33 0.44 C11.47 1.01, 12.51 2.32, 12.89 3.17 C13.26 4.02, 13.2 4.89, 12.6 5.52 C11.99 6.15, 10.26 6.63, 9.27 6.96 C8.27 7.29, 7.72 7.64, 6.61 7.47 C5.49 7.31, 3.79 6.47, 2.57 5.97 C1.36 5.48, -0.47 5.17, -0.69 4.52 C-0.91 3.88, 0.1 2.83, 1.25 2.11 C2.4 1.4, 5.33 0.53, 6.21 0.22 C7.09 -0.09, 6.52 0.16, 6.53 0.26 M4.39 1.52 C5.76 1.33, 7.49 0.45, 8.83 0.34 C10.16 0.23, 11.67 0.05, 12.39 0.85 C13.1 1.65, 13.71 4.1, 13.13 5.15 C12.56 6.2, 10.02 6.93, 8.94 7.13 C7.87 7.32, 8.05 6.38, 6.68 6.34 C5.31 6.29, 1.98 7.28, 0.71 6.86 C-0.57 6.45, -1.1 4.55, -0.97 3.85 C-0.84 3.15, 0.43 3.5, 1.5 2.68 C2.58 1.85, 4.95 -0.65, 5.5 -1.1 C6.05 -1.55, 4.84 -0.47, 4.82 -0.01" stroke="#1e1e1e" stroke-width="2" fill="none"></path></g></g><g clip-path="url(#pK5R5-FAKFLrx0CmEYPuX)"><g stroke-linecap="round" transform="translate(588.3914005696743 1813.295434556597) rotate(25.23586876276867 2.0461363531212555 1.0201586325016478)"><path d="M2.4 -0.15 C2.77 -0.14, 2.96 -0.7, 3.37 -0.36 C3.78 -0.03, 4.76 1.58, 4.87 1.87 C4.98 2.17, 4.65 1.53, 4.03 1.4 C3.42 1.28, 1.75 0.99, 1.19 1.12 C0.63 1.25, 0.97 2.03, 0.67 2.18 C0.38 2.34, -0.41 2.33, -0.59 2.07 C-0.76 1.8, -0.74 0.97, -0.37 0.61 C0 0.25, 1.07 -0.04, 1.62 -0.1 C2.17 -0.15, 2.51 0.31, 2.92 0.27 C3.33 0.22, 4.25 -0.48, 4.09 -0.37 M0.87 -0.06 C1.71 0.29, 4.34 1.14, 4.86 1.26 C5.38 1.38, 4.13 0.87, 3.96 0.66 C3.8 0.46, 4.05 -0.03, 3.89 0.05 C3.72 0.13, 3.42 0.98, 2.99 1.15 C2.57 1.32, 1.75 0.79, 1.34 1.07 C0.93 1.35, 0.68 2.72, 0.54 2.83 C0.41 2.93, 0.72 1.91, 0.55 1.7 C0.37 1.49, -0.87 1.66, -0.5 1.57 C-0.12 1.49, 2.54 1.25, 2.8 1.19 C3.05 1.13, 1.17 1.41, 1.01 1.19" stroke="none" stroke-width="0" fill="#000"></path><path d="M2.25 0.05 C2.54 0.22, 2.94 0.86, 3.17 1.12 C3.41 1.37, 3.67 1.48, 3.67 1.6 C3.66 1.73, 3.1 1.73, 3.17 1.87 C3.23 2.01, 4.15 2.38, 4.06 2.44 C3.98 2.49, 3.35 2.17, 2.64 2.21 C1.94 2.24, 0.3 2.69, -0.17 2.63 C-0.63 2.57, -0.32 2.18, -0.15 1.83 C0.03 1.49, 0.52 0.86, 0.86 0.58 C1.2 0.31, 1.67 0.22, 1.9 0.2 C2.12 0.18, 2.33 0.59, 2.22 0.44 M1.31 0.01 C1.78 -0.45, 2.56 -1.24, 3.04 -0.99 C3.53 -0.73, 4.3 0.99, 4.21 1.53 C4.11 2.07, 2.59 2.29, 2.48 2.26 C2.37 2.23, 3.94 1.24, 3.57 1.35 C3.21 1.47, 0.98 2.89, 0.28 2.95 C-0.42 3, -0.65 1.82, -0.65 1.68 C-0.64 1.55, -0.01 2.56, 0.29 2.13 C0.6 1.69, 0.95 -0.54, 1.2 -0.93 C1.44 -1.31, 1.59 -0.54, 1.76 -0.18 C1.93 0.18, 2.13 1.15, 2.21 1.24" stroke="#1e1e1e" stroke-width="2" fill="none"></path></g></g><g clip-path="url(#pK5R5-FAKFLrx0CmEYPuX)"><g stroke-linecap="round"><g transform="translate(474.59857581192773 1348.6949332950048) rotate(0 41.77781804219694 -0.4718805039835843)"><path d="M-0.37 -1.11 C13.79 -1.27, 69.98 -1.89, 83.93 -1.87 M1.63 0.92 C15.68 1.01, 68.74 0.09, 82.75 -0.59" stroke="#1e1e1e" stroke-width="2" fill="none"></path></g><g transform="translate(474.59857581192773 1348.6949332950048) rotate(0 41.77781804219694 -0.4718805039835843)"><path d="M53.03 9.77 C60.12 6.47, 67.53 6.28, 84.03 1.18 M55.83 10.62 C65.77 6.49, 75.72 1.37, 83.4 -1.46" stroke="#1e1e1e" stroke-width="2" fill="none"></path></g><g transform="translate(474.59857581192773 1348.6949332950048) rotate(0 41.77781804219694 -0.4718805039835843)"><path d="M52.41 -10.74 C59.47 -9.66, 67.02 -5.46, 84.03 1.18 M55.21 -9.89 C65.19 -6.48, 75.38 -4.06, 83.4 -1.46" stroke="#1e1e1e" stroke-width="2" fill="none"></path></g></g><mask></mask></g><g clip-path="url(#pK5R5-FAKFLrx0CmEYPuX)"><g stroke-linecap="round"><g transform="translate(343.71049904447955 1730.0332216994607) rotate(0 -58.44592175873959 40.75520094079002)"><path d="M-0.68 1.09 C-44.72 -1, -92.18 -2.15, -114.04 -1.03 M-0.9 0.72 C-44.39 -2.22, -86.28 -4.17, -114.14 -2.05 M-113.39 -2.46 C-115.4 25.57, -114.42 55.14, -116.09 81.6 M-114.72 -3.68 C-113.74 24.89, -116.25 53.41, -115.82 82.14 M-116.36 83.11 C-73.47 83.3, -26.26 82.24, -2.99 85.19 M-116.02 82.09 C-90.89 83.71, -65.72 83.24, -2.54 82.63 M-3.75 83.99 C-0.67 65.94, 0.56 47.58, -1.69 -1.57 M-3.24 84.02 C-1.97 55.95, -0.18 29.38, -0.98 0.91" stroke="#1e1e1e" stroke-width="2" fill="none"></path></g></g><mask></mask></g><g clip-path="url(#pK5R5-FAKFLrx0CmEYPuX)"><g stroke-linecap="round"><g transform="translate(337.8846042458845 1734.6648207503831) rotate(0 -52.811317558755036 35.61268711626553)"><path d="M0.54 -0.94 C-2.86 28.2, -1.95 60.15, -0.84 73.54 M-0.96 -0.03 C-0.58 14.16, -1.54 30.88, -2.01 73.94 M-2.87 73.29 C-28.17 73.42, -56.09 72.67, -103.86 72.37 M-1.58 73.44 C-28.97 72.35, -53 72.24, -103.59 71.75 M-106.18 72.73 C-103.03 45.56, -103.21 22.26, -103.81 -0.2 M-104.08 72.11 C-104.05 54.7, -103.64 37.38, -103.15 -2.71 M-101.29 -2.09 C-72.07 -2.49, -46.76 -2.64, 0.56 -0.53 M-102.55 -2.28 C-81.07 -1.44, -62.01 -0.69, -0.75 -0.85" stroke="#1e1e1e" stroke-width="2" fill="none"></path></g></g><mask></mask></g><g clip-path="url(#pK5R5-FAKFLrx0CmEYPuX)"><g stroke-linecap="round"><g transform="translate(344.0964713250387 1729.8459856173736) rotate(0 -62.65751690169145 -4.352731992321026)"><path d="M-0.9 -0.53 C-3.36 -0.77, -6.07 -3.66, -10.84 -5.85 M0.32 -0.48 C-3.53 -1.37, -7 -3.58, -9.97 -4.63 M-8.43 -4.83 C-46.09 -6.02, -82.73 -5.72, -125.64 -8.22 M-10.66 -4.9 C-34.12 -5.37, -59.03 -5.98, -124.21 -7.19 M-124.24 -7.54 C-121.19 -4.92, -118.32 -3.18, -115.79 -2.37 M-124.47 -7.38 C-121.18 -6.41, -118.48 -4.78, -115.1 -3.21" stroke="#1e1e1e" stroke-width="2" fill="none"></path></g></g><mask></mask></g><g clip-path="url(#pK5R5-FAKFLrx0CmEYPuX)"><g stroke-linecap="round"><g transform="translate(224.90093002534013 1811.6268057126986) rotate(0 -3.901502245357733 -44.36465656870553)"><path d="M0.11 0.87 C-1.15 -1.57, -4.78 -3.68, -7.05 -6.42 M0.06 0.39 C-2.12 -1.66, -4.79 -3.13, -7.64 -5.61 M-7.24 -5.56 C-7.18 -27.19, -8.36 -51.84, -7.71 -87.05 M-6.97 -5.02 C-5.64 -26.77, -5.69 -48.73, -5.35 -89.6" stroke="#1e1e1e" stroke-width="2" fill="none"></path></g></g><mask></mask></g><g clip-path="url(#pK5R5-FAKFLrx0CmEYPuX)"><g stroke-linecap="round"><g transform="translate(216.1144883481411 1793.991619173214) rotate(0 -6.365075765718757 -30.333840843065502)"><path d="M1.6 -0.3 C-5.69 -5.15, -6.06 -8.75, -14.94 -12.67 M0.43 0.1 C-3.51 -2.37, -6.1 -5.94, -15.15 -13.17 M-14.21 -12.82 C-14.93 -27.58, -14.58 -37.77, -12.3 -58.08 M-13.94 -13.44 C-13.74 -26.37, -12.47 -39.93, -10.81 -55.93 M-12.58 -55.08 C-8.96 -57.03, -3.75 -58.57, 2.42 -60.77 M-12.12 -56.81 C-7.98 -57.94, -4.03 -58.7, 1.33 -60.73" stroke="#1e1e1e" stroke-width="2" fill="none"></path></g></g><mask></mask></g><g clip-path="url(#pK5R5-FAKFLrx0CmEYPuX)"><g stroke-linecap="round"><g transform="translate(304.0652081478811 1814.6550635653505) rotate(0 -18.133537579740278 7.321155274472289)"><path d="M-1.93 -1.8 C-5.56 4.4, -14.21 13.84, -20 16.44 M-0.35 0.44 C-6.68 5.98, -14.11 13.05, -18.21 16.45 M-19.2 15.28 C-25.11 12.73, -29.46 3.96, -35.75 -0.06 M-17.78 16.31 C-23.76 9.24, -29.88 4.26, -35.92 -1.68" stroke="#1e1e1e" stroke-width="2" fill="none"></path></g></g><mask></mask></g><g clip-path="url(#pK5R5-FAKFLrx0CmEYPuX)"><g stroke-linecap="round"><g transform="translate(297.46353150319464 1820.044019752599) rotate(0 25.08167509290479 22.81643319103614)"><path d="M-1.08 0.87 C3.7 3.52, 19.81 7.48, 28.53 14.77 C37.25 22.06, 47.55 39.28, 51.25 44.59 M0.55 0.28 C5.7 3.24, 22.25 8.78, 30.64 16.29 C39.02 23.8, 47.45 40.64, 50.85 45.35" stroke="#1e1e1e" stroke-width="2" fill="none"></path></g></g><mask></mask></g><g clip-path="url(#pK5R5-FAKFLrx0CmEYPuX)"><g stroke-linecap="round"><g transform="translate(271.96247335556745 1818.3224135241078) rotate(0 -28.06463606381567 22.64200441076514)"><path d="M-1.15 -0.04 C-6.09 2.07, -21.58 5.8, -30.71 13.54 C-39.83 21.28, -51.75 41.06, -55.88 46.39 M0.44 -1.1 C-4.49 1.04, -21.78 6.91, -31.28 14.52 C-40.79 22.13, -52.62 39.19, -56.57 44.56" stroke="#1e1e1e" stroke-width="2" fill="none"></path></g></g><mask></mask></g><g clip-path="url(#pK5R5-FAKFLrx0CmEYPuX)"><g stroke-linecap="round"><g transform="translate(298.87281380156946 1826.7416296615613) rotate(0 -14.137407154423272 7.088006605041755)"><path d="M0.7 -1.06 C-1.49 -0.2, -9.84 5.29, -14.34 5.16 C-18.83 5.04, -23.86 -3.56, -26.27 -1.82 C-28.68 -0.08, -30.77 14.05, -28.77 15.58 C-26.77 17.11, -18.82 7.28, -14.27 7.38 C-9.72 7.47, -3.88 17.31, -1.5 16.13 C0.89 14.95, -0.22 2.92, 0.02 0.29 M-0.38 0.99 C-2.63 1.54, -10.81 3.79, -15.21 3.55 C-19.61 3.31, -24.51 -2.06, -26.76 -0.44 C-29.02 1.18, -30.6 11.95, -28.74 13.3 C-26.88 14.64, -20.36 7.26, -15.61 7.63 C-10.86 8, -2.97 16.94, -0.26 15.51 C2.46 14.09, 0.81 1.64, 0.68 -0.9" stroke="#1e1e1e" stroke-width="2" fill="none"></path></g></g><mask></mask></g><g clip-path="url(#pK5R5-FAKFLrx0CmEYPuX)"><g stroke-linecap="round"><g transform="translate(250.02915835733347 1774.8252143345203) rotate(0 35.278886131210584 -5.977557564572805)"><path d="M-1.9 -0.65 C7.8 6.47, 14.44 12.24, 19.98 22.39 M0.33 0.04 C6 6.71, 10.82 12.83, 19.42 21.3 M21.94 20.47 C41.22 2.2, 59.21 -13.9, 72.45 -26.48 M19.5 19.48 C33.6 8.92, 46.78 -3.23, 71.51 -24.43 M69.65 -25.05 C67.97 -28.43, 63.32 -30.78, 59.32 -33.09 M71.14 -25.17 C66.9 -28.45, 63.37 -31.48, 60.95 -33.86 M59.1 -32.37 C46.72 -16.54, 29.61 -0.9, 21.02 7.82 M60.75 -34.34 C49.46 -22.64, 38.15 -10.49, 22.46 7.59 M23.39 6.58 C19.11 1.28, 11.05 -5.56, 5.83 -11.23 M21.29 8.52 C17.61 3.05, 15.16 0.26, 7.96 -9.27 M8.67 -9.8 C5.91 -8.6, 2.96 -4.49, 0.47 -0.23 M7.52 -10.33 C5.95 -7.73, 4.25 -5.04, -0.02 -0.59" stroke="#1e1e1e" stroke-width="2" fill="none"></path></g></g><mask></mask></g><g clip-path="url(#pK5R5-FAKFLrx0CmEYPuX)"><g stroke-linecap="round" transform="translate(892.4527530762898 1724.6450396023204) rotate(0 27.81460987140781 25.60069298867586)"><path d="M14.99 3.44 C20 0.74, 28.83 0.35, 34.48 1.27 C40.14 2.18, 45.49 4.68, 48.91 8.91 C52.33 13.15, 54.95 20.96, 55 26.66 C55.05 32.37, 53.19 38.94, 49.21 43.15 C45.24 47.37, 37.02 51.13, 31.12 51.95 C25.22 52.76, 18.95 51.27, 13.84 48.03 C8.73 44.8, 2.43 37.73, 0.46 32.55 C-1.51 27.36, -0.65 21.98, 2.01 16.9 C4.67 11.81, 13.78 4.45, 16.4 2.04 C19.02 -0.36, 17.49 2.09, 17.74 2.47 M13.54 1.78 C18.23 -0.88, 27.27 -0.5, 33.39 1.01 C39.52 2.53, 46.68 6.76, 50.29 10.86 C53.91 14.95, 55.25 20.44, 55.1 25.58 C54.95 30.72, 53.05 37.68, 49.41 41.69 C45.77 45.71, 39.16 48.86, 33.26 49.68 C27.35 50.51, 19.37 49.56, 14 46.66 C8.64 43.76, 2.86 37.22, 1.07 32.28 C-0.72 27.35, 0.84 21.7, 3.25 17.06 C5.67 12.43, 13.74 6.95, 15.57 4.47 C17.39 1.99, 13.99 1.93, 14.19 2.16" stroke="#000000" stroke-width="2" fill="none"></path></g></g><g clip-path="url(#pK5R5-FAKFLrx0CmEYPuX)"><g stroke-linecap="round"><g transform="translate(917.1026017727891 1775.5626488306823) rotate(0 -1.1246442226779436 30.432222679333677)"><path d="M-1.17 -0.24 C-1.71 10.31, -1.9 51.72, -2.07 62.27 M0.42 -1.41 C-0.32 8.84, -2.16 49.82, -2.67 60.25" stroke="#000000" stroke-width="2" fill="none"></path></g></g><mask></mask></g><g clip-path="url(#pK5R5-FAKFLrx0CmEYPuX)"><g stroke-linecap="round"><g transform="translate(914.6164421587819 1839.2254149717992) rotate(0 12.34289531856166 19.041880750834252)"><path d="M0.66 0.2 C5.04 6.71, 21.01 32.73, 25.14 38.83 M-0.45 -0.74 C3.92 5.47, 20.23 30.83, 24.49 37.22" stroke="#000000" stroke-width="2" fill="none"></path></g></g><mask></mask></g><g clip-path="url(#pK5R5-FAKFLrx0CmEYPuX)"><g stroke-linecap="round"><g transform="translate(911.1202132384497 1836.7745999630852) rotate(0 -10.068085491838701 17.77456775072153)"><path d="M0.57 0.97 C-2.91 6.63, -16.4 28.55, -20.19 34.12 M-0.59 0.44 C-4.21 6.19, -17.48 29.29, -20.7 35.11" stroke="#000000" stroke-width="2" fill="none"></path></g></g><mask></mask></g><g clip-path="url(#pK5R5-FAKFLrx0CmEYPuX)"><g stroke-linecap="round"><g transform="translate(883.1683940201729 1810.8351539338234) rotate(0 16.606799773206603 -10.261103482719307)"><path d="M0.83 -1.04 C5.96 -4.8, 26.01 -18.41, 31.31 -21.54 M-0.19 1.02 C5.23 -2.68, 28.05 -16.6, 33.4 -20.39" stroke="#000000" stroke-width="2" fill="none"></path></g></g><mask></mask></g><g clip-path="url(#pK5R5-FAKFLrx0CmEYPuX)"><g stroke-linecap="round"><g transform="translate(914.8840671146354 1788.834137919217) rotate(0 11.091073480298292 13.946614061987304)"><path d="M-1.18 -0.74 C2.58 4.21, 19.22 23.99, 23.36 28.63 M0.41 1.49 C3.94 6.21, 18.68 22.56, 22.47 27" stroke="#000000" stroke-width="2" fill="none"></path></g></g><mask></mask></g><g clip-path="url(#pK5R5-FAKFLrx0CmEYPuX)"><g transform="translate(893.7682107930632 1731.2158311361181) rotate(0 24.262954711914062 11)"><text x="0" y="0" font-family="Virgil, Segoe UI Emoji" font-size="15.282036963929505px" fill="#000000" text-anchor="start" style="white-space: pre;" direction="ltr" dominant-baseline="text-before-edge"></text></g></g><g clip-path="url(#pK5R5-FAKFLrx0CmEYPuX)"><g stroke-linecap="round"><g transform="translate(326.3611396577062 822.4467981418809) rotate(0 115.57087452123324 -20.68919877998532)"><path d="M-0.17 -0.21 C21.82 -6.68, 92.47 -38.19, 131.31 -39.3 C170.15 -40.4, 216.07 -12.17, 232.87 -6.84 M-1.72 -1.37 C20.2 -8.16, 91.46 -40.42, 130.53 -41.15 C169.61 -41.89, 215.72 -11.52, 232.72 -5.79" stroke="#1e1e1e" stroke-width="2" fill="none"></path></g><g transform="translate(326.3611396577062 822.4467981418809) rotate(0 115.57087452123324 -20.68919877998532)"><path d="M202.48 -7.8 C210.99 -5.71, 216.63 -6.37, 231.04 -6.31 M201.87 -8.71 C213.44 -7.9, 225.71 -5.92, 233.38 -5.84" stroke="#1e1e1e" stroke-width="2" fill="none"></path></g><g transform="translate(326.3611396577062 822.4467981418809) rotate(0 115.57087452123324 -20.68919877998532)"><path d="M211.12 -26.41 C217.44 -19.78, 220.97 -15.88, 231.04 -6.31 M210.51 -27.32 C218.93 -19.5, 227.94 -10.51, 233.38 -5.84" stroke="#1e1e1e" stroke-width="2" fill="none"></path></g></g><mask></mask></g><g clip-path="url(#pK5R5-FAKFLrx0CmEYPuX)"><g stroke-linecap="round"><g transform="translate(670.6630408227802 922.37469794417) rotate(0 -139.09263045018724 102.89764010577126)"><path d="M1.17 -0.89 C10.91 27.61, 77.07 137.13, 58.25 171.24 C39.43 205.35, -58.2 210.44, -111.73 203.76 C-165.26 197.09, -224.92 140.82, -262.92 131.19 C-300.93 121.56, -326.91 143.51, -339.78 145.99 M0.32 1.25 C9.97 29.37, 76.27 135.48, 57.53 169.39 C38.8 203.3, -58.67 210.94, -112.09 204.72 C-165.51 198.5, -225.38 141.89, -262.99 132.06 C-300.6 122.23, -325.05 143.08, -337.74 145.75" stroke="#1e1e1e" stroke-width="2" fill="none"></path></g><g transform="translate(670.6630408227802 922.37469794417) rotate(0 -139.09263045018724 102.89764010577126)"><path d="M-317.03 126.32 C-320.92 132.8, -329.2 136.22, -338.48 145.28 M-315.81 125.36 C-320.87 129.97, -324.66 132.55, -338.62 146.12" stroke="#1e1e1e" stroke-width="2" fill="none"></path></g><g transform="translate(670.6630408227802 922.37469794417) rotate(0 -139.09263045018724 102.89764010577126)"><path d="M-309.26 145.31 C-315.38 146.5, -325.86 144.55, -338.48 145.28 M-308.04 144.35 C-314.55 145.07, -319.9 143.83, -338.62 146.12" stroke="#1e1e1e" stroke-width="2" fill="none"></path></g></g><mask></mask></g><g clip-path="url(#pK5R5-FAKFLrx0CmEYPuX)"><g stroke-linecap="round"><g transform="translate(280.4734243334842 1499.9268853112744) rotate(0 -10.78916786418813 101.8857870174968)"><path d="M0.64 -0.33 C0.47 9.55, 3.48 39.94, -0.33 59.4 C-4.14 78.86, -21.08 92.12, -22.24 116.44 C-23.41 140.76, -9.51 190.5, -7.32 205.32 M-0.48 -1.55 C-0.86 8.51, 2.55 41.08, -1.22 60.91 C-4.98 80.73, -21.57 93.74, -23.06 117.43 C-24.54 141.12, -12.77 188.28, -10.12 203.05" stroke="#1e1e1e" stroke-width="2" fill="none"></path></g><g transform="translate(280.4734243334842 1499.9268853112744) rotate(0 -10.78916786418813 101.8857870174968)"><path d="M-26.42 177.72 C-20.3 186.41, -15.58 197.65, -9.2 202.06 M-25.73 177.58 C-20.74 187.2, -15.63 194.71, -10.4 202.93" stroke="#1e1e1e" stroke-width="2" fill="none"></path></g><g transform="translate(280.4734243334842 1499.9268853112744) rotate(0 -10.78916786418813 101.8857870174968)"><path d="M-6.32 173.57 C-7.4 183.86, -9.88 196.58, -9.2 202.06 M-5.63 173.43 C-7.66 184.65, -9.56 193.61, -10.4 202.93" stroke="#1e1e1e" stroke-width="2" fill="none"></path></g></g><mask></mask></g><g clip-path="url(#pK5R5-FAKFLrx0CmEYPuX)"><g stroke-linecap="round"><g transform="translate(358.1651161308728 1768.80332108859) rotate(0 86.6637786082706 15.436308179684715)"><path d="M0.72 0.82 C15.22 5.69, 59.3 25.27, 88.13 29.42 C116.96 33.58, 159.45 26.08, 173.69 25.74 M-0.37 0.2 C13.93 4.68, 58.57 23.15, 87.46 27.52 C116.36 31.89, 158.6 26.84, 173.01 26.43" stroke="#1e1e1e" stroke-width="2" fill="none"></path></g><g transform="translate(358.1651161308728 1768.80332108859) rotate(0 86.6637786082706 15.436308179684715)"><path d="M146.89 39.38 C156.95 33.85, 165.01 29.01, 173.8 25.61 M144.99 39.17 C150.6 35.49, 157.2 32.55, 173.52 26.82" stroke="#1e1e1e" stroke-width="2" fill="none"></path></g><g transform="translate(358.1651161308728 1768.80332108859) rotate(0 86.6637786082706 15.436308179684715)"><path d="M145.58 18.9 C156.19 21.37, 164.76 24.54, 173.8 25.61 M143.68 18.69 C149.76 19.33, 156.64 20.71, 173.52 26.82" stroke="#1e1e1e" stroke-width="2" fill="none"></path></g></g><mask></mask></g><g clip-path="url(#pK5R5-FAKFLrx0CmEYPuX)"><g stroke-linecap="round"><g transform="translate(667.2294538779615 1792.6211636512423) rotate(0 103.5672845521458 -17.062139349299173)"><path d="M0.5 -1.07 C18.88 -6.53, 75.7 -30.59, 110.26 -33.16 C144.82 -35.72, 191.62 -19.49, 207.83 -16.47 M-0.7 0.98 C17.58 -4.77, 74.9 -32.08, 109.57 -34.83 C144.24 -37.59, 190.95 -18.48, 207.33 -15.56" stroke="#1e1e1e" stroke-width="2" fill="none"></path></g><g transform="translate(667.2294538779615 1792.6211636512423) rotate(0 103.5672845521458 -17.062139349299173)"><path d="M175.64 -12.3 C187.71 -13.12, 193.85 -14.39, 208.38 -16.65 M178.09 -13.74 C186.75 -13.15, 196.75 -14.35, 207.31 -15.22" stroke="#1e1e1e" stroke-width="2" fill="none"></path></g><g transform="translate(667.2294538779615 1792.6211636512423) rotate(0 103.5672845521458 -17.062139349299173)"><path d="M181.07 -32.09 C191.46 -27.04, 196 -22.45, 208.38 -16.65 M183.52 -33.53 C190.26 -26.5, 198.48 -21.21, 207.31 -15.22" stroke="#1e1e1e" stroke-width="2" fill="none"></path></g></g><mask></mask></g><g clip-path="url(#pK5R5-FAKFLrx0CmEYPuX)"><g stroke-linecap="round" transform="translate(126.49200963645308 1011.3614487482923) rotate(349.7012781896531 54 21.500000000000014)"><path d="M10.75 0 M10.75 0 C44.24 -2.29, 76.93 -1.29, 97.25 0 M10.75 0 C44.95 0.96, 78.16 0.39, 97.25 0 M97.25 0 C105.98 0.14, 109.64 4.58, 108 10.75 M97.25 0 C102.44 2.22, 105.95 2.77, 108 10.75 M108 10.75 C108.87 17.08, 107.67 20.73, 108 32.25 M108 10.75 C108.36 17.31, 107.53 23.5, 108 32.25 M108 32.25 C106.02 39.26, 104.35 43.53, 97.25 43 M108 32.25 C106.24 39.6, 104.8 44.09, 97.25 43 M97.25 43 C65.38 43.91, 37.14 42.72, 10.75 43 M97.25 43 C66.09 43.8, 33.59 44.29, 10.75 43 M10.75 43 C4.77 42.99, -1.77 40.68, 0 32.25 M10.75 43 C2.57 42.01, 1.88 40.07, 0 32.25 M0 32.25 C0.28 25.21, 0.49 15.98, 0 10.75 M0 32.25 C0.49 24.96, -0.83 20.26, 0 10.75 M0 10.75 C-1.64 4.12, 1.96 -0.07, 10.75 0 M0 10.75 C-1.15 3.58, 3.82 -0.83, 10.75 0" stroke="#1e1e1e" stroke-width="1" fill="none"></path></g></g><g clip-path="url(#pK5R5-FAKFLrx0CmEYPuX)"><g transform="translate(144.8840308156523 1022.8614487482923) rotate(349.7012781896531 35.60797882080078 10.000000000000014)"><text x="35.60797882080078" y="0" font-family="Virgil, Segoe UI Emoji" font-size="16px" fill="#1e1e1e" text-anchor="middle" style="white-space: pre;" direction="ltr" dominant-baseline="text-before-edge">*thinking*</text></g></g><g clip-path="url(#pK5R5-FAKFLrx0CmEYPuX)"><g stroke-linecap="round" transform="translate(160.73486519857033 1886.7722323335045) rotate(3.252983801459593 118 67.5)"><path d="M32 0 M32 0 C79.92 -1.09, 125.66 -1.31, 204 0 M32 0 C81.42 -0.78, 129.64 -1.47, 204 0 M204 0 C226.97 -0.09, 234.13 12.66, 236 32 M204 0 C226.03 0.65, 235.34 8.67, 236 32 M236 32 C235.65 51.48, 237.3 70.79, 236 103 M236 32 C235.72 57.95, 236.44 84.04, 236 103 M236 103 C234.11 125.57, 225.78 134.66, 204 135 M236 103 C237 125.15, 225.46 135.56, 204 135 M204 135 C161.72 136.76, 122.74 137.67, 32 135 M204 135 C155.98 134.57, 110.88 133.56, 32 135 M32 135 C10.7 133.18, 0.69 125.3, 0 103 M32 135 C11.62 134.05, -1.57 125.77, 0 103 M0 103 C-0.88 75.49, -1.03 49.75, 0 32 M0 103 C-0.2 73.92, 1.15 47.2, 0 32 M0 32 C-1.4 10.31, 10.64 -1.81, 32 0 M0 32 C2.18 9.79, 9.65 -1.75, 32 0" stroke="#1e1e1e" stroke-width="2" fill="none"></path></g></g><g clip-path="url(#pK5R5-FAKFLrx0CmEYPuX)"><g transform="translate(184.8549518684922 1904.2722323335045) rotate(3.252983801459593 93.87991333007812 50)"><text x="93.87991333007812" y="0" font-family="Virgil, Segoe UI Emoji" font-size="20px" fill="#1e1e1e" text-anchor="middle" style="white-space: pre;" direction="ltr" dominant-baseline="text-before-edge">Created!</text><text x="93.87991333007812" y="25" font-family="Virgil, Segoe UI Emoji" font-size="20px" fill="#1e1e1e" text-anchor="middle" style="white-space: pre;" direction="ltr" dominant-baseline="text-before-edge"></text><text x="93.87991333007812" y="50" font-family="Virgil, Segoe UI Emoji" font-size="20px" fill="#1e1e1e" text-anchor="middle" style="white-space: pre;" direction="ltr" dominant-baseline="text-before-edge">Please store your </text><text x="93.87991333007812" y="75" font-family="Virgil, Segoe UI Emoji" font-size="20px" fill="#1e1e1e" text-anchor="middle" style="white-space: pre;" direction="ltr" dominant-baseline="text-before-edge">session cookie!</text></g></g><g clip-path="url(#pK5R5-FAKFLrx0CmEYPuX)"><g stroke-linecap="round" transform="translate(497.83213406285995 1643.3775433005821) rotate(351.9934544544802 82.5 30)"><path d="M15 0 M15 0 C59.08 -0.19, 100.77 0.47, 150 0 M15 0 C61.75 -0.28, 108.72 -0.73, 150 0 M150 0 C159.91 -0.07, 166.67 3.3, 165 15 M150 0 C161.32 -0.51, 163.96 6.91, 165 15 M165 15 C165.17 28.62, 166.18 39.02, 165 45 M165 15 C165.58 25.08, 165.46 33.74, 165 45 M165 45 C164.44 55.92, 158.09 59.54, 150 60 M165 45 C162.86 53.87, 160.78 60.19, 150 60 M150 60 C104.4 57.25, 54.43 60.66, 15 60 M150 60 C111.28 60.55, 71.09 61.51, 15 60 M15 60 C4.5 58.64, -1.92 56.94, 0 45 M15 60 C5 58.69, 1.84 55.19, 0 45 M0 45 C0.87 40.18, -0.1 34.15, 0 15 M0 45 C1.13 37.48, -0.23 29.78, 0 15 M0 15 C1.47 3.27, 3.26 1.11, 15 0 M0 15 C-1.99 4.41, 4.91 1.43, 15 0" stroke="#1e1e1e" stroke-width="2" fill="none"></path></g></g><g clip-path="url(#pK5R5-FAKFLrx0CmEYPuX)"><g transform="translate(525.1821859427428 1648.3775433005821) rotate(351.9934544544802 55.14994812011719 25)"><text x="55.14994812011719" y="0" font-family="Virgil, Segoe UI Emoji" font-size="20px" fill="#1e1e1e" text-anchor="middle" style="white-space: pre;" direction="ltr" dominant-baseline="text-before-edge">Cookie with</text><text x="55.14994812011719" y="25" font-family="Virgil, Segoe UI Emoji" font-size="20px" fill="#1e1e1e" text-anchor="middle" style="white-space: pre;" direction="ltr" dominant-baseline="text-before-edge">session ID.</text></g></g><g clip-path="url(#pK5R5-FAKFLrx0CmEYPuX)"><g stroke-linecap="round" transform="translate(829.8360919902698 1903.8846614189645) rotate(8.525196709877074 82.5 30)"><path d="M15 0 M15 0 C47.55 1.05, 84.67 -0.16, 150 0 M15 0 C61.6 0.45, 106.5 -0.55, 150 0 M150 0 C158.91 -0.41, 164.99 6.86, 165 15 M150 0 C157.89 -0.23, 164.15 6.77, 165 15 M165 15 C166.8 23.72, 166.32 33.36, 165 45 M165 15 C164.73 23.39, 165.85 29.81, 165 45 M165 45 C166.38 56.59, 159.25 60.59, 150 60 M165 45 C165.28 53.43, 158.9 57.91, 150 60 M150 60 C122.08 60.32, 97.21 59, 15 60 M150 60 C117.88 59.41, 85.69 59.42, 15 60 M15 60 C4.48 59.66, -1.37 54.63, 0 45 M15 60 C3.52 59.19, -2.14 53.35, 0 45 M0 45 C2.18 37.07, 0.9 27.92, 0 15 M0 45 C-0.27 34.56, 0.22 26.33, 0 15 M0 15 C1.09 3.25, 6.76 1.35, 15 0 M0 15 C0.67 5.51, 3.37 0.02, 15 0" stroke="#1e1e1e" stroke-width="2" fill="none"></path></g></g><g clip-path="url(#pK5R5-FAKFLrx0CmEYPuX)"><g transform="translate(863.7661380718127 1908.8846614189645) rotate(8.525196709877074 48.56995391845703 25)"><text x="48.56995391845703" y="0" font-family="Virgil, Segoe UI Emoji" font-size="20px" fill="#1e1e1e" text-anchor="middle" style="white-space: pre;" direction="ltr" dominant-baseline="text-before-edge">User with</text><text x="48.56995391845703" y="25" font-family="Virgil, Segoe UI Emoji" font-size="20px" fill="#1e1e1e" text-anchor="middle" style="white-space: pre;" direction="ltr" dominant-baseline="text-before-edge">a session.</text></g></g><g clip-path="url(#pK5R5-FAKFLrx0CmEYPuX)"><g stroke-linecap="round" transform="translate(420.5394785383778 85.17898138384885) rotate(0 228 50)"><path d="M25 0 M25 0 C174.52 0.77, 324.19 0.54, 431 0 M25 0 C115.43 -0.96, 206.06 -1.08, 431 0 M431 0 C446.28 0.8, 456.54 10.31, 456 25 M431 0 C449.16 -1.58, 457.54 7.97, 456 25 M456 25 C454.9 40.99, 454.65 54.61, 456 75 M456 25 C455.46 36.41, 456.67 48.23, 456 75 M456 75 C456.82 90.86, 446.95 99.8, 431 100 M456 75 C456.66 91.14, 449.61 99.19, 431 100 M431 100 C287.81 100.14, 143.92 100.45, 25 100 M431 100 C329.02 101.92, 227.8 101.41, 25 100 M25 100 C8.53 101.3, -0.08 91.45, 0 75 M25 100 C7.65 100.35, -1.87 92.21, 0 75 M0 75 C0.68 63.27, 1.99 53.52, 0 25 M0 75 C0.06 65.07, 0.56 53.06, 0 25 M0 25 C0.9 9.9, 7.5 -1.46, 25 0 M0 25 C1.29 6.75, 9.94 -1.19, 25 0" stroke="#1e1e1e" stroke-width="2" fill="none"></path></g></g><g clip-path="url(#pK5R5-FAKFLrx0CmEYPuX)"><g transform="translate(478.76353859697156 112.67898138384885) rotate(0 169.77593994140625 22.5)"><text x="169.77593994140625" y="0" font-family="Virgil, Segoe UI Emoji" font-size="36px" fill="#1e1e1e" text-anchor="middle" style="white-space: pre;" direction="ltr" dominant-baseline="text-before-edge">Session creation </text></g></g><g clip-path="url(#pK5R5-FAKFLrx0CmEYPuX)"><g stroke-linecap="round"><g transform="translate(478.93287907908416 195.8950769656119) rotate(0 -34.626718688490655 37.75633888822313)"><path d="M0.51 -0.93 C-1.82 7.99, -1.61 41.26, -13.19 53.95 C-24.76 66.63, -59.69 71.7, -68.93 75.2 M-0.68 1.2 C-3.27 9.72, -2.86 39.53, -14.37 52.07 C-25.89 64.61, -60.77 72.48, -69.76 76.44" stroke="#1e1e1e" stroke-width="2" fill="none"></path></g></g><mask></mask></g><g clip-path="url(#pK5R5-FAKFLrx0CmEYPuX)"><g stroke-linecap="round"><g transform="translate(362.7848975648576 193.20730051380974) rotate(0 -83.8411421558967 58.40372974124145)"><path d="M0.79 -0.21 C-56.73 -1.77, -113.66 -4.85, -164.29 -3.6 M0.67 -0.16 C-65.91 -2.48, -132.21 -5.07, -164.58 -4.89 M-166.76 -4.61 C-167.93 32.18, -169.2 65.43, -169.24 117.26 M-164.24 -4.49 C-165.17 31.69, -166.54 66.85, -168.59 117.78 M-167.02 117.02 C-115.89 120.47, -66.27 120.73, -2.77 120.73 M-169.25 118.21 C-121.68 118.2, -73.78 119.62, -4.24 121.71 M-4.39 120.35 C0.05 77.54, -1.02 34.08, 1.57 -0.83 M-3.36 120.29 C-4.22 93.69, -2.89 66.77, -0.36 0.27" stroke="#1e1e1e" stroke-width="2" fill="none"></path></g></g><mask></mask></g><g clip-path="url(#pK5R5-FAKFLrx0CmEYPuX)"><g stroke-linecap="round"><g transform="translate(353.90264270379885 199.89892901911458) rotate(0 -75.8654180175813 52.44516331336703)"><path d="M-0.25 0.28 C-1.17 26.57, -0.63 56.46, -1.54 107.98 M0 0.31 C-0.52 24.05, -0.41 48.61, -3.71 106.08 M-4.69 108.64 C-40.29 106.29, -74.9 103.89, -151.22 103.65 M-2.99 107.13 C-44.26 105.38, -85.39 103.97, -150.88 102.58 M-149.87 103.9 C-151.6 76.56, -148.81 49.56, -147.95 -3.49 M-151.74 102.73 C-149.43 69.94, -148.26 37.21, -147.1 -3.75 M-146.12 -2.35 C-112.78 -0.96, -74.39 -1.98, -1.46 1.13 M-148.12 -2.61 C-113.58 -0.68, -79.83 -0.52, 0.01 0.95" stroke="#1e1e1e" stroke-width="2" fill="none"></path></g></g><mask></mask></g><g clip-path="url(#pK5R5-FAKFLrx0CmEYPuX)"><g stroke-linecap="round"><g transform="translate(361.29069449265444 192.93678609959966) rotate(0 -90.47476800911363 -5.45002926336781)"><path d="M-0.53 -1.1 C-3.45 -1.59, -6.61 -3.03, -15.22 -5.98 M-0.33 -0.5 C-3.62 -2.55, -8.18 -4.43, -14.61 -7.7 M-15.63 -6.22 C-60.86 -7.11, -106.2 -6.78, -180.57 -8.86 M-14 -6.82 C-58.23 -7.42, -101.89 -8.65, -180.59 -9.85 M-180.62 -10.4 C-175.56 -9.09, -173.19 -7.9, -165.91 -5.53 M-180.35 -10.36 C-175.77 -7.78, -170.63 -7.1, -166.58 -4.41" stroke="#1e1e1e" stroke-width="2" fill="none"></path></g></g><mask></mask></g><g clip-path="url(#pK5R5-FAKFLrx0CmEYPuX)"><g stroke-linecap="round"><g transform="translate(192.18195524774455 311.09184678606175) rotate(0 -5.716767459764469 -63.65782697481751)"><path d="M0.55 0.37 C-2.12 -1.68, -7.93 -4.15, -11.39 -7.96 M0.34 -0.52 C-3.79 -3.12, -7.78 -5.91, -11.33 -8.36 M-11.98 -8.68 C-9.53 -55.24, -8.83 -101.97, -9.49 -127.19 M-11.32 -8.15 C-10.38 -49.91, -10.17 -90.17, -9.26 -127.68" stroke="#1e1e1e" stroke-width="2" fill="none"></path></g></g><mask></mask></g><g clip-path="url(#pK5R5-FAKFLrx0CmEYPuX)"><g stroke-linecap="round"><g transform="translate(179.78667802221935 285.61293212904206) rotate(0 -9.728412330460742 -43.931833793802355)"><path d="M1.98 1.3 C-6.41 -3.21, -10.31 -9.17, -20.87 -20.84 M-0.18 -0.6 C-5.8 -5.74, -10.52 -10.23, -20.51 -20.75 M-21.7 -19.43 C-20.04 -39.21, -18.63 -60.76, -15.72 -81.1 M-21.36 -20.5 C-20.31 -39.04, -18.74 -58.93, -16.2 -81.7 M-16.84 -81.96 C-10.61 -85.2, -4.68 -87.25, 1.28 -89.16 M-15.99 -82.22 C-11.13 -84.03, -4.74 -85.39, 2.24 -88.99" stroke="#1e1e1e" stroke-width="2" fill="none"></path></g></g><mask></mask></g><g clip-path="url(#pK5R5-FAKFLrx0CmEYPuX)"><g stroke-linecap="round"><g transform="translate(326.90590573540794 240.6756759821062) rotate(0 -17.07705936430284 -10.29618767336433)"><path d="M0.78 -0.82 C-1.84 -4.68, -9.55 -22, -15.38 -21.95 C-21.2 -21.9, -30.95 -3.92, -34.17 -0.54 M-0.27 1.36 C-3 -1.8, -10.12 -19.84, -15.9 -20.51 C-21.68 -21.19, -31.8 -5.94, -34.93 -2.69" stroke="#1e1e1e" stroke-width="2" fill="none"></path></g></g><mask></mask></g><g clip-path="url(#pK5R5-FAKFLrx0CmEYPuX)"><g stroke-linecap="round"><g transform="translate(271.3098539630246 239.12084726987655) rotate(0 -17.445159317685466 -11.753121225092912)"><path d="M0.8 -0.19 C-2.02 -3.62, -10.27 -21.14, -16.18 -21.39 C-22.1 -21.63, -31.77 -4.93, -34.67 -1.67 M-0.23 -1.34 C-3.29 -5.06, -11.22 -23.41, -17.13 -23.32 C-23.04 -23.22, -33.05 -4.43, -35.69 -0.74" stroke="#1e1e1e" stroke-width="2" fill="none"></path></g></g><mask></mask></g><g clip-path="url(#pK5R5-FAKFLrx0CmEYPuX)"><g stroke-linecap="round"><g transform="translate(322.35654486945896 266.55302306497174) rotate(0 -45.18352682466002 9.642500373428561)"><path d="M0 0.37 C-3.46 3.79, -9.45 16.8, -19.92 20.3 C-30.39 23.81, -51.34 25.47, -62.83 21.4 C-74.32 17.32, -96.32 -0.16, -88.84 -4.12 C-81.36 -8.08, -29.85 -2.71, -17.97 -2.37 M-1.46 -0.48 C-5.19 3.09, -10.83 17.66, -21.13 21.44 C-31.43 25.23, -52.01 26.38, -63.28 22.24 C-74.54 18.1, -96.56 0.73, -88.71 -3.4 C-80.86 -7.52, -28.24 -3.1, -16.16 -2.51" stroke="#1e1e1e" stroke-width="2" fill="none"></path></g></g><mask></mask></g><g clip-path="url(#pK5R5-FAKFLrx0CmEYPuX)"><g stroke-linecap="round"><g transform="translate(303.58346940547017 315.4670045545615) rotate(0 -25.989031135678943 10.403803478381406)"><path d="M-1.26 1 C-9.33 6.54, -16.92 12.71, -28.01 22.94 M0.41 -0.4 C-6.5 5.36, -12.22 10.89, -25.49 23.05 M-25.9 23.11 C-35.75 14.62, -45.27 4.32, -50.16 -3.25 M-26.24 24.06 C-35.49 14.04, -44.76 5.12, -52.39 -2.06" stroke="#1e1e1e" stroke-width="2" fill="none"></path></g></g><mask></mask></g><g clip-path="url(#pK5R5-FAKFLrx0CmEYPuX)"><g stroke-linecap="round"><g transform="translate(296.18577870582703 323.25284534949174) rotate(0 37.13243033373783 32.42281073170844)"><path d="M0.6 -0.9 C7.8 2.67, 30.71 9.7, 42.66 20.67 C54.61 31.65, 67.28 57.53, 72.29 64.96 M-0.54 1.24 C6.52 5.02, 29.04 11.08, 41.6 21.83 C54.16 32.58, 69.6 58.39, 74.8 65.75" stroke="#1e1e1e" stroke-width="2" fill="none"></path></g></g><mask></mask></g><g clip-path="url(#pK5R5-FAKFLrx0CmEYPuX)"><g stroke-linecap="round"><g transform="translate(259.66448084503463 320.76550799865004) rotate(0 -41.17987143643268 32.56967912911378)"><path d="M-0.22 -0.72 C-8.01 2.78, -32.61 9.16, -46.11 20.1 C-59.61 31.03, -75.62 57.47, -81.23 64.91 M-1.8 1.51 C-9.25 5.21, -30.39 10.38, -43.78 21.1 C-57.17 31.83, -75.67 58.49, -82.14 65.86" stroke="#1e1e1e" stroke-width="2" fill="none"></path></g></g><mask></mask></g><g clip-path="url(#pK5R5-FAKFLrx0CmEYPuX)"><g stroke-linecap="round"><g transform="translate(298.0536714327609 332.9293991468887) rotate(0 -20.25106756673995 9.147606679983312)"><path d="M-0.73 -1.01 C-4.22 0.01, -15.07 5.8, -21.2 5.35 C-27.33 4.9, -34.31 -6.35, -37.53 -3.7 C-40.74 -1.05, -43.16 18.83, -40.47 21.27 C-37.78 23.7, -27.92 10.8, -21.4 10.9 C-14.88 11, -5.08 23.75, -1.34 21.86 C2.39 19.97, 0.68 3.13, 1.01 -0.42 M1.09 1.08 C-2.57 2.3, -15.83 7.18, -22.3 6.52 C-28.76 5.87, -34.73 -5.45, -37.68 -2.86 C-40.62 -0.26, -43.01 19.77, -39.97 22.12 C-36.93 24.46, -25.53 11.47, -19.44 11.23 C-13.35 10.99, -6.4 22.27, -3.41 20.67 C-0.41 19.08, -2.03 5.03, -1.47 1.67" stroke="#1e1e1e" stroke-width="2" fill="none"></path></g></g><mask></mask></g></svg>